<?xml version="1.0" encoding="utf-8"?>
<!-- Generator: Adobe Illustrator 26.1.0, SVG Export Plug-In . SVG Version: 6.00 Build 0)  -->
<svg version="1.0" xmlns="http://www.w3.org/2000/svg" xmlns:xlink="http://www.w3.org/1999/xlink" x="0px" y="0px"
	 viewBox="0 0 1920 1080" xml:space="preserve">
<style type="text/css">
	.st0{fill:#FFFFFF;}
</style>
<g transform="translate(81 945)">
	<path id="enpjJ" class="st0" d="M101.2,32.4v36.4c0,2.2-1.8,4-4.1,4h-0.5c-0.8,3.2-2.6,6-5,8.1h5.5c6.7,0,12.2-5.4,12.2-12.1V32.4
		H101.2z"/>
	<path id="enpJj" class="st0" d="M85,32.4v36.4c0,2.2-1.8,4-4.1,4h-8.1l0,8.1H81c6.7,0,12.2-5.4,12.2-12.1V32.4H85z"/>
	<path id="enPjj" class="st0" d="M68.8,32.4c-6.7,0-12.2,5.4-12.2,12.1v8.1c0,0,0,0,0,0h0V81h8.1V64.1c1.3,0.4,2.6,0.7,4.1,0.7
		c6.7,0,12.1-5.4,12.1-12.1v-8.1C81,37.8,75.6,32.4,68.8,32.4z M72.9,52.7c0,2.2-1.8,4-4,4s-4.1-1.8-4.1-4v-8.1c0-2.2,1.8-4,4.1-4
		s4,1.8,4,4V52.7z"/>
	<path id="eNpjj" class="st0" d="M40.5,32.4c-6.7,0-12.1,5.4-12.1,12.1V81h8.1V44.5c0-2.2,1.8-4,4-4c2.2,0,4,1.8,4,4V81h8.1V44.5
		C52.6,37.8,47.2,32.4,40.5,32.4z"/>
	<path id="Enpjj" class="st0" d="M24.3,60.8V44.5c0-6.7-5.4-12.1-12.1-12.1S0,37.8,0,44.5v24.3C0,75.6,5.4,81,12.1,81
		s12.1-5.4,12.1-12.1h-8.1c0,2.2-1.8,4-4,4c-2.2,0-4-1.8-4-4v-8.1H24.3z M8.1,44.5c0-2.2,1.8-4,4-4c2.2,0,4,1.8,4,4v8.1H8.1V44.5z"
		/>
	<path id="usine" class="st0" d="M125.5,0l-8.1,8.1v20.2h-8.1v-8.1c0-2.2-1.8-4-4-4c-2.2,0-4,1.8-4,4l0,8.1h-8.1v-4c0-2.2-1.8-4-4-4
		c-2.2,0-4,1.8-4,4v4H56.7V8.1L64.8,0H125.5z"/>
</g>
</svg>
