<?xml version="1.0" encoding="utf-8"?>
<!-- Generator: Adobe Illustrator 26.1.0, SVG Export Plug-In . SVG Version: 6.00 Build 0)  -->
<svg version="1.0" id="Calque_1" xmlns="http://www.w3.org/2000/svg" xmlns:xlink="http://www.w3.org/1999/xlink" x="0px" y="0px"
	 viewBox="0 0 275 100" style="enable-background:new 0 0 275 100;" xml:space="preserve">
<style type="text/css">
	.st0{fill:#FFFFFF;}
	.st1{fill:#000091;}
	.st2{fill:#E1000F;}
	.st3{fill:#7F7F7F;}
</style>
<g>
	<path class="st0" d="M71.2,57.7c0.2,0,0.2,0.2,0.2,0.4c-0.2,0.4-0.4,0.4-0.6,0.8c-0.2,0.4-0.4,0.6-0.8,0.8c-0.2,0-0.4,0-0.4-0.2
		C69.9,58.6,70.5,57.9,71.2,57.7z"/>
	<path class="st0" d="M80.2,86.4c-0.1,0.2-0.3,0.4-0.5,0.5c0.2,0,0.4,0.2,0.2,0.3c-0.4,0.4-0.9,0.8-1.4,1c0,0-0.2,0-0.3,0
		c-0.2,0.2-0.5,0.5-0.7,0.7c-0.2,0.2-1.3,0.1-0.9-0.2c0.5-0.4,0.9-0.9,1.4-1.3c0.3-0.2,0.5-0.5,0.8-0.8c0.1-0.1,0.2-0.3,0.4-0.4
		C79.3,86.1,80.3,86,80.2,86.4z"/>
	<path class="st0" d="M79.9,81.5c0.6,0,1.1,0,1.7,0.4c-1.7,0.9-3.3,2-4.8,3c0,0,0,0,0,0c-0.7,0.5-1.4,1-2.2,1.4
		c-0.8,0.5-1.7,0.8-2.5,1.2c0,0,0,0,0,0c-0.1-0.1-0.2-0.2-0.3-0.1c-0.7,0.4-1.3,0.9-1.9,1.5c-0.1,0.1-0.2,0.2-0.3,0.2c0,0,0,0,0,0
		l0,0c-0.1,0.1-0.2,0.2-0.3,0.3c0,0,0,0,0,0c0,0,0,0,0,0c-0.1,0.1-0.3,0.3-0.4,0.4c-0.1,0.1-0.1,0.2-0.2,0.3
		c-0.1,0.1-0.4,0.1-0.4-0.1v0c-0.1,0-0.2,0.1-0.3,0.2c-0.1,0-0.2,0.1-0.3,0.2c0,0-0.1,0-0.1,0c-0.1,0-0.1,0-0.1,0
		c-0.2,0.2-0.5,0.4-0.7,0.6c-0.4,0.4-0.8,0.8-1.1,1.2l0,0c0,0,0,0,0,0.1c0,0,0,0-0.1,0.1c0,0,0,0-0.1,0.1c0,0,0,0,0,0
		c0,0.1-0.1,0.1-0.1,0.2c0,0,0,0,0,0c0,0-0.1,0.1-0.1,0.1c0,0-0.1-0.1-0.1-0.1c0,0,0-0.1,0-0.1c-0.1-0.1-0.1-0.2-0.2-0.3
		c0,0,0,0,0,0c0,0,0-0.1-0.1-0.1c0.2-0.2,0.4-0.4,0.6-0.7c0,0,0,0,0,0c0.1-0.1,0.1-0.2,0.2-0.2c0.1-0.1,0.2-0.3,0.3-0.4
		c0-0.1,0.1-0.1,0.1-0.2c0.2-0.3,0.4-0.5,0.6-0.8c0,0,0,0,0,0c0,0,0-0.1,0.1-0.1c0.1-0.1,0.2-0.3,0.3-0.4c0.1-0.1,0.1-0.2,0.2-0.4
		c0,0,0,0,0,0c0,0,0,0,0,0c0,0,0,0,0-0.1c0.1-0.1,0.1-0.3,0.2-0.4c0,0,0,0,0,0c0,0,0-0.1,0-0.1c0-0.1,0-0.1,0.1-0.2c0,0,0,0,0,0
		c0-0.1,0-0.2,0.1-0.3c0,0,0-0.1,0-0.1c0.2-0.4,0.5-0.7,0.8-1c0,0-0.1,0-0.1,0.1c-0.3,0.2-0.4,0.4-0.7,0.6c-0.2,0.2-0.6-0.1-0.3-0.3
		c0.2-0.1,0.3-0.3,0.4-0.4c0,0,0,0,0,0c0.3-0.3,0.6-0.7,1-1c0.2-0.2,0.4-0.3,0.6-0.4c0,0,0-0.1,0.1-0.1c0.1-0.2,0.3-0.3,0.4-0.5
		c0,0,0,0,0,0c1.8-1.8,4.9-1.7,7.2-2.8C77.8,81.1,79,81.7,79.9,81.5z"/>
	<path class="st0" d="M70.3,57.5c-5.9,3.6-10,7.9-14.5,13c0,0-0.2-0.2-0.2-0.4c2.5-3.2,4.3-6.2,6-9.6c2.5-1.3,4.5-3.2,6.4-5.3
		c3.2-3.4,6.6-6.4,10.6-8.3c1.5-0.6,3.4-0.4,4.9,0.2c-0.6,0.8-1.5,0.6-2.3,1.1c-0.2,0-0.4,0-0.6-0.2c0.2-0.2,0.2-0.4,0.2-0.6
		c-1.9,2.1-4.5,3-6.1,5.5c-1.1,1.9-1.9,4.3-4.3,4.9C69.7,58,70.6,57.3,70.3,57.5z"/>
	<path class="st0" d="M87.3,72.8c0.4,0.6,0.9,0.4,1.3,0.8c-1.1,1.1-2.7,0.6-4,1.1c-0.4,0-1.1,0.2-0.9-0.2c0.2-1,1.5-1,2.3-1.3
		C86.3,73,86.9,72.6,87.3,72.8z"/>
	<path class="st0" d="M83.1,71.6c-0.8,0.4-1.9,0.6-2.5,0c-0.2-0.2,0.6,0,0.8-0.4h-1.5c-0.2,0-0.2-0.2-0.2-0.4c-1,0.2-2.1,0.6-3,0.8
		c-1.3,0.4-2.5,1.3-4,1.7c-2.1,0.8-3.8,2.5-6.1,3.2c-0.2,0-0.2-0.2-0.2-0.4c0.2-0.6,0.9-0.8,1.3-1.3c0-0.2,0-0.4-0.2-0.4
		c1.5-2.1,3.6-3.2,5.5-4.9V69c0.6-0.8,1.5-1.1,1.9-2.1c0.2-0.6,1-1.3,1.9-1.7c-0.2-0.2-0.6-0.2-0.6-0.6c-0.8,0-1.5,0.4-2.3-0.2
		c0.4-0.3,0.8-0.5,1.2-0.7c-0.2,0-0.3-0.1-0.4-0.3c-0.2-0.4,0.4-0.8,1-0.9c0.8-0.2,1.7-0.2,2.3-0.8c-1.3-0.2-2.8,0.4-4.2-0.4
		c0.9-2.5,2.5-4.5,4.7-5.7c0.2,0,0.6,0,0.6,0.2c0,0.9-0.6,1.7-1.5,1.9c1.5,0.4,3,0.4,4.5,1.1c-0.2,0.4-0.6,0.2-0.8,0.2
		c0.9,0.6,2.1,0.2,3,0.9c-0.6,0.6-1.1,0-1.7,0c5.9,1.7,12.1,3,17,6.8c-4.2,2.1-8.5,3-13,4c-0.6,0-1,0-1.5-0.2c0,0.2,0,0.6-0.2,0.6
		C84.2,71.3,83.7,71.3,83.1,71.6z"/>
	<path class="st0" d="M187.2,54.3c-0.6,1.3-2.6,1.1-4,1.9c-1.1,0.9-0.2,2.5,0.4,3.4c0.9,1.7-1.1,2.8-2.5,3.4
		c0.4,0.6,1.1,0.4,1.3,0.8c0.2,1,1.1,1.5,0.6,2.5c-0.8,1.1-3,1.7-1.9,3.4c0.8,1.3,0.3,2.8-0.2,4.2c-0.6,1.7-2.1,2.5-3.4,2.8
		c-1.1,0.4-2.5,0.4-3.6,0.2c-0.4-0.2-0.8-0.4-1.1-0.4c-3.2-0.4-6.4-1.3-9.6-1.3c-0.9,0.2-1.9,0.4-2.6,0.8c-0.9,0.6-1.6,1.3-2.3,2
		c0,0,0,0,0,0c-0.2,0.2-0.3,0.3-0.4,0.5c-0.1,0.1-0.2,0.2-0.2,0.3c0,0.1-0.1,0.1-0.2,0.2c-0.6,0.7-1.1,1.4-1.5,2.2
		c0,0-0.1,0.1-0.1,0.1c0,0.1-0.1,0.2-0.2,0.3c-0.6,1.1-1.1,2.3-1.4,3.5c-1.3,4.3-0.7,8,0.2,8.9c0.2,0.2,6.2,2.1,10.4,4
		c1.9,0.9,3.3,1.5,4.5,2.2H91.8c3.6-2.6,7.2-3.8,12.2-6.3c2.4-1.2,7.8-3.7,9.6-5.5c1.1-1.1,2.2-2.2,3.2-3.4h0c2-2.3,4-4.4,6.3-6.4
		c0.7-0.6,1.4-1.2,2.1-1.6c0.2-0.2,0.2-0.6,0.4-0.8c-1,0.4-1.5,1.1-2.5,1.5c-0.2,0-0.4-0.2-0.2-0.4c0.7-0.5,1.4-1,2-1.5h-0.1
		c-0.2,0-0.2-0.2-0.2-0.4c-2.5-0.4-4.3,1.3-6,2.8c-0.4,0.2-0.8-0.2-0.9-0.2c-2.8,0.9-4.9,3.4-7.8,4.5c0-0.2,0-0.2,0-0.4
		c-1.1,0.4-2.2,1.1-3.4,1.3c-1.7,0.4-3.2,0.2-4.7,0.2c-2.3,0.2-4.6,0.7-6.9,1.2c-0.1,0-0.1,0-0.2,0.1c-1.2,0.3-2.4,0.8-3.5,1.4
		c0,0-0.1,0-0.1,0.1c-0.1,0.1-0.2,0.2-0.3,0.3c-0.4,0.5-0.8,0.9-1.3,1.1c-1.2,0.6-2.1,1.6-3.1,2.5c-0.1,0.1-0.2,0.1-0.3,0.1
		c-1,1-2,2-3,2.9c-0.1,0.1-0.4,0.1-0.6,0.1c0,0,0,0,0,0c0-0.1,0.1-0.1,0.1-0.2c0.2-0.3,0.3-0.5,0.5-0.8c0.2-0.3,0.4-0.6,0.6-0.9
		c0.3-0.4,0.5-0.8,0.8-1.2c0.1-0.1,0.1-0.2,0-0.2c-0.1-0.1-0.2-0.1-0.3-0.1c0.9-0.9,2.1-1.7,3.2-2.4v0c-0.1,0-0.3,0-0.2-0.2
		c0.1-0.2,0.2-0.3,0.3-0.5c0-0.1,0-0.1,0.1-0.2c0,0-0.1-0.1-0.1-0.1c-0.3,0.2-0.6,0.4-0.9,0.6c-0.5,0.4-0.8,1.2-1.5,1.2
		c0,0-0.2,0-0.3,0c-0.1,0-0.2,0-0.2-0.1c0,0,0,0,0-0.1c0,0,0,0,0,0c0,0,0,0,0,0c0,0,0.1-0.1,0.1-0.2c0,0,0.1-0.1,0.1-0.2
		c0,0,0-0.1,0.1-0.1c0-0.1,0.1-0.2,0.1-0.2c0-0.1,0.1-0.1,0.1-0.2c0.1-0.1,0.2-0.3,0.2-0.4c0-0.1,0.1-0.1,0.1-0.2
		c0.1-0.1,0.1-0.2,0.2-0.4c0.1-0.1,0-0.3-0.1-0.3c0.3-0.5,0.8-0.8,1.3-1.1h-0.1c0.7-0.4,1.5-0.8,2.2-1.2c0.1-0.1,0.2-0.2,0.3-0.3
		c-1.1,0.4-2.1,0.9-3,1.5c0,0-0.2,0.1-0.3,0.2c0,0-0.2,0.1-0.5-0.2c0,0,0-0.1,0-0.1c0.2-0.4,0.8-0.6,1.1-1c0.2,0,0.4,0,0.4,0.2
		c6-4.7,14.4-3.6,21.3-6c0.6-0.4,1.1-0.8,1.7-1.1c1-0.4,1.7-1.3,2.8-1.9c1.5-1.1,2.6-2.5,3.2-4.3c0-0.2-0.2-0.4-0.2-0.4
		c-2.5,2.6-5.3,4.7-8.3,6.2c-4,2.1-8.3,1.7-12.5,2.3c0.2-0.4,0.6-0.4,1-0.4c0-0.6,0.4-0.8,0.8-1.1h0.6c0.2,0,0.2-0.4,0.4-0.4
		c0.4,0,0.9-0.2,0.8-0.2c-0.6-0.8-1.7,0.6-2.6,0c0.4-0.4,0.2-0.9,0.6-1.1h0.8c0-0.4,0.4-0.8,0.4-0.8c2.8-1.7,5.5-3,8.1-4.5
		c-0.6,0-0.9,0.6-1.5,0.2c0.4,0,0-0.6,0.4-0.6c2.1-0.6,3.8-1.7,5.9-2.5c-0.8,0-1.3,0.6-2.1,0c0.4-0.2,0.6-0.6,1.1-0.6v-0.6
		c0-0.2,0.2-0.2,0.4-0.2c-0.2,0-0.4-0.2-0.4-0.2c0.2-0.4,0.8-0.2,1.1-0.6c-0.2,0-0.6,0-0.6-0.2c0.6-0.8,1.5-1,2.5-1.1
		c-0.2-0.4-0.8,0-0.8-0.4c0-0.2,0.2-0.2,0.4-0.2c-0.2,0-0.2,0-0.4,0c-0.4-0.2-0.2-0.6-0.2-0.8c1.1-1.3,1.1-3,1.7-4.5
		c-0.2,0-0.4,0-0.4-0.2c-1.9,2.1-4.9,2.8-7.8,3.6h-1c-0.9,0.4-2.3,0.4-3.2-0.2c-0.8-0.4-1.1-1-1.9-1.5c-1.5-1-3-1.7-4.7-2.3
		c-4.7-1.5-9.6-2.3-14.5-2.1c2.1-1.1,4.4-1.2,6.6-1.9c3.2-1,6.2-2.1,9.6-1.9c-0.6-0.2-1.3,0-1.9,0c-2.7-0.2-5.3,0.6-8.1,1.1
		c-1.9,0.4-3.6,1.1-5.5,1.5c-1.1,0.4-1.7,1.5-3,1.3c0,0,0-0.4,0-0.6c1.9-2.3,4.2-4.5,7.2-4.7c3.4-0.6,6.6,0,10,0.4
		c2.5,0.2,4.7,0.8,7.2,1.3c0.9,0,1.1,1.5,1.9,1.7c1.1,0.4,2.3,0,3.4,0.8c0-0.4-0.2-0.8,0-1.1c0.8-0.8,1.7,0.2,2.5-0.2
		c1.5-0.9-1.3-2.6-2.1-4c0-0.2,0.2-0.4,0.2-0.4c1.5,1.3,2.7,2.8,4.5,3.8c0.9,0.4,3.2,1,2.8-0.2c-0.9-2.1-2.8-3.8-4.3-5.7v-0.8
		c-0.4,0-0.4-0.2-0.6-0.4v-0.8c-0.8-0.4-0.6-1.1-0.9-1.7c-0.6-1-0.2-2.3-0.6-3.4c-0.4-1.1-0.6-2.1-0.8-3.2c-0.6-3.2-1.3-6-1.7-9.1
		c-0.4-3.6,2.1-6.4,3.8-9.6c1.3-2.3,2.8-4.5,5.3-6c0.6-2.3,2.1-4.2,3.6-6c1.5-1.8,4-3,5.8-3.8c2.6-1.2,5-1.9,5-1.9h37.7
		c0,0,0.2,0,1,0.5c0.9,0.5,2,1.1,2.7,1.4c1.4,0.7,2.7,1.6,3.6,3c0.4,0.6,0.9,1.7,0.6,2.5c-0.4,1-0.6,2.5-1.5,2.8
		c-1.1,0.6-2.6,0.6-4,0.4c-0.8,0-1.5-0.2-2.3-0.4c2.8,1.1,5.5,2.5,7.4,5.1c0.2,0.4,0.9,0.6,1.7,0.6c0.2,0,0.2,0.4,0.2,0.6
		c-0.4,0.4-0.8,0.6-0.6,1.1h0.6c0.9-0.4,0.8-2.3,2.1-1.7c0.9,0.6,1.3,1.9,0.8,2.8c-0.8,0.8-1.5,1.3-2.3,1.9c-0.2,0.4-0.2,0.9,0,1.3
		c0.6,0.8,0.8,1.5,0.9,2.3c0.6,1.3,0.8,2.8,1.3,4.2c0.8,2.8,1.5,5.7,1.3,8.5c0,1.5-0.8,2.8-0.2,4.3c0.4,1.5,1.3,2.6,2.1,4
		c0.8,1.1,1.5,1.9,2.1,3C186.1,50.1,188.2,52,187.2,54.3z"/>
	<path class="st1" d="M123,77.1c0.7-0.5,1.4-1,2-1.5h-0.1c-0.2,0-0.2-0.2-0.2-0.4c-2.5-0.4-4.3,1.3-6,2.8c-0.4,0.2-0.8-0.2-0.9-0.2
		c-2.8,0.9-4.9,3.4-7.8,4.5c0-0.2,0-0.2,0-0.4c-1.1,0.4-2.2,1.1-3.4,1.3c-1.7,0.4-3.2,0.2-4.7,0.2c-2.3,0.2-4.6,0.7-6.9,1.2
		c-0.1,0-0.1,0-0.2,0.1c-1.2,0.3-2.4,0.8-3.5,1.4c0,0-0.1,0-0.1,0.1c-0.1,0.1-0.2,0.2-0.3,0.3c-0.4,0.5-0.8,0.9-1.3,1.1
		c-1.2,0.6-2.1,1.6-3.1,2.5c-0.1,0.1-0.2,0.1-0.3,0.1c-1,1-2,2-3,2.9c-0.1,0.1-0.4,0.1-0.6,0.1c0,0,0,0,0,0c0-0.1,0.1-0.1,0.1-0.2
		c0.2-0.3,0.3-0.5,0.5-0.8c0.2-0.3,0.4-0.6,0.6-0.9c0.3-0.4,0.5-0.8,0.8-1.2c0.1-0.1,0.1-0.2,0-0.2c-0.1-0.1-0.2-0.1-0.3-0.1
		c0.9-0.9,2.1-1.7,3.2-2.4v0c-0.1,0-0.3,0-0.2-0.2c0.1-0.2,0.2-0.3,0.3-0.5c0-0.1,0-0.1,0.1-0.2c0,0-0.1-0.1-0.1-0.1
		c-0.3,0.2-0.6,0.4-0.9,0.6c-0.5,0.4-0.8,1.2-1.5,1.2c0,0-0.2,0-0.3,0c-0.1,0-0.2,0-0.2-0.1c0,0,0,0,0-0.1c0,0,0,0,0,0c0,0,0,0,0,0
		c0,0,0.1-0.1,0.1-0.2c0,0,0.1-0.1,0.1-0.2c0,0,0-0.1,0.1-0.1c0-0.1,0.1-0.2,0.1-0.2c0-0.1,0.1-0.1,0.1-0.2c0.1-0.1,0.2-0.3,0.2-0.4
		c0-0.1,0.1-0.1,0.1-0.2c0.1-0.1,0.1-0.2,0.2-0.4c0.1-0.1,0-0.3-0.1-0.3c0.3-0.5,0.8-0.8,1.3-1.1h-0.1c0.7-0.4,1.5-0.8,2.2-1.2
		c0.1-0.1,0.2-0.2,0.3-0.3c-1.1,0.4-2.1,0.9-3,1.5c0,0-0.2,0.1-0.3,0.2c0,0-0.2,0.1-0.5-0.2c0,0,0-0.1,0-0.1c0.2-0.4,0.8-0.6,1.1-1
		c0.2,0,0.4,0,0.4,0.2c6-4.7,14.4-3.6,21.3-6c0.6-0.4,1.1-0.8,1.7-1.1c1-0.4,1.7-1.3,2.8-1.9c1.5-1.1,2.6-2.5,3.2-4.3
		c0-0.2-0.2-0.4-0.2-0.4c-2.5,2.6-5.3,4.7-8.3,6.2c-4,2.1-8.3,1.7-12.5,2.3c0.2-0.4,0.6-0.4,1-0.4c0-0.6,0.4-0.8,0.8-1.1h0.6
		c0.2,0,0.2-0.4,0.4-0.4c0.4,0,0.9-0.2,0.8-0.2c-0.6-0.8-1.7,0.6-2.6,0c0.4-0.4,0.2-0.9,0.6-1.1h0.8c0-0.4,0.4-0.8,0.4-0.8
		c2.8-1.7,5.5-3,8.1-4.5c-0.6,0-0.9,0.6-1.5,0.2c0.4,0,0-0.6,0.4-0.6c2.1-0.6,3.8-1.7,5.9-2.5c-0.8,0-1.3,0.6-2.1,0
		c0.4-0.2,0.6-0.6,1.1-0.6v-0.6c0-0.2,0.2-0.2,0.4-0.2c-0.2,0-0.4-0.2-0.4-0.2c0.2-0.4,0.8-0.2,1.1-0.6c-0.2,0-0.6,0-0.6-0.2
		c0.6-0.8,1.5-1,2.5-1.1c-0.2-0.4-0.8,0-0.8-0.4c0-0.2,0.2-0.2,0.4-0.2c-0.2,0-0.2,0-0.4,0c-0.4-0.2-0.2-0.6-0.2-0.8
		c1.1-1.3,1.1-3,1.7-4.5c-0.2,0-0.4,0-0.4-0.2c-1.9,2.1-4.9,2.8-7.8,3.6h-1c-0.9,0.4-2.3,0.4-3.2-0.2c-0.8-0.4-1.1-1-1.9-1.5
		c-1.5-1-3-1.7-4.7-2.3c-4.7-1.5-9.6-2.3-14.5-2.1c2.1-1.1,4.4-1.2,6.6-1.9c3.2-1,6.2-2.1,9.6-1.9c-0.6-0.2-1.3,0-1.9,0
		c-2.7-0.2-5.3,0.6-8.1,1.1c-1.9,0.4-3.6,1.1-5.5,1.5c-1.1,0.4-1.7,1.5-3,1.3c0,0,0-0.4,0-0.6c1.9-2.3,4.2-4.5,7.2-4.7
		c3.4-0.6,6.6,0,10,0.4c2.5,0.2,4.7,0.8,7.2,1.3c0.9,0,1.1,1.5,1.9,1.7c1.1,0.4,2.3,0,3.4,0.8c0-0.4-0.2-0.8,0-1.1
		c0.8-0.8,1.7,0.2,2.5-0.2c1.5-0.9-1.3-2.6-2.1-4c0-0.2,0.2-0.4,0.2-0.4c1.5,1.3,2.7,2.8,4.5,3.8c0.9,0.4,3.2,1,2.8-0.2
		c-0.9-2.1-2.8-3.8-4.3-5.7v-0.8c-0.4,0-0.4-0.2-0.6-0.4v-0.8c-0.8-0.4-0.6-1.1-0.9-1.7c-0.6-1-0.2-2.3-0.6-3.4
		c-0.4-1.1-0.6-2.1-0.8-3.2c-0.6-3.2-1.3-6-1.7-9.1c-0.4-3.6,2.1-6.4,3.8-9.6c1.3-2.3,2.8-4.5,5.3-6c0.6-2.3,2.1-4.2,3.6-6
		c1.5-1.8,4-3,5.8-3.8c2.6-1.2,5-1.9,5-1.9H0v100h91.8c3.6-2.6,7.2-3.8,12.2-6.3c2.4-1.2,7.8-3.7,9.6-5.5c1.1-1.1,2.2-2.2,3.2-3.4h0
		c2-2.3,4-4.4,6.3-6.4c0.7-0.6,1.4-1.2,2.1-1.6c0.2-0.2,0.2-0.6,0.4-0.8c-1,0.4-1.5,1.1-2.5,1.5C123,77.5,122.8,77.3,123,77.1z
		 M84.6,74.7c-0.4,0-1.1,0.2-0.9-0.2c0.2-1,1.5-1,2.3-1.3c0.4-0.2,1-0.6,1.3-0.4c0.4,0.6,0.9,0.4,1.3,0.8
		C87.5,74.7,85.9,74.1,84.6,74.7z M55.7,70.5c0,0-0.2-0.2-0.2-0.4c2.5-3.2,4.3-6.2,6-9.6c2.5-1.3,4.5-3.2,6.4-5.3
		c3.2-3.4,6.6-6.4,10.6-8.3c1.5-0.6,3.4-0.4,4.9,0.2c-0.6,0.8-1.5,0.6-2.3,1.1c-0.2,0-0.4,0-0.6-0.2c0.2-0.2,0.2-0.4,0.2-0.6
		c-1.9,2.1-4.5,3-6.1,5.5c-1.1,1.9-1.9,4.3-4.3,4.9c-0.8,0.2,0.2-0.6-0.2-0.4C64.4,61.1,60.2,65.4,55.7,70.5z M71.4,58
		c-0.2,0.4-0.4,0.4-0.6,0.8c-0.2,0.4-0.4,0.6-0.8,0.8c-0.2,0-0.4,0-0.4-0.2c0.2-0.8,0.8-1.5,1.5-1.7C71.4,57.7,71.4,57.9,71.4,58z
		 M80.2,86.4c-0.1,0.2-0.3,0.4-0.5,0.5c0.2,0,0.4,0.2,0.2,0.3c-0.4,0.4-0.9,0.8-1.4,1c0,0-0.2,0-0.3,0c-0.2,0.2-0.5,0.5-0.7,0.7
		c-0.2,0.2-1.3,0.1-0.9-0.2c0.5-0.4,0.9-0.9,1.4-1.3c0.3-0.2,0.5-0.5,0.8-0.8c0.1-0.1,0.2-0.3,0.4-0.4C79.3,86.1,80.3,86,80.2,86.4z
		 M76.8,84.8C76.8,84.8,76.8,84.8,76.8,84.8c-0.8,0.5-1.5,1-2.2,1.5c-0.8,0.5-1.7,0.8-2.5,1.2c0,0,0,0,0,0c-0.1-0.1-0.2-0.2-0.3-0.1
		c-0.7,0.4-1.3,0.9-1.9,1.5c-0.1,0.1-0.2,0.2-0.3,0.2c0,0,0,0,0,0l0,0c-0.1,0.1-0.2,0.2-0.3,0.3c0,0,0,0,0,0c0,0,0,0,0,0
		c-0.1,0.1-0.3,0.3-0.4,0.4c-0.1,0.1-0.1,0.2-0.2,0.3c-0.1,0.1-0.4,0.1-0.4-0.1v0c-0.1,0-0.2,0.1-0.3,0.2c-0.1,0-0.2,0.1-0.3,0.2
		c0,0-0.1,0-0.1,0c-0.1,0-0.1,0-0.1,0c-0.2,0.2-0.5,0.4-0.7,0.6c-0.4,0.4-0.8,0.8-1.1,1.2l0,0c0,0,0,0,0,0.1c0,0,0,0-0.1,0.1
		c0,0,0,0-0.1,0.1c0,0,0,0,0,0c0,0.1-0.1,0.1-0.1,0.2c0,0,0,0,0,0c0,0-0.1,0.1-0.1,0.1c0,0-0.1-0.1-0.1-0.1c0,0,0-0.1,0-0.1
		c-0.1-0.1-0.1-0.2-0.2-0.3c0,0,0,0,0,0c0,0,0-0.1-0.1-0.1c0.2-0.2,0.4-0.4,0.6-0.7c0,0,0,0,0,0c0.1-0.1,0.1-0.2,0.2-0.2
		c0.1-0.1,0.2-0.3,0.3-0.4c0-0.1,0.1-0.1,0.1-0.2c0.2-0.3,0.4-0.5,0.6-0.8c0,0,0,0,0,0c0,0,0-0.1,0.1-0.1c0.1-0.1,0.2-0.3,0.3-0.4
		c0.1-0.1,0.1-0.2,0.2-0.4c0,0,0,0,0,0c0,0,0,0,0,0c0,0,0,0,0-0.1c0.1-0.1,0.1-0.3,0.2-0.4c0,0,0,0,0,0c0,0,0-0.1,0-0.1
		c0-0.1,0-0.1,0.1-0.2c0,0,0,0,0,0c0-0.1,0-0.2,0.1-0.3c0,0,0-0.1,0-0.1c0.2-0.4,0.5-0.7,0.8-1c0,0-0.1,0-0.1,0.1
		c-0.3,0.2-0.4,0.4-0.7,0.6c-0.2,0.2-0.6-0.1-0.3-0.3c0.2-0.1,0.3-0.3,0.4-0.4c0,0,0,0,0,0c0.3-0.3,0.6-0.7,1-1
		c0.2-0.2,0.4-0.3,0.6-0.4c0,0,0-0.1,0.1-0.1c0.1-0.2,0.3-0.3,0.4-0.5c0,0,0,0,0,0c1.8-1.8,4.9-1.7,7.2-2.8c1-0.4,2.1,0.2,3,0
		c0.6,0,1.1,0,1.7,0.4C79.9,82.8,78.3,83.8,76.8,84.8z M80.7,71.6c-0.2-0.2,0.6,0,0.8-0.4h-1.5c-0.2,0-0.2-0.2-0.2-0.4
		c-1,0.2-2.1,0.6-3,0.8c-1.3,0.4-2.5,1.3-4,1.7c-2.1,0.8-3.8,2.5-6.1,3.2c-0.2,0-0.2-0.2-0.2-0.4c0.2-0.6,0.9-0.8,1.3-1.3
		c0-0.2,0-0.4-0.2-0.4c1.5-2.1,3.6-3.2,5.5-4.9V69c0.6-0.8,1.5-1.1,1.9-2.1c0.2-0.6,1-1.3,1.9-1.7c-0.2-0.2-0.6-0.2-0.6-0.6
		c-0.8,0-1.5,0.4-2.3-0.2c0.4-0.3,0.8-0.5,1.2-0.7c-0.2,0-0.3-0.1-0.4-0.3c-0.2-0.4,0.4-0.8,1-0.9c0.8-0.2,1.7-0.2,2.3-0.8
		c-1.3-0.2-2.8,0.4-4.2-0.4c0.9-2.5,2.5-4.5,4.7-5.7c0.2,0,0.6,0,0.6,0.2c0,0.9-0.6,1.7-1.5,1.9c1.5,0.4,3,0.4,4.5,1.1
		c-0.2,0.4-0.6,0.2-0.8,0.2c0.9,0.6,2.1,0.2,3,0.9c-0.6,0.6-1.1,0-1.7,0c5.9,1.7,12.1,3,17,6.8c-4.2,2.1-8.5,3-13,4
		c-0.6,0-1,0-1.5-0.2c0,0.2,0,0.6-0.2,0.6c-0.8,0-1.3,0-1.9,0.4C82.4,72,81.2,72.2,80.7,71.6z"/>
	<g>
		<path class="st2" d="M275,0v100H169.4c-1.1-0.7-2.5-1.4-4.5-2.2c-4.2-1.9-10.2-3.7-10.4-4c-0.9-0.9-1.5-4.6-0.2-8.9
			c0.3-1.1,0.8-2.3,1.4-3.5c0-0.1,0.1-0.2,0.2-0.3c0,0,0-0.1,0.1-0.1c0.4-0.8,0.9-1.5,1.5-2.2c0-0.1,0.1-0.1,0.2-0.2
			c0.1-0.1,0.2-0.2,0.2-0.3c0.1-0.2,0.3-0.3,0.4-0.5c0,0,0,0,0,0c0.7-0.7,1.4-1.4,2.3-2c0.8-0.4,1.7-0.6,2.6-0.8
			c3.2,0,6.4,1,9.6,1.3c0.4,0,0.8,0.2,1.1,0.4c1.1,0.2,2.5,0.2,3.6-0.2c1.3-0.4,2.8-1.1,3.4-2.8c0.5-1.4,1-2.8,0.2-4.2
			c-1.1-1.7,1.1-2.3,1.9-3.4c0.6-0.9-0.4-1.5-0.6-2.5c-0.2-0.4-1-0.2-1.3-0.8c1.3-0.6,3.4-1.7,2.5-3.4c-0.6-1-1.5-2.5-0.4-3.4
			c1.3-0.8,3.4-0.6,4-1.9c0.9-2.3-1.1-4.2-2.3-6.1c-0.6-1.1-1.3-1.9-2.1-3c-0.8-1.3-1.7-2.5-2.1-4c-0.6-1.5,0.2-2.8,0.2-4.3
			c0.2-2.8-0.6-5.7-1.3-8.5c-0.6-1.3-0.8-2.8-1.3-4.2c-0.2-0.8-0.4-1.5-0.9-2.3c-0.2-0.4-0.2-0.9,0-1.3c0.8-0.6,1.5-1.1,2.3-1.9
			c0.6-1,0.2-2.3-0.8-2.8c-1.3-0.6-1.1,1.3-2.1,1.7h-0.6c-0.2-0.6,0.2-0.8,0.6-1.1c0-0.2,0-0.6-0.2-0.6c-0.8,0-1.5-0.2-1.7-0.6
			c-1.9-2.6-4.5-4-7.4-5.1c0.8,0.2,1.5,0.4,2.3,0.4c1.3,0.2,2.8,0.2,4-0.4c1-0.4,1.1-1.9,1.5-2.8c0.4-0.8-0.2-1.9-0.6-2.5
			c-0.9-1.4-2.2-2.3-3.6-3c-0.7-0.4-1.8-1-2.7-1.4c-0.8-0.4-1-0.5-1-0.5H275z"/>
	</g>
	<path class="st3" d="M173.8,36.5c0.8,0.2,1.9,0.2,1.9,0.6c-0.4,1.5-2.6,1.9-3.8,3.4h-0.6c-0.6,0.4-0.4,1.3-0.9,1.3
		c-0.6-0.2-1.1,0-1.7,0.2c0.8,0.8,1.7,1.3,2.8,1.1c0.2,0,0.6,0.4,0.6,0.8c0,0,0.2,0,0.4-0.2c0.2,0,0.4,0,0.4,0.2v0.8
		c-0.6,0.8-1.5,0.4-2.3,0.6c1.5,0.4,3,0.4,4.3,0c1.1-0.4,0-2.3,0.8-3.2c-0.4,0,0-0.6-0.4-0.6c0.4-0.4,0.8-0.9,1.1-1.1
		c0.4,0,0.9-0.2,1.1-0.6c0-0.4-0.8-0.6-0.6-0.9c1.1-0.8,2.1-1.9,1.7-3c-0.2-0.6-1.7-0.6-2.6-0.9c-0.9-0.4-2.1,0-3.2,0.2
		c-0.9,0-1.9,0.6-2.8,0.8c-1.3,0.4-2.5,1.1-3.6,1.9c1.3-0.6,2.6-0.8,4.2-1.1C171.7,36.5,172.7,36.2,173.8,36.5z"/>
</g>
</svg>
