<?xml version="1.0" encoding="utf-8"?>
<!-- Generator: Adobe Illustrator 26.3.1, SVG Export Plug-In . SVG Version: 6.00 Build 0)  -->
<svg version="1.1" id="Calque_1" xmlns="http://www.w3.org/2000/svg" xmlns:xlink="http://www.w3.org/1999/xlink" x="0px" y="0px"
	 viewBox="0 0 280 200" style="enable-background:new 0 0 280 200;" xml:space="preserve">
<style type="text/css">
	.st0{fill:#7a797a;}
</style>
<path class="st0" d="M126.44,130L126.44,130c-3.87,0-7-3.13-7-7V77c0-3.87,3.13-7,7-7h0c3.87,0,7,3.13,7,7v46
	C133.44,126.87,130.31,130,126.44,130z"/>
<path class="st0" d="M153.56,130L153.56,130c-3.87,0-7-3.13-7-7V77c0-3.87,3.13-7,7-7h0c3.87,0,7,3.13,7,7v46
	C160.56,126.87,157.42,130,153.56,130z"/>
<path class="st0" d="M140,164c-35.29,0-64-28.71-64-64c0-35.29,28.71-64,64-64c35.29,0,64,28.71,64,64
	C204,135.29,175.29,164,140,164z M140,50c-27.57,0-50,22.43-50,50s22.43,50,50,50s50-22.43,50-50S167.57,50,140,50z"/>
<path class="st0" d="M205.05,172.05c-1.79,0-3.58-0.68-4.95-2.05c-2.73-2.73-2.73-7.17,0-9.9c16.05-16.05,24.9-37.4,24.9-60.1
	s-8.84-44.05-24.9-60.1c-2.73-2.73-2.73-7.17,0-9.9c2.73-2.73,7.17-2.73,9.9,0c18.7,18.7,29,43.56,29,70c0,26.44-10.3,51.3-29,70
	C208.64,171.37,206.84,172.05,205.05,172.05z"/>
<path class="st0" d="M74.95,172.05c-1.79,0-3.58-0.68-4.95-2.05c-18.7-18.7-29-43.56-29-70s10.3-51.31,29-70
	c2.73-2.73,7.17-2.73,9.9,0c2.73,2.73,2.73,7.17,0,9.9C63.84,55.95,55,77.3,55,100c0,22.71,8.84,44.05,24.9,60.1
	c2.73,2.73,2.73,7.17,0,9.9C78.53,171.37,76.74,172.05,74.95,172.05z"/>
<path class="st0" d="M50.2,196.8c-1.79,0-3.58-0.68-4.95-2.05C19.94,169.44,6,135.79,6,100S19.94,30.56,45.25,5.25
	c2.73-2.73,7.17-2.73,9.9,0c2.73,2.73,2.73,7.17,0,9.9C32.48,37.81,20,67.95,20,100c0,32.05,12.48,62.19,35.15,84.85
	c2.73,2.73,2.73,7.17,0,9.9C53.78,196.12,51.99,196.8,50.2,196.8z"/>
<path class="st0" d="M229.8,196.8c-1.79,0-3.58-0.68-4.95-2.05c-2.73-2.73-2.73-7.17,0-9.9C247.52,162.19,260,132.05,260,100
	c0-32.05-12.48-62.19-35.15-84.85c-2.73-2.73-2.73-7.17,0-9.9c2.73-2.73,7.17-2.73,9.9,0C260.06,30.56,274,64.21,274,100
	s-13.94,69.44-39.25,94.75C233.39,196.12,231.59,196.8,229.8,196.8z"/>
</svg>
