<?xml version="1.0" encoding="utf-8"?>
<!-- Generator: Adobe Illustrator 28.2.0, SVG Export Plug-In . SVG Version: 6.00 Build 0)  -->
<svg version="1.1" id="Calque_1" xmlns="http://www.w3.org/2000/svg" xmlns:xlink="http://www.w3.org/1999/xlink" x="0px" y="0px"
	 viewBox="0 0 175 100" style="enable-background:new 0 0 175 100;" xml:space="preserve">
<style type="text/css">
	.st0{fill:#AA0011;}
	.st1{fill:#1560BD;}
	.st2{fill:#FFFFFF;}
</style>
<g id="Logo">
	<path id="enpjJ" class="st2" d="M145,40v45c0,2.8-2.2,5-5,5h-0.6c-1,3.9-3.2,7.4-6.2,10h6.8c8.3,0,15-6.7,15-15V40H145z"/>
	<path id="enpJj" class="st2" d="M125,40v45c0,2.8-2.2,5-5,5h-10l0,10h10c8.3,0,15-6.7,15-15V40H125z"/>
	<path id="enPjj" class="st2" d="M105,40c-8.3,0-15,6.7-15,15v10c0,0,0,0,0,0h0v35h10V79.1c1.6,0.6,3.2,0.9,5,0.9c8.3,0,15-6.7,15-15V55
		C120,46.7,113.3,40,105,40z M110,65c0,2.8-2.2,5-5,5c-2.8,0-5-2.2-5-5V55c0-2.8,2.2-5,5-5c2.8,0,5,2.2,5,5V65z"/>
	<path id="eNpjj" class="st2" d="M70,40c-8.3,0-15,6.7-15,15v45h10V55c0-2.8,2.2-5,5-5s5,2.2,5,5v45h10V55C85,46.7,78.3,40,70,40z"/>
	<path id="Enpjj" class="st2" d="M50,75V55c0-8.3-6.7-15-15-15s-15,6.7-15,15v30c0,8.3,6.7,15,15,15s15-6.7,15-15H40c0,2.8-2.2,5-5,5
		c-2.8,0-5-2.2-5-5V75H50z M30,55c0-2.8,2.2-5,5-5c2.8,0,5,2.2,5,5v10H30V55z"/>
	<path id="Mur" class="st0" d="M90,10v25h35l0-5c0-2.8,2.2-5,5-5c2.8,0,5,2.2,5,5l0,5h10l0-10c0-2.8,2.2-5,5-5c2.8,0,5,2.2,5,5l0,10
		h10V10H90z"/>
	<polygon id="Toit" class="st1" points="100,0 90,10 165,10 175,0"/>
</g>
</svg>
