<?xml version="1.0" encoding="utf-8"?>
<!-- Generator: Adobe Illustrator 28.2.0, SVG Export Plug-In . SVG Version: 6.00 Build 0)  -->
<svg version="1.1" id="Calque_1" xmlns="http://www.w3.org/2000/svg" xmlns:xlink="http://www.w3.org/1999/xlink" x="0px" y="0px"
	 viewBox="0 0 650 650" style="enable-background:new 0 0 650 650;" xml:space="preserve">
<style type="text/css">
	.st0{fill:#2B2523;}
	.st1{fill:#CC151A;}
</style>
<g>
	<path class="st0" d="M208.9,456.7l-14.5,37.5h-11.5l-14.5-37.5h14.2l5,17c0.5,1.8,0.9,3.7,0.9,5.6h0.3c0-1.9,0.4-3.7,0.9-5.6l5-17
		H208.9z"/>
	<rect x="211.8" y="456.7" class="st0" width="13.6" height="37.5"/>
	<path class="st0" d="M271,472.1c-0.1,6.1-0.1,11.2-4.5,16c-4,4.3-10.1,6.7-15.9,6.7c-11.4,0-20.7-7.1-20.7-19.1
		c0-12.2,9-19.6,20.8-19.6c6.5,0,15.5,3.2,18.4,9.6l-12.7,4.7c-1-1.9-3-2.9-5.2-2.9c-4.9,0-7.5,4.2-7.5,8.7c0,4.1,2.6,8,7,8
		c2.1,0,4.9-1,5.5-3.3H250v-8.8H271z"/>
	<rect x="275.6" y="456.7" class="st0" width="13.6" height="37.5"/>
	<path class="st0" d="M295.2,456.7h17.2c8.8,0,15.2,4.5,15.2,13.8c0,7.7-4.8,12.4-12.4,12.4h-7v11.3h-13.1V456.7z M308.3,473.4h1.3
		c2.4,0,5-0.4,5-3.4c0-2.9-2.8-3.1-5-3.1h-1.3V473.4z"/>
	<rect x="331.2" y="456.7" class="st0" width="13.6" height="37.5"/>
	<path class="st0" d="M350.9,456.7h16.4c8.5,0,15.6,3.6,15.6,13c0,5.7-2.2,8.1-7.2,9.7v0.3c0.7,0.6,1.5,1.1,2.3,2.2l8.1,12.2h-15.7
		l-6-12h-0.2v12h-13.3V456.7z M364.2,473.3h0.9c2.2,0,4.5-0.4,4.5-3.1c0-2.9-2-3.2-4.4-3.2h-1V473.3z"/>
	<path class="st0" d="M399.3,494.1h-14.4l13-37.5h15.1l13.4,37.5h-14.4l-1.2-4.7h-10.3L399.3,494.1z M408.3,480.6l-1.6-6.6
		c-0.4-1.6-0.6-3.2-0.9-4.8h-0.5l-2.5,11.4H408.3z"/>
	<polygon class="st0" points="422.3,456.7 450.9,456.7 450.9,468.8 443.4,468.5 443.4,494.1 429.8,494.1 429.8,468.5 422.3,468.8 	
		"/>
	<polygon class="st0" points="454,456.7 479.2,456.7 479.2,466.9 467.7,466.9 467.7,470.5 478.2,470.5 478.2,480.2 467.7,480.2 
		467.7,483.9 479.6,483.9 479.6,494.1 454,494.1 	"/>
	<polygon class="st1" points="326.4,161.6 482.3,427.7 170.5,427.7 	"/>
	<path class="st0" d="M598.1,554.7H51.9L325,95.3L598.1,554.7z M120.4,515.7h409.3L325,171.5L120.4,515.7z"/>
</g>
</svg>
