<?xml version="1.0" encoding="utf-8"?>
<!-- Generator: Adobe Illustrator 28.2.0, SVG Export Plug-In . SVG Version: 6.00 Build 0)  -->
<svg version="1.1" id="Calque_1" xmlns="http://www.w3.org/2000/svg" xmlns:xlink="http://www.w3.org/1999/xlink" x="0px" y="0px"
	 viewBox="0 0 650 650" style="enable-background:new 0 0 650 650;" xml:space="preserve">
<style type="text/css">
	.st0{fill:#2B2523;}
	.st1{fill:#CC1517;}
</style>
<g>
	<path class="st0" d="M212.8,395.4l-14.3,37h-11.4l-14.4-37h14.1l4.9,16.8c0.5,1.8,0.9,3.6,0.9,5.5h0.3c0-1.9,0.4-3.7,0.9-5.5
		l4.9-16.8"/>
	<rect x="215.7" y="395.4" class="st0" width="13.4" height="37"/>
	<path class="st0" d="M274.2,410.6c-0.1,6.1-0.1,11.1-4.5,15.8c-3.9,4.3-10,6.6-15.7,6.6c-11.3,0-20.4-7-20.4-18.8
		c0-12.1,8.9-19.4,20.5-19.4c6.4,0,15.3,3.2,18.2,9.5l-12.6,4.6c-1-1.9-2.9-2.9-5.1-2.9c-4.8,0-7.5,4.1-7.5,8.6
		c0,4.1,2.5,7.9,6.9,7.9c2.1,0,4.8-1,5.5-3.2h-6.1v-8.7"/>
	<rect x="278.7" y="395.4" class="st0" width="13.5" height="37"/>
	<path class="st0" d="M298.1,395.4h17c8.6,0,15,4.4,15,13.6c0,7.6-4.7,12.3-12.2,12.3h-6.9v11.1h-13 M311.1,411.9h1.3
		c2.4,0,4.9-0.4,4.9-3.4c0-2.9-2.8-3-5-3h-1.3V411.9z"/>
	<rect x="333.7" y="395.4" class="st0" width="13.4" height="37"/>
	<path class="st0" d="M353.2,395.4h16.2c8.4,0,15.4,3.6,15.4,12.9c0,5.6-2.2,8-7.2,9.6v0.3c0.7,0.5,1.5,1.1,2.3,2.2l8,12h-15.5
		l-5.9-11.9h-0.2v11.9h-13.2 M366.3,411.8h0.9c2.2,0,4.4-0.4,4.4-3.1c0-2.8-2-3.2-4.3-3.2h-1V411.8z"/>
	<path class="st0" d="M401,432.4h-14.2l12.9-37h14.9l13.2,37h-14.2l-1.2-4.6H402 M409.9,419l-1.6-6.5c-0.4-1.6-0.6-3.2-0.9-4.8h-0.5
		l-2.5,11.3H409.9z"/>
	<polyline class="st0" points="423.7,395.4 452,395.4 452,407.4 444.6,407.1 444.6,432.4 431.2,432.4 431.2,407.1 423.7,407.4 	"/>
	<polyline class="st0" points="455.1,395.4 480,395.4 480,405.5 468.7,405.5 468.7,409 479,409 479,418.7 468.7,418.7 468.7,422.3 
		480.4,422.3 480.4,432.4 455.1,432.4 	"/>
	<polyline class="st1" points="328.9,103.8 483,366.7 174.8,366.7 	"/>
	<path class="st0" d="M597.5,492.2H57.6l269.9-454 M125.3,453.8h404.5L327.6,113.6L125.3,453.8z"/>
	<rect x="54.2" y="584.3" class="st1" width="543.9" height="27.4"/>
	<path class="st1" d="M57.4,518.9V544c0,9.5,4.2,13.5,9.9,13.5c6.3,0,10.3-4.2,10.3-13.5v-25.1h5.5v24.7c0,13-6.9,18.4-16,18.4
		c-8.7,0-15.2-5-15.2-18.1v-25H57.4z"/>
	<path class="st1" d="M93,519.5c2.8-0.6,6.7-0.9,10.5-0.9c5.8,0,9.6,1.1,12.3,3.5c2.1,1.9,3.3,4.8,3.3,8.1c0,5.6-3.5,9.3-8,10.8v0.2
		c3.3,1.1,5.2,4.2,6.2,8.6c1.4,5.9,2.4,10,3.3,11.6H115c-0.7-1.2-1.6-4.8-2.8-10.1c-1.3-5.8-3.5-8.1-8.5-8.2h-5.2v18.4H93V519.5z
		 M98.5,538.8h5.6c5.8,0,9.6-3.2,9.6-8.1c0-5.5-4-7.9-9.7-7.9c-2.6,0-4.5,0.3-5.4,0.5V538.8z"/>
	<path class="st1" d="M156.2,559.4c-2.5,0.9-7.3,2.3-13,2.3c-6.4,0-11.7-1.6-15.8-5.6c-3.6-3.5-5.9-9.2-5.9-15.8
		c0.1-12.6,8.7-21.9,23-21.9c4.9,0,8.7,1.1,10.6,2l-1.3,4.5c-2.3-1-5.1-1.8-9.4-1.8c-10.3,0-17,6.4-17,17c0,10.8,6.5,17.1,16.4,17.1
		c3.6,0,6-0.5,7.3-1.1v-12.6h-8.6v-4.4h14V559.4z"/>
	<path class="st1" d="M193.1,541.5h-16.5v15.3h18.4v4.6h-23.8v-42.4H194v4.6h-17.4v13.4h16.5V541.5z"/>
	<path class="st1" d="M201.2,561.3v-42.4h6l13.6,21.4c3.1,5,5.6,9.4,7.6,13.8l0.1-0.1c-0.5-5.7-0.6-10.8-0.6-17.4v-17.7h5.2v42.4
		h-5.5l-13.5-21.5c-3-4.7-5.8-9.6-7.9-14.2l-0.2,0.1c0.3,5.3,0.4,10.4,0.4,17.5v18.1H201.2z"/>
	<path class="st1" d="M278,559.9c-2,1-6,2-11.2,2c-12,0-20.9-7.5-20.9-21.4c0-13.3,9-22.3,22.1-22.3c5.3,0,8.6,1.1,10.1,1.9
		l-1.3,4.5c-2.1-1-5-1.8-8.6-1.8c-9.9,0-16.5,6.4-16.5,17.5c0,10.4,6,17,16.3,17c3.3,0,6.7-0.7,8.9-1.8L278,559.9z"/>
	<path class="st1" d="M312.2,541.5h-16.5v15.3h18.4v4.6h-23.8v-42.4h22.9v4.6h-17.4v13.4h16.5V541.5z"/>
	<path class="st1" d="M344.9,548l-4.4,13.3h-5.7l14.4-42.4h6.6l14.5,42.4h-5.8l-4.5-13.3H344.9z M358.8,543.7l-4.2-12.2
		c-0.9-2.8-1.6-5.3-2.2-7.7h-0.1c-0.6,2.5-1.3,5.1-2.1,7.7l-4.2,12.3H358.8z"/>
	<path class="st1" d="M380.9,523.6H368v-4.7h31.4v4.7h-13v37.7h-5.5V523.6z"/>
	<path class="st1" d="M411.5,523.6h-12.9v-4.7H430v4.7h-13v37.7h-5.5V523.6z"/>
	<path class="st1" d="M454.2,541.5h-16.5v15.3h18.4v4.6h-23.8v-42.4h22.9v4.6h-17.4v13.4h16.5V541.5z"/>
	<path class="st1" d="M461.7,561.3v-42.4h6l13.6,21.4c3.1,5,5.6,9.4,7.6,13.8l0.1-0.1c-0.5-5.7-0.6-10.8-0.6-17.4v-17.7h5.2v42.4
		H488l-13.5-21.5c-3-4.7-5.8-9.6-7.9-14.2l-0.2,0.1c0.3,5.3,0.4,10.4,0.4,17.5v18.1H461.7z"/>
	<path class="st1" d="M517,523.6h-12.9v-4.7h31.4v4.7h-13v37.7H517V523.6z"/>
	<path class="st1" d="M542.4,548l-4.4,13.3h-5.7l14.4-42.4h6.6l14.5,42.4h-5.8l-4.5-13.3H542.4z M556.3,543.7l-4.2-12.2
		c-0.9-2.8-1.6-5.3-2.2-7.7h-0.1c-0.6,2.5-1.3,5.1-2.1,7.7l-4.2,12.3H556.3z"/>
	<path class="st1" d="M579,523.6h-12.9v-4.7h31.4v4.7h-13v37.7H579V523.6z"/>
</g>
</svg>
