<?xml version="1.0" encoding="utf-8"?>
<!-- Generator: Adobe Illustrator 28.2.0, SVG Export Plug-In . SVG Version: 6.00 Build 0)  -->
<svg version="1.1" id="Calque_1" xmlns="http://www.w3.org/2000/svg" xmlns:xlink="http://www.w3.org/1999/xlink" x="0px" y="0px"
	 viewBox="0 0 650 650" style="enable-background:new 0 0 650 650;" xml:space="preserve">
<style type="text/css">
	.st0{fill:#2B2523;}
	.st1{fill:#CC151A;}
</style>
<g>
	<path class="st0" d="M208.9,386.5l-14.6,37.8h-11.6L168,386.5h14.3l5,17.2c0.6,1.9,0.9,3.7,0.9,5.6h0.3c0-1.9,0.4-3.8,1-5.6l5-17.2
		"/>
	<rect x="211.8" y="386.5" class="st0" width="13.7" height="37.8"/>
	<path class="st0" d="M271.6,402c-0.1,6.2-0.1,11.3-4.6,16.1c-4,4.4-10.2,6.7-16,6.7c-11.5,0-20.9-7.1-20.9-19.2
		c0-12.3,9.1-19.8,21-19.8c6.6,0,15.6,3.3,18.6,9.7l-12.8,4.7c-1-1.9-3-2.9-5.2-2.9c-4.9,0-7.6,4.2-7.6,8.8c0,4.2,2.6,8.1,7.1,8.1
		c2.2,0,4.9-1,5.6-3.3h-6.2V402"/>
	<rect x="276.1" y="386.5" class="st0" width="13.7" height="37.8"/>
	<path class="st0" d="M296,386.5h17.4c8.8,0,15.4,4.5,15.4,13.9c0,7.7-4.8,12.6-12.5,12.6h-7v11.4H296 M309.2,403.3h1.3
		c2.4,0,5-0.4,5-3.5c0-3-2.8-3.1-5.1-3.1h-1.3V403.3z"/>
	<rect x="332.3" y="386.5" class="st0" width="13.7" height="37.8"/>
	<path class="st0" d="M352.2,386.5h16.6c8.5,0,15.8,3.6,15.8,13.1c0,5.7-2.2,8.1-7.3,9.8v0.3c0.7,0.5,1.6,1.1,2.3,2.2l8.2,12.3
		h-15.8l-6-12.1h-0.2v12.1h-13.4 M365.6,403.2h1c2.2,0,4.5-0.4,4.5-3.2c0-2.9-2.1-3.3-4.4-3.3h-1V403.2z"/>
	<path class="st0" d="M401,424.3h-14.5l13.1-37.8h15.2l13.5,37.8h-14.5l-1.3-4.7h-10.4 M410.1,410.6l-1.6-6.7
		c-0.4-1.6-0.6-3.3-0.9-4.9h-0.5l-2.5,11.5H410.1z"/>
	<polyline class="st0" points="424.2,386.5 453.1,386.5 453.1,398.7 445.6,398.4 445.6,424.3 431.8,424.3 431.8,398.4 424.2,398.7 	
		"/>
	<polyline class="st0" points="456.3,386.5 481.7,386.5 481.7,396.8 470.1,396.8 470.1,400.4 480.7,400.4 480.7,410.2 470.1,410.2 
		470.1,413.9 482.1,413.9 482.1,424.3 456.3,424.3 	"/>
	<polyline class="st1" points="327.4,88.7 484.8,357.2 170.1,357.2 	"/>
	<path class="st0" d="M601.7,485.4H50.4L326,21.8 M119.5,446.1h413.1L326,98.7L119.5,446.1z"/>
	<rect x="48.2" y="607.1" class="st0" width="553.7" height="21.1"/>
	<path class="st0" d="M49.9,532.2c2.2,1.3,5.4,2.5,8.7,2.5c5,0,7.9-2.6,7.9-6.4c0-3.5-2-5.5-7.1-7.5c-6.1-2.2-9.9-5.4-9.9-10.7
		c0-5.9,4.9-10.2,12.2-10.2c3.8,0,6.6,0.9,8.3,1.8l-1.3,4c-1.2-0.7-3.7-1.8-7.1-1.8c-5.1,0-7.1,3.1-7.1,5.6c0,3.5,2.3,5.2,7.5,7.2
		c6.4,2.5,9.6,5.5,9.6,11c0,5.8-4.3,10.8-13.2,10.8c-3.6,0-7.6-1.1-9.6-2.4L49.9,532.2z"/>
	<path class="st0" d="M99.5,520.5H84.9V534h16.3v4.1H80v-37.6h20.3v4.1H84.9v11.9h14.6V520.5z"/>
	<path class="st0" d="M134.9,536.9c-1.8,0.9-5.4,1.8-9.9,1.8c-10.6,0-18.6-6.7-18.6-19c0-11.8,8-19.7,19.6-19.7c4.7,0,7.6,1,8.9,1.7
		l-1.2,4c-1.8-0.9-4.5-1.6-7.6-1.6c-8.8,0-14.7,5.6-14.7,15.5c0,9.2,5.3,15.1,14.4,15.1c3,0,6-0.6,7.9-1.6L134.9,536.9z"/>
	<path class="st0" d="M152.4,500.5v22.3c0,8.4,3.7,12,8.8,12c5.6,0,9.1-3.7,9.1-12v-22.3h4.9v21.9c0,11.5-6.1,16.3-14.2,16.3
		c-7.7,0-13.5-4.4-13.5-16.1v-22.1H152.4z"/>
	<path class="st0" d="M187.9,501c2.5-0.5,6-0.8,9.3-0.8c5.2,0,8.5,0.9,10.9,3.1c1.9,1.7,3,4.2,3,7.1c0,5-3.1,8.3-7.1,9.6v0.2
		c2.9,1,4.6,3.7,5.5,7.6c1.2,5.2,2.1,8.9,2.9,10.3h-5c-0.6-1.1-1.5-4.3-2.5-9c-1.1-5.2-3.1-7.1-7.5-7.3h-4.6v16.3h-4.9V501z
		 M192.7,518.1h5c5.2,0,8.5-2.8,8.5-7.1c0-4.9-3.5-7-8.6-7c-2.3,0-4,0.2-4.8,0.4V518.1z"/>
	<path class="st0" d="M222.9,500.5v37.6H218v-37.6H222.9z"/>
	<path class="st0" d="M239.9,504.6h-11.4v-4.1h27.8v4.1h-11.5v33.5h-4.9V504.6z"/>
	<path class="st0" d="M279.5,520.5h-14.6V534h16.3v4.1h-21.1v-37.6h20.3v4.1h-15.4v11.9h14.6V520.5z"/>
	<path class="st0" d="M304.3,501c2.5-0.5,6-0.8,9.3-0.8c5.2,0,8.5,0.9,10.9,3.1c1.9,1.7,3,4.2,3,7.1c0,5-3.1,8.3-7.1,9.6v0.2
		c2.9,1,4.6,3.7,5.5,7.6c1.2,5.2,2.1,8.9,2.9,10.3h-5c-0.6-1.1-1.5-4.3-2.5-9c-1.1-5.2-3.1-7.1-7.5-7.3h-4.6v16.3h-4.9V501z
		 M309.2,518.1h5c5.2,0,8.5-2.8,8.5-7.1c0-4.9-3.5-7-8.6-7c-2.3,0-4,0.2-4.8,0.4V518.1z"/>
	<path class="st0" d="M353.9,520.5h-14.6V534h16.3v4.1h-21.1v-37.6h20.3v4.1h-15.4v11.9h14.6V520.5z"/>
	<path class="st0" d="M363,538.1v-37.6h5.3l12,19c2.8,4.4,5,8.4,6.7,12.2l0.1-0.1c-0.4-5-0.6-9.6-0.6-15.4v-15.7h4.6v37.6h-4.9
		L374.4,519c-2.6-4.2-5.1-8.5-7-12.5l-0.2,0.1c0.3,4.7,0.4,9.3,0.4,15.5v16.1H363z"/>
	<path class="st0" d="M406.7,500.5h20.2v4.1h-15.4v12.5h14.2v4h-14.2v17h-4.9V500.5z"/>
	<path class="st0" d="M467,518.9c0,12.9-7.9,19.8-17.5,19.8c-9.9,0-16.9-7.7-16.9-19.1c0-11.9,7.4-19.7,17.5-19.7
		C460.3,499.9,467,507.7,467,518.9z M437.8,519.5c0,8,4.4,15.2,12,15.2c7.7,0,12-7.1,12-15.6c0-7.5-3.9-15.3-12-15.3
		C441.8,503.8,437.8,511.3,437.8,519.5z"/>
	<path class="st0" d="M482,501c2.5-0.5,6-0.8,9.3-0.8c5.2,0,8.5,0.9,10.9,3.1c1.9,1.7,3,4.2,3,7.1c0,5-3.1,8.3-7.1,9.6v0.2
		c2.9,1,4.6,3.7,5.5,7.6c1.2,5.2,2.1,8.9,2.9,10.3h-5c-0.6-1.1-1.4-4.3-2.5-9c-1.1-5.2-3.1-7.1-7.5-7.3h-4.6v16.3H482V501z
		 M486.9,518.1h5c5.2,0,8.5-2.8,8.5-7.1c0-4.9-3.5-7-8.6-7c-2.3,0-4,0.2-4.8,0.4V518.1z"/>
	<path class="st0" d="M538.4,536.9c-1.8,0.9-5.4,1.8-9.9,1.8c-10.6,0-18.6-6.7-18.6-19c0-11.8,8-19.7,19.6-19.7c4.7,0,7.6,1,8.9,1.7
		l-1.2,4c-1.8-0.9-4.5-1.6-7.6-1.6c-8.8,0-14.7,5.6-14.7,15.5c0,9.2,5.3,15.1,14.4,15.1c3,0,6-0.6,7.9-1.6L538.4,536.9z"/>
	<path class="st0" d="M570.5,520.5h-14.6V534h16.3v4.1h-21.1v-37.6h20.3v4.1h-15.4v11.9h14.6V520.5z"/>
	<path class="st0" d="M599.1,520.5h-14.6V534h16.3v4.1h-21.1v-37.6h20.3v4.1h-15.4v11.9h14.6V520.5z"/>
	<path class="st0" d="M104.9,557c2.5-0.5,6-0.8,9.3-0.8c5.2,0,8.5,0.9,10.9,3.1c1.9,1.7,3,4.2,3,7.1c0,5-3.1,8.3-7.1,9.6v0.2
		c2.9,1,4.6,3.7,5.5,7.6c1.2,5.2,2.1,8.9,2.9,10.3h-5c-0.6-1.1-1.5-4.3-2.5-9c-1.1-5.2-3.1-7.1-7.5-7.3h-4.6V594h-4.9V557z
		 M109.8,574.1h5c5.2,0,8.5-2.8,8.5-7.1c0-4.9-3.5-7-8.6-7c-2.3,0-4,0.2-4.8,0.4V574.1z"/>
	<path class="st0" d="M139.9,556.5V594h-4.9v-37.6H139.9z"/>
	<path class="st0" d="M149.2,588.1c2.2,1.3,5.4,2.5,8.7,2.5c5,0,7.9-2.6,7.9-6.4c0-3.5-2-5.5-7.1-7.5c-6.1-2.2-9.9-5.4-9.9-10.7
		c0-5.9,4.9-10.2,12.2-10.2c3.8,0,6.6,0.9,8.3,1.8l-1.3,4c-1.2-0.7-3.7-1.8-7.1-1.8c-5.1,0-7.1,3.1-7.1,5.6c0,3.5,2.3,5.2,7.5,7.2
		c6.4,2.5,9.6,5.5,9.6,11c0,5.8-4.3,10.8-13.2,10.8c-3.6,0-7.6-1.1-9.6-2.4L149.2,588.1z"/>
	<path class="st0" d="M210.4,599.6c-5.1-1.3-10-2.8-14.4-4.4c-0.8-0.3-1.6-0.6-2.3-0.6c-8.9-0.3-16.6-6.9-16.6-19
		c0-12,7.4-19.8,17.5-19.8c10.2,0,16.8,7.9,16.8,19c0,9.6-4.5,15.8-10.7,18v0.2c3.7,0.9,7.8,1.8,11,2.4L210.4,599.6z M206.3,575.1
		c0-7.5-3.9-15.3-11.9-15.3c-8.2,0-12.2,7.6-12.2,15.7c-0.1,8,4.4,15.2,11.9,15.2C202,590.7,206.3,583.7,206.3,575.1z"/>
	<path class="st0" d="M231.4,556.5v22.3c0,8.4,3.7,12,8.8,12c5.6,0,9.1-3.7,9.1-12v-22.3h4.9v21.9c0,11.5-6.1,16.3-14.2,16.3
		c-7.7,0-13.5-4.4-13.5-16.1v-22.1H231.4z"/>
	<path class="st0" d="M286.4,576.4h-14.6V590H288v4.1h-21.1v-37.6h20.3v4.1h-15.4v11.9h14.6V576.4z"/>
	<path class="st0" d="M317.3,582.2l-3.9,11.8h-5l12.8-37.6h5.9l12.8,37.6h-5.2l-4-11.8H317.3z M329.6,578.4l-3.7-10.8
		c-0.8-2.5-1.4-4.7-2-6.9h-0.1c-0.6,2.2-1.2,4.5-1.9,6.8l-3.7,10.9H329.6z"/>
	<path class="st0" d="M351,560.6h-11.4v-4.1h27.8v4.1h-11.5V594H351V560.6z"/>
	<path class="st0" d="M378.3,560.6h-11.4v-4.1h27.8v4.1h-11.5V594h-4.9V560.6z"/>
	<path class="st0" d="M417.9,576.4h-14.6V590h16.3v4.1h-21.1v-37.6h20.3v4.1h-15.4v11.9h14.6V576.4z"/>
	<path class="st0" d="M427,594v-37.6h5.3l12,19c2.8,4.4,5,8.4,6.7,12.2l0.1-0.1c-0.4-5-0.6-9.6-0.6-15.4v-15.7h4.6V594h-4.9
		L438.3,575c-2.6-4.2-5.1-8.5-7-12.5l-0.2,0.1c0.3,4.7,0.4,9.3,0.4,15.5V594H427z"/>
	<path class="st0" d="M477.8,560.6h-11.4v-4.1h27.8v4.1h-11.5V594h-4.9V560.6z"/>
	<path class="st0" d="M499.9,582.2l-3.9,11.8h-5l12.8-37.6h5.9l12.8,37.6h-5.2l-4-11.8H499.9z M512.2,578.4l-3.7-10.8
		c-0.8-2.5-1.4-4.7-2-6.9h-0.1c-0.6,2.2-1.2,4.5-1.9,6.8l-3.7,10.9H512.2z"/>
	<path class="st0" d="M533.6,560.6h-11.4v-4.1H550v4.1h-11.5V594h-4.9V560.6z"/>
</g>
</svg>
