<?xml version="1.0" encoding="utf-8"?>
<!-- Generator: Adobe Illustrator 28.2.0, SVG Export Plug-In . SVG Version: 6.00 Build 0)  -->
<svg version="1.1" id="Calque_1" xmlns="http://www.w3.org/2000/svg" xmlns:xlink="http://www.w3.org/1999/xlink" x="0px" y="0px"
	 viewBox="0 0 745.2 567.8" style="enable-background:new 0 0 745.2 567.8;" xml:space="preserve">
<style type="text/css">
	.st0{fill:#FFFFFF;}
	.st1{fill:#000091;}
	.st2{fill:#E1000F;}
	.st3{fill:#7F7F7F;}
</style>
<g>
	<g>
		<g>
			<path d="M0.3,150h19.3l18.2,31l18.2-31h19.3v75.3H59.9v-53.6l-16.8,27.8H32.3l-16.8-27.8v53.6H0.3V150z"/>
			<path d="M96.1,150h15.3v75.3H96.1V150z"/>
			<path d="M132.5,150h19.6l33.7,53.9V150H201v75.3h-19.6l-33.7-54.1v54.1h-15.3V150z"/>
			<path d="M222.1,150h15.3v75.3h-15.3V150z"/>
			<path d="M262.8,204.6c4.5,5.8,10.5,9.3,16.7,9.3c6,0,9.7-3.2,9.7-8.7c0-13.4-34.4-10.4-34.4-35.5c0-11.9,9.8-21.8,24.1-21.8
				c11.3,0,20,5.1,26.4,12.7l-11.2,10c-4.4-5.7-9.4-9.4-15.1-9.4c-5.3,0-8.7,3.4-8.7,7.9c0,13.4,34.4,10.3,34.4,35.8
				c-0.2,14-11.2,22.6-25,22.6c-12.7,0-21.3-4.6-28-12.6L262.8,204.6z"/>
			<path d="M312.4,150h61.8v13.9h-23.2v61.4h-15.3v-61.4h-23.2V150z"/>
			<path d="M387.6,150h43.9v13h-28.6v17.4h24.3v13h-24.3v18.8h28.6v13h-43.9V150z M388.9,129h15.7l12.2,14.5h-14L388.9,129z"/>
			<path d="M449.2,150h23c16.6,0,26.8,8.5,26.8,22.5c0,9-4.4,15.8-12,19.5l23.7,33.4h-18.3l-20-30.4h-7.9v30.4h-15.3V150z
				 M464.5,163v18.8h8.6c6.5,0,10.2-3.4,10.2-9.6c0-5.7-3.8-9.3-10.2-9.3H464.5z"/>
			<path d="M520.1,150H564v13h-28.6v17.4h24.3v13h-24.3v18.8H564v13h-43.9V150z"/>
			<path d="M0.3,258.6h29.6c23.9,0,40,17.3,40,37.7c0,20.3-16.1,37.7-40,37.7H0.3V258.6z M15.5,272.5V320h14.5
				c14,0,24.1-10.4,24.1-23.8c0-13.4-10.1-23.8-24.1-23.8H15.5z"/>
			<path d="M84.6,258.6h43.9v13H99.9V289h24.3v13H99.9v18.8h28.6v13H84.6V258.6z"/>
			<path d="M174.2,258.6h15.3V320h28.6v13.9h-43.9V258.6z"/>
			<path d="M253.8,258.6h20l28.5,75.3h-16.2l-7.2-19.6h-30.1l-7.2,19.6h-16.2L253.8,258.6z M274.2,301.3L263.9,273l-10.3,28.3H274.2
				z"/>
			<path d="M335,352.6c-2.5,0-4.5,0-6-0.4v-13.4c1.1,0.2,2.4,0.3,3.9,0.3c6.8,0,10.3-2.9,10.3-10.7v-69.8h15.3v69.1
				C358.4,344.3,350.7,352.6,335,352.6z"/>
			<path d="M423.1,258.6h15.3v45.8c0,19.8-11.6,31.6-30.6,31.6c-18.8,0-30.4-11.8-30.4-31.6v-45.8h15.3v47.1c0,10.1,5.7,16,15.3,16
				c9.4,0,15.2-5.9,15.2-16V258.6z"/>
			<path d="M461.6,313.2c4.5,5.8,10.5,9.3,16.7,9.3c6,0,9.7-3.2,9.7-8.7c0-13.4-34.4-10.4-34.4-35.5c0-11.9,9.8-21.8,24.1-21.8
				c11.3,0,20,5.1,26.4,12.7l-11.2,10c-4.4-5.7-9.4-9.4-15.1-9.4c-5.3,0-8.7,3.4-8.7,7.9c0,13.4,34.4,10.3,34.4,35.8
				c-0.2,14-11.2,22.6-25,22.6c-12.7,0-21.3-4.6-28-12.6L461.6,313.2z"/>
			<path d="M511.2,258.6H573v13.9h-23.2v61.4h-15.3v-61.4h-23.2V258.6z"/>
			<path d="M586.4,258.6h15.3v75.3h-15.3V258.6z"/>
			<path d="M676,311.4l12,9.3C681.2,330,670,336,656.3,336c-23.8,0-40-18.3-40-39.8s16.2-39.8,40-39.8c13.7,0,24.9,6.1,31.7,15.3
				l-12,9.4c-4.3-6.1-11.1-10.3-19.7-10.3c-14.2,0-24.3,11.1-24.3,25.5s10.1,25.5,24.3,25.5C664.9,321.7,671.7,317.5,676,311.4z"/>
			<path d="M701.3,258.6h43.9v13h-28.6V289h24.3v13h-24.3v18.8h28.6v13h-43.9V258.6z"/>
		</g>
	</g>
	<g>
		<path d="M245.3,541.8c2,0,3.8,1.5,2.9,5.5l-9.5,2.2C240.3,545.1,243.1,541.8,245.3,541.8 M250.6,557.1h-1.9c-2.4,2.8-4.9,5-7.5,5
			c-2.6,0-3.9-1.5-3.9-5c0-1.4,0.2-2.9,0.4-4.2l15.3-5c3-7.1-0.6-10.2-4.8-10.2c-7.2,0-15.5,12.1-15.5,22.7c0,4.7,2.3,7.3,5.8,7.3
			C242.7,567.8,247,563.8,250.6,557.1 M247.5,534.9l10.8-10v-1.2h-5.8l-6.6,11.2H247.5z M214.5,542h5.1l-8.1,22
			c-0.7,1.9,0.3,3.8,2.2,3.8c4.6,0,12-4.5,14.6-10.7h-1.4c-2,2.2-6,5-9.3,5.6l7.4-20.7h7.6l0.9-3.1h-7.3l2.8-8H226l-5.2,8l-6.2,0.9
			V542z M207.7,541c0.6-2-0.8-3.2-1.8-3.2c-4.4,0-9.7,4-11.8,9.6h1.4c1.4-2,3.9-4.3,6.1-4.7l-8.4,22c-0.8,2,0.8,3.2,1.8,3.2
			c4.2,0,9.1-4,11.2-9.6h-1.4c-1.4,2-3.9,4.3-6.1,4.7L207.7,541z M209.2,529.9c2,0,3.6-1.6,3.6-3.6c0-2-1.7-3.6-3.6-3.6
			c-2,0-3.6,1.7-3.6,3.6C205.6,528.3,207.2,529.9,209.2,529.9 M160.6,563.7c-1.1,2.5,0.1,4.1,2.5,4.1c1.5,0,2.2-0.4,2.8-2l5.9-15.5
			c2.7-3.3,8.3-6.8,10.5-6.8c1.6,0,1.4,1.3,0.3,3.3l-9,17.3c-0.9,1.7,0.3,3.8,2.2,3.8c4.4,0,9.7-4,11.8-9.6H186
			c-1.4,2-3.9,4.3-6.1,4.7l7.7-15.6c1-2,1.5-3.9,1.5-5.4c0-2.5-1.4-4.2-4.1-4.2c-3.8,0-7.7,4.3-12.3,9.6v-4.1c0-2.9-0.9-5.5-3.6-5.5
			c-1.7,0-3.3,1.4-4.7,3.5v0.6c2.9-0.2,4.1,4.1,2.1,8.7L160.6,563.7z M160.5,544.5c1-3.6,0.5-6.7-2.3-6.7c-3.3,0-4.1,2.5-7.4,9.6
			v-4.1c0-2.9-0.9-5.5-3.6-5.5c-3.1,0-5.9,4.8-8.1,9.6h1.4c1.5-2.2,2.9-3.4,4-3.4c1.3,0,2,2,0,6.6l-6,13.3c-1.1,2.5,0.1,4.1,2.5,4.1
			c1.5,0,2.2-0.4,2.8-2l5.9-15.5c1.7-2,3.1-3.8,5-5.8H160.5z M126.6,541.8c2,0,3.8,1.5,2.9,5.5l-9.5,2.2
			C121.6,545.1,124.3,541.8,126.6,541.8 M131.8,557.1h-1.9c-2.4,2.8-4.9,5-7.5,5c-2.6,0-3.9-1.5-3.9-5c0-1.4,0.2-2.9,0.4-4.2l15.3-5
			c3-7.1-0.6-10.2-4.8-10.2c-7.2,0-15.5,12.1-15.5,22.7c0,4.7,2.3,7.3,5.8,7.3C124,567.8,128.3,563.8,131.8,557.1 M95.7,542h5.1
			l-8.1,22c-0.7,1.9,0.3,3.8,2.2,3.8c4.6,0,12-4.5,14.6-10.7h-1.4c-2,2.2-6,5-9.3,5.6l7.4-20.7h7.6l0.9-3.1h-7.3l2.8-8h-2.9l-5.2,8
			l-6.2,0.9V542z M67.9,559.2c0-6.8,7.6-16,11.8-16c0.9,0,1.8,0.1,2.6,0.3l-4.4,11.8c-2.5,3.1-6.5,6.8-8.3,6.8
			C68.5,562.1,67.9,561.2,67.9,559.2 M91.1,536.5l-2.3-0.2l-2.6,2.5h-0.6c-12.6,0-23.5,14.1-23.5,24.4c0,2.9,1.8,4.5,4.5,4.5
			c3.3,0,6.5-4.6,10-9.6l-0.2,1.8c-0.4,5.1,1.1,7.8,3.8,7.8c3.1,0,5.9-4.8,8.1-9.6H87c-1.5,2.2-2.9,3.4-4,3.4c-1.2,0-2-2.1,0-6.6
			L91.1,536.5z M64.3,544.5c1-3.6,0.5-6.7-2.3-6.7c-3.3,0-4.1,2.5-7.4,9.6v-4.1c0-2.9-0.9-5.5-3.6-5.5c-3.1,0-5.9,4.8-8.1,9.6h1.4
			c1.5-2.2,2.9-3.4,4-3.4c1.3,0,2,2,0,6.6l-6,13.3c-1.1,2.5,0.1,4.1,2.5,4.1c1.5,0,2.2-0.4,2.8-2l5.9-15.5c1.7-2,3.1-3.8,5-5.8H64.3
			z M22,566.7l0.6-1.7c-7.3-1.4-8.3-1.4-5.4-9.4l3-8.2h8.1c3.6,0,3.7,1.5,3.1,5.5h2.1l4.9-13.3h-2.1c-1.8,3.1-3.3,5.5-7.2,5.5h-8
			l4.3-11.7c1.3-3.7,2.1-4.5,7.1-4.5h3.5c5.1,0,5.7,1.4,5.7,6.6h2l1.7-9.1H14.9l-0.6,1.7c5.9,1.2,6.5,1.8,3.7,9.4l-6.6,18.1
			c-2.8,7.6-3.9,8.2-10.7,9.4l-0.5,1.7H22z"/>
		<path d="M171.4,472.8c2,0,3.8,1.5,2.9,5.5l-9.5,2.2C166.4,476.1,169.2,472.8,171.4,472.8 M176.6,488.1h-1.9c-2.4,2.8-4.9,5-7.5,5
			c-2.6,0-3.9-1.5-3.9-5c0-1.4,0.2-2.9,0.4-4.2l15.3-5c3-7.1-0.6-10.2-4.8-10.2c-7.2,0-15.5,12.1-15.5,22.7c0,4.7,2.3,7.3,5.8,7.3
			C168.8,498.8,173.1,494.7,176.6,488.1 M173.6,465.9l10.8-10v-1.2h-5.8l-6.6,11.2H173.6z M140.6,473h5.1l-8.1,22
			c-0.7,1.9,0.3,3.8,2.2,3.8c4.6,0,12-4.5,14.6-10.7h-1.4c-2,2.2-6,5-9.3,5.6L151,473h7.6l0.9-3.1h-7.3l2.8-8h-2.9l-5.2,8l-6.2,0.9
			V473z M133.7,471.9c0.6-2-0.8-3.2-1.8-3.2c-4.4,0-9.7,4-11.8,9.6h1.4c1.4-2,3.9-4.3,6.1-4.7l-8.4,22c-0.8,2,0.8,3.2,1.8,3.2
			c4.2,0,9.1-4,11.2-9.6h-1.4c-1.4,2-3.9,4.3-6.1,4.7L133.7,471.9z M135.3,460.9c2,0,3.6-1.6,3.6-3.6c0-2-1.7-3.6-3.6-3.6
			c-2,0-3.6,1.7-3.6,3.6C131.6,459.3,133.2,460.9,135.3,460.9 M105.9,493.9l15.4-40.4l-0.5-0.6l-9.7,1.1v1.2l1.9,1.4
			c1.7,1.3,1.2,2.6-0.4,6.7l-12,31.7c-0.9,1.7,0.3,3.8,2.2,3.8c4.4,0,9.1-4,11.2-9.6h-1.4C111.1,491.3,108.2,493.5,105.9,493.9
			 M76.6,490.2c0-6.8,7.6-16,11.8-16c0.9,0,1.8,0.1,2.6,0.3l-4.4,11.8c-2.5,3.1-6.5,6.8-8.3,6.8C77.3,493.1,76.6,492.2,76.6,490.2
			 M99.9,467.5l-2.3-0.2l-2.6,2.5h-0.6c-12.6,0-23.5,14.1-23.5,24.4c0,2.9,1.8,4.5,4.5,4.5c3.3,0,6.5-4.6,10-9.6l-0.2,1.8
			c-0.4,5.1,1.1,7.8,3.8,7.8c3.1,0,5.9-4.8,8.1-9.6h-1.4c-1.5,2.2-2.9,3.4-4,3.4c-1.2,0-2-2.1,0-6.6L99.9,467.5z M43.7,504.1
			c0-2.9,2.8-4.7,6.8-6.3c1.3,0.7,3.3,1.4,6,2.3c4.2,1.4,5.8,1.9,5.8,3.2c0,2.7-4.6,4.7-10.8,4.7C46.2,508,43.7,506.9,43.7,504.1
			 M55.1,486.3c-1.8,0-2.5-1.5-2.5-3.3c0-4.9,2.7-12.1,6.8-12.1c1.8,0,2.5,1.5,2.5,3.3C61.9,479.1,59.2,486.3,55.1,486.3
			 M67.1,501.4c0-3.5-3.1-4.8-8.3-6.3c-4.4-1.3-6.4-1.7-6.4-3.1c0-1.2,0.9-2.5,2.8-3.5c7.2-0.4,11.9-6.9,11.9-12.4
			c0-1.2-0.2-2.2-0.6-3h6.1l0.9-3.1h-9.7c-1.2-0.7-2.5-1.1-3.9-1.1c-7.7,0-12.6,6.7-12.6,12.2c0,4.1,2.7,6.7,5.9,7.3
			c-3.6,1.6-5.6,3.5-5.6,5.7c0,1.3,0.4,2.2,1.5,3c-8.3,2.4-11.5,5.2-11.5,9.1c0,3.8,5,5.4,11,5.4C58.6,511.5,67.1,506,67.1,501.4
			 M28.5,477.8c3.6,0,3.7,1.5,3.1,5.5h2.1l4.9-13.3h-2.1c-1.8,3.1-3.3,5.5-7.2,5.5h-8l4-11.1c1.3-3.7,2.1-4.4,7.1-4.4h3.5
			c5.1,0,5.7,1.4,5.7,6.5h2l1.7-9.1H14.9l-0.6,1.7c5.9,1.2,6.5,1.8,3.7,9.4l-6.6,18.1c-2.8,7.6-3.9,8.2-10.7,9.4l-0.5,1.7h33.9
			l6.1-9.6h-2.3c-3.9,3.6-8.7,7.1-15.5,7.1c-9,0-8.2-0.4-5.2-8.6l3.2-8.8H28.5z M32.9,454.7l10.8-7.4v-1.2h-6.5l-6,8.6H32.9z"/>
		<path d="M167.8,403.8c2,0,3.8,1.5,2.9,5.5l-9.5,2.2C162.8,407.1,165.6,403.8,167.8,403.8 M173,419.1h-1.9c-2.4,2.8-4.9,5-7.5,5
			c-2.6,0-3.9-1.5-3.9-5c0-1.4,0.2-2.9,0.4-4.2l15.3-5c3-7.1-0.6-10.2-4.8-10.2c-7.2,0-15.5,12.1-15.5,22.7c0,4.7,2.3,7.3,5.8,7.3
			C165.2,429.8,169.5,425.7,173,419.1 M170,396.9l10.8-10v-1.2H175l-6.6,11.2H170z M138.4,404h4l-8.1,22c-0.7,1.9,0.3,3.8,2.2,3.8
			c4.6,0,12-4.5,14.6-10.7h-1.4c-2,2.2-6,5-9.3,5.6l7.4-20.7h7.6l0.9-3.1h-7.3l2.8-8h-2.9l-5.2,8l-5.2,0.9V404z M134.4,406.5
			c1-3.6,0.5-6.7-2.3-6.7c-3.3,0-4.1,2.5-7.4,9.6v-4.1c0-2.9-0.9-5.5-3.6-5.5c-3.1,0-5.9,4.8-8.1,9.6h1.4c1.5-2.2,2.9-3.4,4-3.4
			c1.3,0,2,2,0,6.6l-6,13.3c-1.1,2.5,0.1,4.1,2.5,4.1c1.5,0,2.2-0.4,2.8-2l5.9-15.5c1.7-2,3.1-3.8,5-5.8H134.4z M100.5,403.8
			c2,0,3.8,1.5,2.9,5.5l-9.5,2.2C95.5,407.1,98.3,403.8,100.5,403.8 M105.7,419.1h-1.9c-2.4,2.8-4.9,5-7.5,5c-2.6,0-3.9-1.5-3.9-5
			c0-1.4,0.2-2.9,0.4-4.2l15.3-5c3-7.1-0.6-10.2-4.8-10.2c-7.2,0-15.5,12.1-15.5,22.7c0,4.7,2.3,7.3,5.8,7.3
			C97.9,429.8,102.2,425.7,105.7,419.1 M68.2,425.3c-1.5,0-3.6-1.4-3.6-2.6c0-0.4,0.7-2.1,1.5-4.3l2.5-6.6c2.7-3.1,6.7-6.5,8.9-6.5
			c1.4,0,2.4,0.9,2.4,2.9C79.9,414.3,74.3,425.3,68.2,425.3 M85.6,405.8c0-4.5-1.7-6.1-4.7-6.1c-3.9,0-7.5,4.1-11.2,9.1l9.2-24.2
			l-0.5-0.6l-9.7,1.1v1.2l1.9,1.4c1.7,1.3,1.2,2.7-0.4,6.7l-9.9,25.6c-0.7,1.9-1.6,4.1-1.6,4.7c0,2.7,3.6,5.1,6.8,5.1
			C73.1,429.8,85.6,416.2,85.6,405.8 M55.6,402.9c0.6-2-0.8-3.2-1.8-3.2c-4.4,0-9.7,4-11.8,9.6h1.4c1.4-2,3.9-4.3,6.1-4.7l-8.4,22
			c-0.8,2,0.8,3.2,1.8,3.2c4.2,0,9.1-4,11.2-9.6h-1.4c-1.4,2-3.9,4.3-6.1,4.7L55.6,402.9z M57.1,391.9c2,0,3.6-1.6,3.6-3.6
			c0-2-1.7-3.6-3.6-3.6c-2,0-3.6,1.7-3.6,3.6C53.5,390.3,55.1,391.9,57.1,391.9 M34.9,388.3H14.8l-0.6,1.7c5.9,1.2,6.5,1.8,3.7,9.4
			l-6.5,18.1c-2.8,7.6-3.9,8.2-10.7,9.4l-0.5,1.7h30.6l6.6-11.8h-2.3c-3.8,4.1-8.2,9.3-15,9.3c-5.1,0-5.7-0.9-3-8.6l6.5-18.1
			c2.7-7.6,3.9-8.2,10.7-9.4L34.9,388.3z"/>
	</g>
	<g>
		<rect x="41.5" class="st0" width="166.4" height="100"/>
		<path class="st1" d="M113.7,88.2c1.1-1.1,2.2-2.2,3.2-3.4h0c2-2.3,4-4.4,6.3-6.4c0.7-0.6,1.4-1.2,2.1-1.6c0.2-0.2,0.2-0.6,0.4-0.8
			c-0.9,0.4-1.5,1.1-2.5,1.5c-0.2,0-0.4-0.2-0.2-0.4c0.7-0.5,1.3-1,2-1.5c0,0-0.1,0-0.1,0c-0.2,0-0.2-0.2-0.2-0.4
			c-2.5-0.4-4.3,1.3-6,2.8c-0.4,0.2-0.8-0.2-0.9-0.2c-2.8,0.9-4.9,3.4-7.7,4.5c0-0.2,0-0.2,0-0.4c-1.1,0.4-2.2,1.1-3.4,1.3
			c-1.7,0.4-3.2,0.2-4.7,0.2c-2.3,0.2-4.6,0.7-6.9,1.2c-0.1,0-0.1,0-0.2,0c-1.2,0.3-2.4,0.8-3.5,1.4c0,0-0.1,0-0.1,0.1
			c-0.1,0.1-0.2,0.2-0.3,0.3c-0.4,0.4-0.8,0.9-1.3,1.1c-1.2,0.6-2.1,1.6-3.1,2.5c-0.1,0.1-0.2,0.1-0.3,0.1c-1,1-2,2-3,2.9
			c-0.1,0.1-0.4,0.1-0.6,0.1c0,0,0,0,0,0c0-0.1,0.1-0.1,0.1-0.2c0.2-0.3,0.3-0.5,0.5-0.8c0.2-0.3,0.4-0.6,0.6-0.9
			c0.3-0.4,0.5-0.8,0.8-1.2c0.1-0.1,0.1-0.2,0-0.2c-0.1-0.1-0.2-0.1-0.3-0.1c0.9-0.9,2.1-1.7,3.2-2.4c0,0,0,0,0,0
			c-0.1,0-0.3-0.1-0.2-0.2c0.1-0.2,0.2-0.3,0.3-0.5c0-0.1,0-0.1,0.1-0.2c0-0.1-0.1-0.1-0.1-0.1c-0.3,0.2-0.6,0.4-0.9,0.6
			c-0.5,0.4-0.8,1.2-1.5,1.2c0,0-0.2,0-0.3,0c-0.1,0-0.2,0-0.2-0.1c0,0,0,0,0,0c0,0,0,0,0-0.1c0,0,0,0,0,0c0-0.1,0.1-0.1,0.1-0.2
			c0-0.1,0.1-0.1,0.1-0.2c0,0,0-0.1,0.1-0.1c0-0.1,0.1-0.2,0.1-0.2c0-0.1,0.1-0.1,0.1-0.2c0.1-0.1,0.2-0.3,0.2-0.4
			c0-0.1,0.1-0.1,0.1-0.2c0.1-0.1,0.1-0.2,0.2-0.3c0.1-0.2,0-0.3-0.1-0.3c0.4-0.5,0.8-0.8,1.3-1.1h-0.1c0.7-0.4,1.4-0.8,2.2-1.2
			c0.1-0.1,0.2-0.2,0.3-0.3c-1.1,0.4-2,0.9-3,1.5c0,0-0.2,0.1-0.3,0.2c0,0-0.2,0.1-0.5-0.2c0,0,0-0.1,0-0.1c0.2-0.4,0.8-0.6,1.1-0.9
			c0.2,0,0.4,0,0.4,0.2c6-4.7,14.4-3.6,21.4-6c0.6-0.4,1.1-0.8,1.7-1.1c0.9-0.4,1.7-1.3,2.8-1.9c1.5-1.1,2.6-2.5,3.2-4.3
			c0-0.2-0.2-0.4-0.2-0.4c-2.5,2.6-5.3,4.7-8.3,6.2c-4,2.1-8.3,1.7-12.5,2.3c0.2-0.4,0.6-0.4,0.9-0.4c0-0.6,0.4-0.8,0.8-1.1
			c0.2,0,0.4,0,0.6,0c0.2,0,0.2-0.4,0.4-0.4c0.4,0,0.9-0.2,0.8-0.2c-0.6-0.8-1.7,0.6-2.6,0c0.4-0.4,0.2-0.9,0.6-1.1
			c0.2,0,0.6,0,0.8,0c0-0.4,0.4-0.8,0.4-0.8c2.8-1.7,5.5-3,8.1-4.5c-0.6,0-0.9,0.6-1.5,0.2c0.4,0,0-0.6,0.4-0.6
			c2.1-0.6,3.8-1.7,5.9-2.5c-0.8,0-1.3,0.6-2.1,0c0.4-0.2,0.6-0.6,1.1-0.6c0-0.2,0-0.4,0-0.6c0-0.2,0.2-0.2,0.4-0.2
			c-0.2,0-0.4-0.2-0.4-0.2c0.2-0.4,0.8-0.2,1.1-0.6c-0.2,0-0.6,0-0.6-0.2c0.6-0.8,1.5-0.9,2.5-1.1c-0.2-0.4-0.8,0-0.8-0.4
			c0-0.2,0.2-0.2,0.4-0.2c-0.2,0-0.2,0-0.4,0c-0.4-0.2-0.2-0.6-0.2-0.8c1.1-1.3,1.1-3,1.7-4.5c-0.2,0-0.4,0-0.4-0.2
			c-1.9,2.1-4.9,2.8-7.7,3.6c-0.2,0-0.8,0-0.9,0c-0.9,0.4-2.3,0.4-3.2-0.2c-0.8-0.4-1.1-0.9-1.9-1.5c-1.5-0.9-3-1.7-4.7-2.3
			c-4.7-1.5-9.6-2.3-14.6-2.1c2.1-1.1,4.4-1.2,6.6-1.9c3.2-0.9,6.2-2.1,9.6-1.9c-0.6-0.2-1.3,0-1.9,0c-2.6-0.2-5.3,0.6-8.1,1.1
			c-1.9,0.4-3.6,1.1-5.5,1.5c-1.1,0.4-1.7,1.5-3,1.3c0,0,0-0.4,0-0.6c1.9-2.3,4.2-4.5,7.2-4.7c3.4-0.6,6.6,0,10,0.4
			c2.5,0.2,4.7,0.8,7.2,1.3c0.9,0,1.1,1.5,1.9,1.7c1.1,0.4,2.3,0,3.4,0.8c0-0.4-0.2-0.8,0-1.1c0.8-0.8,1.7,0.2,2.5-0.2
			c1.5-0.9-1.3-2.6-2.1-4c0-0.2,0.2-0.4,0.2-0.4c1.5,1.3,2.6,2.8,4.5,3.8c0.9,0.4,3.2,0.9,2.8-0.2c-0.9-2.1-2.8-3.8-4.3-5.7
			c0-0.2,0-0.6,0-0.8c-0.4,0-0.4-0.2-0.6-0.4c0-0.2,0-0.6,0-0.8c-0.8-0.4-0.6-1.1-0.9-1.7c-0.6-0.9-0.2-2.3-0.6-3.4
			c-0.4-1.1-0.6-2.1-0.8-3.2c-0.6-3.2-1.3-6-1.7-9.1c-0.4-3.6,2.1-6.4,3.8-9.6c1.3-2.3,2.8-4.5,5.3-6c0.6-2.3,2.1-4.2,3.6-6
			c1.5-1.8,4-3,5.8-3.8c2.6-1.2,5-1.9,5-1.9H0v100h91.8c3.6-2.6,7.2-3.8,12.2-6.3C106.4,92.5,111.8,90,113.7,88.2z M84.6,74.7
			c-0.4,0-1.1,0.2-0.9-0.2c0.2-0.9,1.5-0.9,2.3-1.3c0.4-0.2,0.9-0.6,1.3-0.4c0.4,0.6,0.9,0.4,1.3,0.8C87.5,74.7,86,74.1,84.6,74.7z
			 M55.7,70.5c0,0-0.2-0.2-0.2-0.4c2.5-3.2,4.3-6.2,6-9.6c2.5-1.3,4.5-3.2,6.4-5.3c3.2-3.4,6.6-6.4,10.6-8.3
			c1.5-0.6,3.4-0.4,4.9,0.2c-0.6,0.8-1.5,0.6-2.3,1.1c-0.2,0-0.4,0-0.6-0.2c0.2-0.2,0.2-0.4,0.2-0.6c-1.9,2.1-4.5,3-6,5.5
			c-1.1,1.9-1.9,4.3-4.3,4.9c-0.8,0.2,0.2-0.6-0.2-0.4C64.4,61.1,60.3,65.4,55.7,70.5z M71.4,58c-0.2,0.4-0.4,0.4-0.6,0.8
			c-0.2,0.4-0.4,0.6-0.8,0.8c-0.2,0-0.4,0-0.4-0.2c0.2-0.8,0.8-1.5,1.5-1.7C71.4,57.7,71.4,57.9,71.4,58z M80.2,86.4
			c-0.1,0.2-0.3,0.4-0.5,0.6c0.2,0,0.4,0.2,0.2,0.3c-0.4,0.4-0.9,0.8-1.4,1c0,0-0.2,0-0.3,0c-0.2,0.2-0.5,0.4-0.7,0.7
			c-0.2,0.2-1.3,0.1-0.9-0.2c0.5-0.4,0.9-0.9,1.4-1.3c0.3-0.2,0.5-0.5,0.8-0.8c0.1-0.2,0.2-0.3,0.4-0.4C79.3,86.1,80.3,86,80.2,86.4
			z M76.8,84.8C76.8,84.8,76.8,84.8,76.8,84.8c-0.8,0.5-1.5,1-2.2,1.5c-0.8,0.5-1.7,0.8-2.5,1.2c0,0,0,0,0,0
			c-0.1-0.1-0.2-0.1-0.3-0.1c-0.7,0.4-1.3,0.9-1.9,1.4c-0.1,0.1-0.2,0.2-0.3,0.3c0,0,0,0,0,0c0,0,0,0,0,0c-0.1,0.1-0.2,0.2-0.3,0.3
			c0,0,0,0,0,0c0,0,0,0,0,0c-0.1,0.1-0.3,0.3-0.4,0.4c-0.1,0.1-0.1,0.2-0.3,0.3c-0.1,0.1-0.4,0.1-0.4-0.1c0,0,0,0,0,0
			c-0.1,0.1-0.2,0.1-0.3,0.2c-0.1,0-0.2,0.1-0.3,0.2c0,0-0.1,0-0.1,0c0,0-0.1,0-0.1,0c-0.2,0.2-0.5,0.4-0.7,0.6
			c-0.4,0.4-0.8,0.7-1.1,1.2c0,0,0,0,0,0c0,0,0,0,0,0.1c0,0,0,0-0.1,0.1c0,0,0,0.1-0.1,0.1c0,0,0,0,0,0c0,0.1-0.1,0.1-0.1,0.2
			c0,0,0,0,0,0c0,0-0.1,0.1-0.2,0.1c0,0-0.1-0.1-0.1-0.1c0,0,0-0.1-0.1-0.1c-0.1-0.1-0.1-0.2-0.2-0.3c0,0,0,0,0,0c0,0,0-0.1,0-0.1
			c0.2-0.2,0.4-0.4,0.6-0.7c0,0,0,0,0,0c0.1-0.1,0.1-0.2,0.2-0.2c0.1-0.1,0.2-0.3,0.3-0.4c0,0,0.1-0.1,0.1-0.1
			c0.2-0.3,0.4-0.5,0.6-0.8c0,0,0,0,0,0c0,0,0.1-0.1,0.1-0.1c0.1-0.1,0.2-0.3,0.3-0.4c0.1-0.1,0.1-0.2,0.2-0.4c0,0,0,0,0,0
			c0,0,0,0,0,0c0,0,0,0,0-0.1c0.1-0.1,0.1-0.3,0.2-0.4c0,0,0,0,0,0c0,0,0-0.1,0-0.1c0-0.1,0-0.1,0.1-0.2l0,0c0,0,0,0,0,0
			c0-0.1,0-0.2,0.1-0.3c0,0,0-0.1,0-0.1c0.2-0.4,0.5-0.7,0.7-1c0,0-0.1,0-0.1,0c-0.3,0.2-0.4,0.4-0.7,0.6c-0.2,0.2-0.6-0.1-0.3-0.3
			c0.2-0.1,0.3-0.3,0.4-0.4c0,0,0,0,0,0c0.3-0.3,0.6-0.7,1-1c0.2-0.2,0.4-0.3,0.6-0.4c0,0,0.1,0,0.1-0.1c0.1-0.2,0.3-0.3,0.4-0.5
			c0,0,0,0,0,0c1.8-1.7,4.9-1.7,7.2-2.8c0.9-0.4,2.1,0.2,3,0c0.6,0,1.1,0,1.7,0.4C79.9,82.8,78.3,83.8,76.8,84.8z M80.7,71.6
			c-0.2-0.2,0.6,0,0.8-0.4c-0.6,0-0.9,0-1.5,0c-0.2,0-0.2-0.2-0.2-0.4c-0.9,0.2-2.1,0.6-3,0.8c-1.3,0.4-2.5,1.3-4,1.7
			c-2.1,0.8-3.8,2.5-6,3.2c-0.2,0-0.2-0.2-0.2-0.4c0.2-0.6,0.9-0.8,1.3-1.3c0-0.2,0-0.4-0.2-0.4c1.5-2.1,3.6-3.2,5.5-4.9
			c0-0.2,0-0.4,0-0.6c0.6-0.8,1.5-1.1,1.9-2.1c0.2-0.6,0.9-1.3,1.9-1.7c-0.2-0.2-0.6-0.2-0.6-0.6c-0.8,0-1.5,0.4-2.3-0.2
			c0.4-0.4,0.8-0.5,1.2-0.7c-0.2,0-0.3-0.1-0.4-0.3c-0.2-0.4,0.4-0.8,0.9-0.9c0.8-0.2,1.7-0.2,2.3-0.8c-1.3-0.2-2.8,0.4-4.2-0.4
			c0.9-2.5,2.5-4.5,4.7-5.7c0.2,0,0.6,0,0.6,0.2c0,0.9-0.6,1.7-1.5,1.9c1.5,0.4,3,0.4,4.5,1.1c-0.2,0.4-0.6,0.2-0.8,0.2
			c0.9,0.6,2.1,0.2,3,0.9c-0.6,0.6-1.1,0-1.7,0c5.9,1.7,12.1,3,17,6.8c-4.2,2.1-8.5,3-13,4c-0.6,0-0.9,0-1.5-0.2
			c0,0.2,0,0.6-0.2,0.6c-0.8,0-1.3,0-1.9,0.4C82.4,72,81.2,72.2,80.7,71.6z"/>
		<g>
			<path class="st2" d="M275,0H167.4c0,0,0.2,0,1,0.5c0.9,0.5,2,1.1,2.7,1.4c1.4,0.7,2.7,1.6,3.6,3c0.4,0.6,0.9,1.7,0.6,2.5
				c-0.4,0.9-0.6,2.5-1.5,2.8c-1.1,0.6-2.6,0.6-4,0.4c-0.8,0-1.5-0.2-2.3-0.4c2.8,1.1,5.5,2.5,7.4,5.1c0.2,0.4,0.9,0.6,1.7,0.6
				c0.2,0,0.2,0.4,0.2,0.6c-0.4,0.4-0.8,0.6-0.6,1.1c0.2,0,0.4,0,0.6,0c0.9-0.4,0.8-2.3,2.1-1.7c0.9,0.6,1.3,1.9,0.8,2.8
				c-0.8,0.8-1.5,1.3-2.3,1.9c-0.2,0.4-0.2,0.9,0,1.3c0.6,0.8,0.8,1.5,0.9,2.3c0.6,1.3,0.8,2.8,1.3,4.2c0.8,2.8,1.5,5.7,1.3,8.5
				c0,1.5-0.8,2.8-0.2,4.3c0.4,1.5,1.3,2.6,2.1,4c0.8,1.1,1.5,1.9,2.1,3c1.1,1.9,3.2,3.8,2.3,6c-0.6,1.3-2.6,1.1-4,1.9
				c-1.1,0.9-0.2,2.5,0.4,3.4c0.9,1.7-1.1,2.8-2.5,3.4c0.4,0.6,1.1,0.4,1.3,0.8c0.2,0.9,1.1,1.5,0.6,2.5c-0.8,1.1-3,1.7-1.9,3.4
				c0.8,1.3,0.3,2.8-0.2,4.2c-0.6,1.7-2.1,2.5-3.4,2.8c-1.1,0.4-2.5,0.4-3.6,0.2c-0.4-0.2-0.8-0.4-1.1-0.4c-3.2-0.4-6.4-1.3-9.6-1.3
				c-0.9,0.2-1.9,0.4-2.6,0.8c-0.9,0.6-1.6,1.3-2.3,2c0,0,0,0,0,0c-0.1,0.2-0.3,0.3-0.4,0.5c-0.1,0.1-0.2,0.2-0.2,0.3
				c-0.1,0.1-0.1,0.1-0.2,0.2c-0.6,0.7-1,1.4-1.5,2.2c0,0-0.1,0.1-0.1,0.1c0,0.1-0.1,0.2-0.1,0.3c-0.6,1.1-1.1,2.3-1.4,3.5
				c-1.3,4.3-0.7,8,0.2,8.9c0.3,0.3,6.2,2.1,10.4,4c2,0.9,3.3,1.5,4.5,2.3H275V0z"/>
		</g>
		<path class="st3" d="M173.8,36.5c0.8,0.2,1.9,0.2,1.9,0.6c-0.4,1.5-2.6,1.9-3.8,3.4h-0.6c-0.6,0.4-0.4,1.3-0.9,1.3
			c-0.6-0.2-1.1,0-1.7,0.2c0.8,0.8,1.7,1.3,2.8,1.1c0.2,0,0.6,0.4,0.6,0.8c0,0,0.2,0,0.4-0.2c0.2,0,0.4,0,0.4,0.2v0.8
			c-0.6,0.8-1.5,0.4-2.3,0.6c1.5,0.4,3,0.4,4.3,0c1.1-0.4,0-2.3,0.8-3.2c-0.4,0,0-0.6-0.4-0.6c0.4-0.4,0.8-0.9,1.1-1.1
			c0.4,0,0.9-0.2,1.1-0.6c0-0.4-0.8-0.6-0.6-0.9c1.1-0.8,2.1-1.9,1.7-3c-0.2-0.6-1.7-0.6-2.6-0.9c-0.9-0.4-2.1,0-3.2,0.2
			c-0.9,0-1.9,0.6-2.8,0.8c-1.3,0.4-2.5,1.1-3.6,1.9c1.3-0.6,2.6-0.8,4.2-1.1C171.7,36.5,172.7,36.2,173.8,36.5z"/>
	</g>
</g>
</svg>
