<?xml version="1.0" encoding="UTF-8"?><svg xmlns="http://www.w3.org/2000/svg" xmlns:xlink="http://www.w3.org/1999/xlink" viewBox="0 0 1920 1080"><defs><style>.d{fill:#e6e6e6;mix-blend-mode:multiply;}.e,.f,.g,.h,.i,.j{fill-rule:evenodd;}.e,.k{fill:#ffa92a;}.l{fill:#af2323;}.f,.m{fill:#75341c;}.n,.g{fill:#fff;}.o{fill:none;}.h{fill:#2a7814;}.p{isolation:isolate;}.i,.q{fill:#f36a32;}.r{fill:#89523e;}.s{fill:#ff4434;}.t,.j{fill:#9cae2c;}.u{fill:#d12f2f;}.v{fill:#ea7d7d;}.w{clip-path:url(#c);}.x{fill:#ffce00;}</style><clipPath id="c"><rect class="o" width="1920" height="1080"/></clipPath></defs><g class="p"><g id="b"><g class="w"><path class="f" d="M1849.17,957.52s7.74,106.83,14.38,141.85c0,0,15.38,4.51,20.24-.89,5.36-5.95,18.46-116.18,17.92-147.57-.54-31.38-52.54,6.61-52.54,6.61Z"/><path class="j" d="M1881.23,621.08c-14.15-20.03-15.66-34.46-27.23-7.85-11.57,26.61-30.15,64.53-40.17,78.9-10.02,14.37-16.57,23.29-8.92,23.92,7.65.63,23.76-14.73,30.6-22.04,6.84-7.31-17.31,24.5-26.55,37.4-9.25,12.9-32.88,40.13-22.19,38.17,10.7-1.96,21.11-14.62,26.26-19.52,5.16-4.9-8.17,19.18-15.4,34.17-7.24,14.98-15.77,33.84-5.74,25.45,10.03-8.39,16.28-19.6,16.68-18.68.4.92-16.26,37.41-24.28,49.97-3.29,5.15-13.98,19.43-.21,15.08,6.38-2.02,16.19-13.97,16.19-13.97,0,0-8.46,23.41-23.5,54-11.21,22.81-19.82,33.59-7.9,26.93,14.13-7.89,23.14-18.75,23.57-17.34.42,1.41-28.31,54.96-35.62,64.4-7.31,9.44-11.16,19.2.53,13.53,11.69-5.66,21.78-27.45,18.94-16.83-2.84,10.62-31.62,42.63-36.87,46.33-5.25,3.7-.91,11.31,18.17,1.05,19.08-10.26,47.15-34.54,50.96-34.93,3.81-.39-8.85,31.35-12.09,37.21-3.23,5.86,10.43,11.93,29.51-14.47,0,0,4-2.23,2.38,1.82-1.61,4.06-11.04,25.43-1.07,22.7,9.97-2.73,23.46-21.79,27.27-29.22,3.81-7.43,8.21,31.19,23.49,29.92,0,0,5.45-1.07,3.17-6.74-2.27-5.67-8.67-20.53-5.58-19.31,3.09,1.22,11.64,28.5,23.39,26.42,11.75-2.07-7.78-29.91-5.31-34.34,2.47-4.43,23.17,42.38,36.47,33.99,13.3-8.39-9.23-29.32-7.08-31.07,2.15-1.75,17.04,24.24,22.79,26.15,5.75,1.9,8.73-.19,5.23-12.39-3.5-12.2-6.21-21.34-3.48-20.49,2.73.86,24.88,24.71,28.42,20.22,3.54-4.49-12.07-22.43-8.7-21.56,3.37.87,26.85,24.41,53.92,11.54,0,0,4.39-2.26,1.07-6.5-3.32-4.24-40.12-25.64-38.53-28.18,1.58-2.54,21.53,10.45,20.81,3.58-.72-6.88-22.97-17.47-19.05-18.47,3.92-1.01,24.34,9.3,22.55-2.1-1.79-11.4-49.63-47.98-45.21-52.49,0,0,3.04,5,9.65,7.06,6.61,2.06-.6-10.77-4.06-17.04-3.46-6.27-13.82-23.41-11.98-23.32,1.84.09,13.15,19.24,16.79,11.86,3.65-7.39-32.31-60.83-27.73-61.63,4.58-.81,19.82,11.32,21.55,2.15,1.73-9.17-35.7-39.83-39.52-48.32-3.82-8.48,24.19,14.24,23.99,2.27-.2-11.97-35.59-33.94-28.61-32.67,6.98,1.27,25.82,13.14,18.5-2.19-7.32-15.33-35.53-40.16-29.29-39.99,6.24.17,31.16,10.22,14.13-10.53-20.81-25.37-30.73-41.61-45.15-62.02Z"/><path class="h" d="M1826.8,743.41v.11s-.13.89-.13.89l-.1,1h0s-.11,1.02-.11,1.02l-.1,1.02-.02.3-.19.68-.27.96-.27.96-.21.75-.06.21-.3.95-.3.95-.3.95-.31.94-.21.64-.1.3-.33.94-.33.94-.33.93-.34.93-.34.93-.34.93-.35.93-.35.92-.35.92-.29.74-.07.18-.38.91-.38.91-.38.91-.39.91-.39.91-.4.9-.4.91-.4.9-.41.9-.41.9-.41.9-.42.9-.42.89-.2.42-.23.47-.44.89-.44.88-.45.88-.45.88-.45.88-.46.88-.28.52-.19.35-.48.87-.48.87-.49.86-.49.86-.49.86-.31.53-.2.32-.53.84-.54.84-.54.83-.21.32-.34.5-.56.82-.57.82-.57.82-.57.81-.1.14-.48.67-.58.81-.59.81-.59.81-.59.81-.59.8-1.87.45-.36-1.89.48-.87.48-.86.47-.87.46-.87.46-.87.38-.72.08-.15.46-.87.45-.87.45-.87.44-.87.27-.53.18-.34.45-.87.44-.87.44-.87.17-.33.29-.53.47-.86.46-.86.46-.86.45-.86.45-.86.18-.35.27-.51.45-.86.45-.86.45-.86.44-.86.44-.86.44-.87.23-.45.21-.41.44-.87.43-.87.43-.87.43-.87.43-.87.42-.87.42-.87.41-.88.41-.88.41-.88.4-.88.4-.89.39-.89.08-.18.33-.71.4-.89.4-.89.4-.89.39-.89.39-.89.38-.89.38-.9.38-.9.38-.9.12-.29.26-.61.38-.9.38-.9.37-.91.37-.91.08-.2.3-.71.38-.91.38-.91.26-.65.16-.25.53-.86.51-.87h0s.51-.87.51-.87l.43-.79.05-.1.57-.29.29.57Z"/><path class="h" d="M1835.15,754.95l.31.36.04.24.11.53.09.35-.04.16-.12.46-.12.46-.13.46-.13.46-.13.46-.14.46-.14.46-.14.46-.14.46-.15.46-.15.45-.15.46-.15.45-.15.45-.15.45-.16.45-.16.45-.09.25-.07.2-.17.45-.17.45-.17.45-.36.89-.37.89-.37.89-.38.89-.05.12-.34.76-.4.87-.41.87-.42.87-.42.87-.23.47-.2.39-.45.86-.45.85-.46.85-.46.85-.47.84-.47.84-.29.52-.19.32-.49.83-.49.83-.5.83-.5.83-.5.83-.5.82-.51.82-.33.54-.18.28-.52.81-.52.81-.52.81-.53.81-.53.81-1.05,1.61-1.06,1.6-1.06,1.59-1.52,2.29-.62.87-1.1,1.54-.07.11-1.04,1.42-1.11,1.53-.27.38-.83,1.14-.55.76-.54.76-.54.76-.53.76-1.45.38-.31-1.47.44-.82.45-.82.45-.82.45-.83.68-1.24.23-.41.92-1.66.86-1.55.06-.11.95-1.65.53-.93,1.45-2.33,1-1.62,1-1.62,1-1.63.5-.82.49-.82.49-.82.49-.82.49-.82.17-.29.32-.53.49-.82.49-.82.48-.82.48-.82.48-.82.47-.82.47-.82.17-.32.29-.51.46-.82.46-.82.46-.83.45-.83.44-.83.44-.83.2-.38.24-.45.44-.83.43-.83.43-.83.42-.83.36-.73.06-.11.42-.84.41-.84.4-.84.4-.84.19-.42.19-.42.19-.42.08-.19.11-.23.19-.42.19-.42.19-.42.19-.42.19-.43.18-.43.18-.43.18-.43.17-.43.17-.43.17-.43.17-.43.17-.43.16-.43.16-.43.16-.43.15-.43.05-.15.27-.24.38-.37.16-.17.45-.13.87.25Z"/><path class="h" d="M1844.97,763.01l-.04.13-.32.87-.35,1-.35,1.01-.35,1.01-.22.66-.13.35-.37,1-.37,1-.35.95-.02.05-.41.99-.41.98-.42.98-.1.24-.36.73-.48.95-.48.95-.49.95-.49.94-.37.7-.13.24-.52.93-.53.93-.53.92-.54.92-.54.92-.55.91-.35.58-.2.33-.57.91-.57.9-.58.9-.59.89-.6.89-.6.88-.3.44-.31.44-.31.44-.31.44-1.66.33-.31-1.66.29-.45.29-.44.28-.44.28-.45.56-.89.55-.9.54-.9.53-.91.53-.91.52-.91.19-.33.33-.58.51-.92.51-.92.5-.92.5-.92.49-.93.49-.93.12-.24.37-.68.5-.93.49-.93.49-.93.48-.94.36-.71.13-.22.53-.91.52-.92.52-.92.03-.05.52-.86.54-.91.53-.92.19-.32.36-.59.54-.91.53-.92.53-.92.45-.81.07-.12.6-.23.23.6Z"/><path class="h" d="M1849.84,767.41v.04s.11.52.11.52l.15.58.07.24.08.35.14.59.03.11.06.48h0l-.02.39-.04.15-.15.51-.16.51-.06.19-.12.31-.19.49-.2.49-.2.49-.02.04-.2.44-.22.48-.23.47-.23.47-.23.47-.24.47-.24.46-.24.46-.22.42-.02.05-.26.45-.26.45-.26.45-.26.45-.26.45-.27.45-.27.45-.53.89-.5.82-.04.07-1.8.55-.55-1.8.03-.07.39-.86.42-.93.2-.46.2-.46.2-.46.2-.46.19-.47.19-.46.19-.46.02-.05.17-.42.19-.46.18-.46.18-.46.18-.46.17-.46.17-.46.16-.46.14-.43v-.04s.18-.46.18-.46l.16-.46.15-.46.1-.29.06-.17.17-.46.16-.46.05-.14.19-.3h0l.31-.33.08-.07.43-.39.24-.24.18-.17.4-.42.33-.41.03-.03.55-.33.33.55Z"/><path class="h" d="M1874.16,733.38l-.41,1.93-.48,1.27-1.15,3.09-1.14,3.09-.37,1-.79,2.08-1.15,3.09-.11.31-1.07,2.76-.59,1.54-.37.97-.23.56-.62,1.52-.62,1.52-.62,1.52-.62,1.52-.41,1.02-.21.5-.63,1.52-.63,1.52-.62,1.52-.62,1.52-.61,1.52-.46,1.14-.16.39-.62,1.53-.62,1.52-.61,1.53-.61,1.53-.61,1.53-.61,1.53-.6,1.54-1.34.64-.6-1.36.55-1.56.55-1.56.55-1.56.56-1.55.56-1.56.56-1.55.56-1.55.14-.4.42-1.15.57-1.55.57-1.55.58-1.55.58-1.54.58-1.54.19-.51.4-1.03.6-1.54.6-1.54.6-1.53.6-1.54.22-.56.41-.96.65-1.52,1.17-2.73.13-.3,1.35-3.01.91-2.03.45-.97,1.39-2.99,1.39-2.99.57-1.23,1.09-1.64.6-.24.24.6Z"/><path class="h" d="M1876.17,747.66l.23.35-.06.24-.12.52-.12.52-.12.52-.13.52-.14.52-.14.52-.14.52-.14.52-.15.52-.09.31-.06.2-.16.51-.17.51-.17.51-.17.51-.17.51-.18.51-.18.51-.18.51-.19.51-.19.51-.19.51-.19.51-.07.19-.13.32-.21.5-.21.5-.21.5-.21.5-.22.5-.22.5-.22.5-.22.5-.23.5-.23.5-.23.5-.23.5-.33.71-.14.28-.49.97-.5.97-.5.97-.51.96-.51.95-.52.95-.1.18-.46.74-.51.81-.07.11-.59.89-.59.89-.09.13-.51.75-.6.87-.6.87-1.4.43-.32-1.43.45-.94.45-.95.38-.82.07-.14.45-.96.44-.96.05-.11.41-.85.37-.78.1-.18.5-.94.5-.94.49-.95.49-.95.48-.95.47-.96.14-.28.35-.68.24-.48.24-.48.24-.48.23-.48.23-.48.23-.48.23-.48.23-.48.22-.48.22-.48.22-.49.22-.48.14-.31.08-.18.22-.48.22-.48.22-.48.21-.48.21-.49.2-.49.2-.49.2-.49.2-.49.19-.49.19-.49.19-.49.07-.2.12-.29.19-.49.18-.49.18-.49.18-.49.17-.49.17-.49.16-.49.16-.49.16-.49.07-.24.37-.18,1.34.35Z"/><path class="h" d="M1879.3,755.51l.89.17.38.13.24.15.11.27v.03s-.09.43-.09.43l-.09.43-.09.43-.09.43-.09.43-.19.87-.2.86-.21.86-.22.86-.22.86-.23.86-.23.86-.24.86-.24.85-.24.85-.25.84-.25.84-.25.84-1.69.9-.91-1.69.26-.83.25-.83.25-.84.25-.84.25-.84.24-.84.24-.84.23-.84.23-.84.22-.84.21-.84.21-.84.2-.84.1-.42.09-.42.09-.42.09-.42.09-.42v-.03s.21-.21.21-.21l.28-.04.41.02Z"/><path class="h" d="M1889.79,752.49l.05.23.12.58.12.58.12.58.26,1.15.02.1.22,1.06.22,1.05.02.11.21,1.16.14.76.21,1.58.15,1.18.03.26.1.92.12,1.18.06.6.06.6.03.38.02.22.05.6.04.6.04.6.04.6.04.6.03.6.03.6-.95,1.16-1.14-.97-.08-.59-.08-.58-.09-.58-.09-.58-.09-.58-.1-.58-.1-.58-.04-.22-.06-.37-.1-.58-.11-.58-.21-1.16-.17-.9-.04-.25-.2-1.16-.28-1.57-.1-.77-.15-1.18v-.11s-.12-1.08-.12-1.08l-.1-1.09v-.1s-.08-1.2-.08-1.2l-.04-.6-.04-.6-.03-.6v-.24s.27-.38.27-.38l.25-.05.9-.11h.25s.37.28.37.28Z"/><path class="h" d="M1895.68,749.06l.03.03.33.31.22.17.17.15.4.32.16.12.1.24.17.38.17.38.18.38.17.36v.02s.17.38.17.38l.17.38.17.38.17.38.17.38.17.38.03.06.14.32.17.38.17.38.17.37.18.38.18.37.18.37.18.37.19.37.19.37.19.37.19.37.19.37.14.26.05.1.19.37.19.37.19.37.19.36.2.36.2.36.2.36.2.36.2.36.21.35.21.36.21.35.21.35.22.35.22.35.22.35.04.06.18.29.22.35.22.35.22.35.22.35.22.35.22.35.23.35.05.07.17.28.22.35.22.35.22.35.46.7.05.08.23.74.19.58.07.26.27.85-.14,2.16-2.1-.53-.73-.53-.22-.16-.5-.39-.64-.5-.06-.08-.51-.71-.25-.36-.25-.36-.25-.36-.19-.28-.05-.08-.24-.37-.23-.37-.23-.37-.23-.37-.23-.37-.22-.37-.22-.38-.18-.31-.04-.06-.21-.38-.21-.38-.21-.38-.2-.38-.2-.38-.2-.38-.2-.39-.2-.39-.2-.39-.19-.39-.19-.39-.19-.39-.19-.39-.19-.39-.18-.4-.18-.39-.05-.11-.12-.29-.17-.4-.16-.4-.16-.4-.16-.4-.16-.4-.15-.41-.15-.41-.15-.41-.15-.41-.15-.41-.15-.41-.14-.41-.12-.35-.02-.07-.13-.42-.12-.42-.12-.42-.12-.42-.12-.42-.12-.42v-.02s-.1-.41-.1-.41l-.09-.43-.09-.43-.09-.43-.06-.27.06-.19.15-.5.06-.22.08-.27.11-.44v-.04s.32-.56.32-.56l.56.31Z"/><path class="h" d="M1902.08,744.51l.72.74.71.74.71.73,1.35,1.39.06.07,1.37,1.47.68.73.68.73.68.72.68.71.69.71.13.14.54.58.67.72.67.71.67.71.68.7.34.34.34.35.34.34.25.25.09.09.34.35.34.35.34.35.34.34.35.34.35.34.35.34.35.34.35.33.36.33.36.33.19.17.16.17.34.36.35.35.35.35.35.35.36.35.36.35.29.27.07.07.36.35.37.35.37.35.38.34.38.35.33,2.01-2.02.26-.45-.28-.45-.29-.45-.29-.45-.29-.44-.29-.09-.06-.34-.24-.43-.3-.43-.3-.42-.31-.42-.31-.42-.31-.42-.31-.19-.15-.2-.18-.38-.35-.38-.35-.37-.35-.37-.35-.37-.35-.37-.35-.37-.35-.36-.36-.36-.36-.36-.36-.35-.36-.09-.09-.25-.27-.34-.37-.34-.37-.34-.38-.66-.75-.66-.76-.65-.76-.65-.76-.52-.62-.12-.15-.61-.79-.61-.79-.61-.79-.61-.8-.61-.8-1.22-1.6-.06-.07-1.15-1.56-.61-.82-.61-.81-.62-.82-.46-.6.09-.44,1.08-.94.45-.02.53.55Z"/><path class="h" d="M1906.89,733.3l.74.32.26.1.37.32.57.5,1.04.9.09.08,1.11,1,1.11,1.01.47.42.63.59,1.08,1.02,1.08,1.02.22.2,1.89,1.85.81.79.24.24,1.02,1.05,1.02,1.04,1.03,1.04.51.51.52.51.12.11.4.4.51.51.51.51.51.51.52.51.52.51.52.5.52.5.53.5.53.49.41.38.12.11.53.49.53.49.54.48.54.48.55.48.55.47.55.47.55.46.56.46.56.46.57.45.57.45.58.44.58.44.59.43.59.43.6.43.12.09.45.38.57.47.58.47.22.17.37.3.59.46.6.46.42,1.4-1.43.3-.7-.32-.7-.33-.44-.21-.25-.12-.69-.34-.69-.35-.54-.28-.13-.09-.64-.42-.63-.42-.63-.43-.62-.43-.61-.44-.61-.44-.61-.45-.6-.45-.6-.45-.59-.46-.59-.46-.58-.46-.58-.47-.58-.47-.57-.48-.57-.48-.56-.48-.13-.11-.43-.38-.55-.49-.55-.5-.55-.5-.55-.5-.54-.5-.54-.51-.54-.51-.54-.51-.53-.51-.41-.4-.12-.12-.52-.52-.53-.52-1.04-1.05-1.04-1.05-1.03-1.06-.24-.24-.77-.84-1.79-1.96-.2-.23-.97-1.12-.98-1.11-.56-.64-.41-.48-.97-1.12-.98-1.12-.08-.09-.89-1.04-.49-.56-.32-.37-.11-.26-.33-.73-.37-.7v-.64s.63,0,.63,0l.71.35Z"/><path class="h" d="M1840.58,693.42l-.2.98-.03.17-.36.7-.44.85-.45.84-.43.81-.02.03-.49.82-.49.82-.5.82-.5.81-.5.81-.5.81-.51.81-.51.81-.51.81-.51.8-.51.8-.52.8-.52.8-.52.8-.52.8-1.05,1.59-1.05,1.58-1.06,1.58-1.06,1.58-1.07,1.57-1.07,1.57-1.39.27-.27-1.39,1.07-1.57,1.07-1.57,1.06-1.57,1.06-1.57,1.05-1.58,1.05-1.58.52-.79.52-.79.52-.79.52-.79.51-.79.51-.8.51-.8.51-.8.5-.8.5-.8.5-.81.5-.81.49-.81.49-.81.48-.81.02-.03.5-.76.51-.79.51-.8.42-.66.14-.11.74-.67.62-.17.17.62Z"/><path class="h" d="M1845.31,700.04l-.05.95.06.99.04.32-.21.56-.27.73-.03.08-.32.81-.18.46-.14.34-.33.8-.33.81-.32.81-.32.81-.64,1.62-.63,1.63-.27.68-.37.95-.64,1.63-.65,1.63-.1.25-.24.57-.34.81-.35.81-.35.81-.22.5-.16.31-.41.79-.22.41-.21.37-.45.77-.44.75v.02s-.47.76-.47.76l-.47.76-.47.75-1.92.7-.59-1.96.32-.82.3-.81.3-.82v-.02s.3-.79.3-.79l.29-.82.14-.39.16-.42.31-.81.12-.32.22-.48.35-.79.35-.79.35-.8.24-.56.11-.24.71-1.6.7-1.6.41-.94.3-.67.72-1.61.72-1.6.37-.8.37-.8.37-.8.38-.8.16-.34.23-.45.4-.79.04-.08.39-.7.3-.53.28-.18.81-.6.71-.63.61-.21.21.61Z"/><path class="h" d="M1855.16,708.24l.03.63.06.64.07.54-.02.1-.11.6-.11.6-.08.42-.05.18-.15.58-.16.59-.16.58-.16.58-.17.58-.17.58-.17.58-.17.58-.17.58-.18.58-.18.58-.18.58-.07.22-.11.35-.19.57-.19.57-.19.57-.2.57-.2.57-.2.57-.2.57-.09.24-.12.33-.22.56-.22.56-.22.56-.44,1.12-.38.95-.07.16-.48,1.1-.49,1.1-.48,1.08v.02s-.52,1.08-.52,1.08l-.52,1.08-.52,1.08-.13.27-.41.81-.55,1.07-.55,1.07-.55,1.07-.56,1.06-.33.63-.27.41-.67,1.01-.3.46-1.04,1.54-1.78.77-.45-1.89.62-1.76.19-.52.4-1.13.16-.46.3-.64.5-1.08.5-1.08.5-1.08.49-1.08.37-.81.12-.27.5-1.07.5-1.08.49-1.08v-.02s.5-1.05.5-1.05l.5-1.07.49-1.08.07-.16.43-.91.5-1.07.24-.53.24-.54.24-.54.14-.31.1-.22.24-.54.24-.54.24-.54.24-.54.24-.54.23-.54.23-.54.14-.33.09-.21.23-.55.22-.54.22-.55.22-.55.22-.55.22-.55.21-.55.21-.55.2-.55.2-.56.2-.56.2-.56.06-.17.16-.38.23-.55.22-.55.04-.09.34-.42.37-.52.34-.53.56-.32.32.56Z"/><path class="h" d="M1865.4,716.49l.04,1.03.04.48-.12.52-.24.95-.24.95-.14.57-.1.38-.26.94-.26.95-.27.94-.05.17-.24.77-.29.94-.3.94-.3.94-.3.93-.31.93-.32.93-.32.93-.03.09-.3.84-.34.92-.35.92-.36.92-.36.92-.37.91-.38.91-.38.91-.06.14-.37.74-.45.88-.23.44-.23.44-.23.44-.23.44-.23.44-.15.28-.09.15-.24.43-.25.43-.25.43-.25.43-.25.43-.25.42-1.54.5-.47-1.55.2-.44.2-.44.2-.44.19-.44.19-.45.19-.45.07-.16.12-.29.19-.45.19-.44.19-.45.18-.45.18-.45.36-.9.29-.75.06-.14.39-.88.38-.89.37-.89.37-.89.36-.89.36-.89.35-.9.31-.81.04-.09.35-.9.34-.9.34-.9.33-.91.33-.91.32-.91.32-.91.26-.76.06-.16.33-.91.33-.91.32-.92.13-.37.2-.55.33-.91.33-.92.18-.5.3-.37.6-.84.63-.34.34.63Z"/><path class="h" d="M1874.54,699.1l.7,1.19.06.25.33,1.35v.11s.04,1.47.04,1.47l.03,1.47v.74s.02.73.02.73v.74s.01.73.01.73v.58s0,.15,0,.15v.73s-.02.74-.02.74l-.02.74-.02.74-.02.74-.03.74-.03.74-.03.74-.04.74-.03.48-.02.26-.08.73-.08.74-.02.21-.07.52-.11.73-.11.73-.04.27-.07.46-.12.73-.13.73-.13.73-1.19,1-.94-1.24.03-.73.02-.73.02-.73v-.45s.01-.27.01-.27v-.73s.02-.72.02-.72v-.72s.02-.72.02-.72v-.72s0-.25,0-.25l.02-.47.03-.72.02-.72.02-.72.02-.72v-.72s.02-.72.02-.72v-.72s.01-.72.01-.72v-.73s0-.15,0-.15v-.58s.01-.73.01-.73v-.73s0-.73,0-.73v-.73s0-1.45,0-1.45v-1.46s-.01-.11-.01-.11l.27-1.35.05-.25.65-1.22.44-.46.46.44Z"/><path class="h" d="M1885.85,696.44l.02.09.31,1.25.34,1.34.36,1.34.02.08.31,1.26.34,1.34.02.09.26,1.25.28,1.35v.08s.18,1.28.18,1.28l.17,1.36.1.8.05.57.11,1.37.11,1.37.05.74.04.64.07,1.38.06,1.38.05,1.38-1.14,1.39-1.34-1.19-.16-1.36-.17-1.35-.18-1.35-.09-.63-.09-.73-.17-1.35-.17-1.35-.07-.56-.08-.79-.14-1.35-.14-1.27v-.08s-.05-1.36-.05-1.36l-.05-1.27v-1.47s-.03-1.29-.03-1.29v-.08s0-1.38,0-1.38l-.02-1.38-.04-1.29v-.09s.38-.51.38-.51l.51.39Z"/><path class="h" d="M1897.38,694.48l.28.35.32.34.27.25.03.09.12.38.12.38.04.11.08.27.11.38.12.38.12.38.04.11.08.27.11.38.12.38.24.76.25.75.1.29.14.47.24.76.25.76.25.76.26.76.27.75.27.75.28.75.16.4.12.35.28.75.29.75.29.75.29.74.3.74.3.74.31.74.23.54.07.2.25.76.26.76.26.75.26.74h0s.25.77.25.77l.26.75.26.75-.66,1.88-1.84-.75-.39-.7-.39-.7-.39-.71h0s-.36-.72-.36-.72l-.37-.73-.37-.73-.37-.73-.1-.2-.22-.56-.3-.76-.29-.77-.29-.77-.29-.77-.28-.77-.27-.78-.27-.78-.12-.36-.14-.43-.24-.79-.24-.79-.23-.79-.23-.8-.22-.79-.21-.8-.2-.8-.12-.49-.07-.31-.16-.81-.15-.81-.08-.4-.07-.4-.05-.29-.02-.12-.06-.41-.06-.4-.06-.41-.04-.29v-.11s-.05-.41-.05-.41l-.04-.41v-.1s.15-.34.15-.34l.18-.44.14-.43.37-.53.53.37Z"/><path class="h" d="M1909.74,693.5l.04.04.74.84h.01s.4.45.4.45l.14.14.24.3.12.15.15.34.22.51.22.51.23.5.23.5.23.5.21.45.02.05.22.5.23.5.23.5.24.5.24.5.24.5.24.49.25.49.25.49.04.09.2.4.25.48.25.48.26.48.27.48.27.48.27.47.28.47.28.47.29.47.29.46.25.39.05.07-.39,1.85-1.85-.39-.05-.07-.27-.4-.31-.48-.31-.48-.3-.49-.3-.49-.29-.49-.29-.49-.29-.5-.28-.5-.27-.5-.27-.5-.22-.41-.04-.09-.26-.51-.25-.51-.25-.51-.25-.51-.24-.51-.24-.51-.24-.51-.24-.52-.23-.52-.02-.05-.2-.47-.21-.53-.21-.53-.21-.53-.21-.53-.2-.53-.14-.35-.02-.19-.04-.39v-.81s0-.01,0-.01l-.03-1.12v-.06s.25-.59.25-.59l.59.26Z"/><path class="h" d="M1890.88,729.74l.05.15.05.15.1.31.11.3.11.3.24.61.12.31.12.31-.33.66-.66-.31-.1-.31-.1-.32-.21-.63-.1-.32-.1-.32-.09-.33-.04-.17-.04-.16.32-.56.56.32Z"/><path class="h" d="M1819.51,730.13l.19.85-.2.42-.25.51-.25.51-.25.51-.25.5-.26.5-.26.5-.06.11-.21.38-.27.5-.27.5-.27.5-.28.49-.28.49-.28.49-.28.49-.28.49-.29.49-.17.29-.12.2-.29.48-.3.48-.3.48-.3.48-.3.48-.3.48-.31.48-.31.48-.31.48-.32.47-.32.47-.32.47-.27.4-.05.07-1.92.33-.33-1.92.05-.07.28-.38.33-.45.32-.45.32-.45.32-.45.32-.46.31-.46.31-.46.31-.46.31-.46.3-.46.3-.46.3-.46.12-.19.18-.27.3-.47.3-.46.3-.47.29-.47.29-.47.29-.47.29-.48.29-.48.29-.48.22-.37.07-.11.29-.48.29-.48.29-.48.28-.48.28-.48.28-.48.23-.4.81-.32.61-.19.19.61Z"/><path class="h" d="M1840.94,658.2l-.15.93-.07.18-.43,1.01-.44,1-.45,1-.45,1-.46,1-.46.99-.22.47-.25.52-.49.98-.5.98-.5.97-.5.97-.51.97-.51.97-.52.96-.51.93-.02.03-.55.95-.55.94-.55.94-.56.94-.38.63-.19.3-.58.93-.58.93-.58.93-.59.92-.56.87-.03.05-.6.92-.6.92-.6.91-.61.91-.61.91-.61.91-1.35.29-.27-1.36.59-.92.58-.92.58-.92.58-.92.58-.92.57-.92.03-.05.54-.87.57-.92.56-.93.56-.93.56-.93.18-.3.38-.63.56-.93.55-.93.55-.93.54-.94.02-.03.54-.9.55-.93.55-.94.54-.94.53-.94.53-.94.52-.95.52-.95.27-.5.25-.45.52-.95.51-.96.51-.96.5-.97.49-.97.48-.97.08-.17.6-.72.6-.23.23.6Z"/><path class="h" d="M1849.2,664.38l.1.95.16.73-.06.23-.21.83-.11.44-.11.38-.24.81-.12.39-.16.41-.32.78-.32.78-.32.78-.33.78-.33.78-.33.77-.3.69-.04.08-.35.77-.35.77-.35.77-.47,1.01-.25.51-.74,1.51-.44.9-.33.6-.81,1.47-.18.32-.66,1.13-.84,1.44v.02s-1.73,2.89-1.73,2.89l-1.91.84-.49-2.03,1.25-3.12v-.02s.64-1.54.64-1.54l.5-1.21.15-.34.67-1.53.27-.62.43-.9.72-1.51.24-.51.49-.99.37-.74.37-.75.36-.75.04-.08.33-.67.37-.74.37-.75.37-.75.36-.75.36-.75.35-.75.18-.39.2-.35.42-.73.19-.34.24-.38.43-.72.12-.2.62-.4.73-.61.59-.25.25.59Z"/><path class="h" d="M1861.28,672.08l.51.53v.39s.04.8.04.8v.15s-.12.62-.12.62l-.16.76-.17.76-.17.76-.17.76-.17.75-.18.75-.18.75-.06.23-.13.52-.19.75-.39,1.49-.27,1.02-.13.47-.42,1.48-.37,1.3-.06.17-.84,2.49-.15.42-.52,1.44-.37,1.04-.15.4-.52,1.44-.51,1.45-1.57.96-.83-1.64.32-1.51.33-1.51.09-.42.25-1.08.35-1.5.1-.43.66-2.54.05-.18.39-1.29.44-1.46.14-.46.32-1,.45-1.46.22-.73.15-.5.07-.22.23-.73.23-.73.22-.73.22-.73.22-.73.21-.73.21-.73.17-.6.07-.13.38-.69.18-.34.69-.25.88.2Z"/><path class="h" d="M1874.16,668.42l.27.03v.53s.02.55.02.55v.56s.01.56.01.56v1.11s0,.56,0,.56v.56s0,.02,0,.02l-.02.53-.02.55-.02.55-.03.55-.04.66-.03.44-.08,1.1-.08.99v.11s-.15,1.09-.15,1.09l-.14,1.1-.16,1.07-.22,1.45-.12.71-.17,1.08-.17,1.08-1.19,1.01-.95-1.23.06-1.1.07-1.1.04-.72.11-1.47.08-1.08.11-1.11.1-1.09v-.11s.13-.98.13-.98l.13-1.08.05-.43.09-.65.07-.54.06-.54.06-.54.06-.51v-.02s.07-.54.07-.54l.06-.54.06-.54.06-.54.05-.54.04-.54.04-.54.04-.51.27-.02,1.41.03Z"/><path class="h" d="M1880.17,652.52l.46.72.12.17.16.58.22.76.22.75.09.29.13.46.21.75.21.75.22.74v.03s.18.72.18.72l.18.75.19.75.19.74.2.74.2.74.21.74.22.73.22.73.23.73.24.73.24.72.25.72.26.72v.02s.26.7.26.7l.27.72.14.36.14.36.14.36.15.36.15.36.15.35.15.36.15.35.16.35.16.35.16.35.16.35.17.35.17.35.17.35.12.24.05.11-.46,1.39-1.39-.46-.06-.11-.12-.24-.18-.36-.18-.36-.18-.36-.17-.36-.17-.36-.17-.36-.17-.36-.17-.36-.16-.37-.16-.36-.16-.37-.15-.37-.15-.36-.15-.37-.15-.37-.29-.73-.28-.72v-.02s-.28-.74-.28-.74l-.27-.74-.26-.74-.25-.74-.24-.74-.24-.75-.23-.75-.22-.75-.22-.75-.21-.75-.21-.76-.2-.76-.2-.76-.19-.73v-.03s-.15-.77-.15-.77l-.14-.78-.14-.78-.08-.48-.04-.3-.11-.79-.11-.79-.08-.6.04-.2.15-.84.36-.54.53.36Z"/><path class="h" d="M1895.5,656l.36.14.41.11.13.02.15.15.22.2.22.19.21.18h0s.29.48.29.48l.3.46.3.46.31.45.32.45.32.45.16.22.16.23.32.45.32.45.33.44.22.29.11.15.32.45.33.45.33.45.2.27.12.18.31.46.32.46.32.46.29.42.03.04.63.94.64.94.2.3.43.65.64.95.64.95-.11,1.64-1.62-.24-.79-.82-.8-.82-.55-.56-.25-.26-.79-.83-.79-.83-.04-.04-.35-.39-.38-.43-.38-.44-.38-.44-.15-.17-.22-.28-.35-.46-.35-.46-.34-.47-.12-.16-.22-.32-.32-.48-.32-.49-.32-.5-.15-.25-.15-.25-.29-.51-.29-.51-.28-.52-.28-.52-.27-.53-.26-.53h0s-.04-.31-.04-.31l-.04-.31-.05-.31-.03-.22.05-.12.15-.41.11-.38.21-.61.61.21Z"/><path class="h" d="M1865.02,630.25l.38.6.41.6.29.4.07.21.22.66.2.63v.03s.2.66.2.66l.19.66.06.23.11.44.16.67.16.67.16.67.15.67.3,1.34.29,1.34.29,1.34.28,1.34.28,1.34.28,1.34.54,2.67.54,2.67-.68,1.1-1.07-.72-.61-2.66-.62-2.65-.31-1.33-.32-1.33-.32-1.32-.32-1.32-.33-1.32-.34-1.31-.17-.66-.17-.66-.18-.65-.18-.65-.12-.43-.06-.23-.17-.66-.17-.66v-.03s-.15-.63-.15-.63l-.15-.66-.05-.21.04-.49.03-.71v-.71s.3-.56.3-.56l.56.3Z"/><path class="h" d="M1879.83,629.93l.02.04.18.25.21.27.16.19.06.07.22.26.13.15.08.11.19.27.13.29.13.29.13.29.14.28.14.28.14.28.05.1.09.19.14.28.14.28.14.28.15.28.15.28.15.28.15.28.15.28.02.03.14.25.16.28.16.28.33.56.34.55.35.56.33.52.03.04-.29,1.44-1.44-.3-.03-.04-.35-.51-.38-.56-.37-.56-.36-.56-.18-.29-.18-.28-.15-.26-.02-.03-.17-.29-.17-.29-.17-.29-.16-.29-.16-.29-.16-.29-.15-.3-.15-.3-.1-.19-.05-.11-.14-.31-.13-.31-.13-.31-.13-.31-.12-.31-.12-.32h0l-.05-.35-.02-.14v-.21s-.02-.36-.02-.36v-.09s0-.27,0-.27v-.36s-.01-.31-.01-.31v-.04s.29-.58.29-.58l.57.29Z"/><path class="h" d="M1811.99,818.72l-.75,1.57-.75,1.56-.75,1.56-.74,1.55-.19.39-.56,1.16-.75,1.54-.75,1.54-.75,1.53-.04.08-.73,1.45-.77,1.52-.77,1.51-.45.87-.34.63-.81,1.49-.81,1.49-.82,1.49-.82,1.48-.42.74-.42.74-.42.74-.42.74-.42.74-.14.25-.29.48-.44.73-.44.73-.44.73-.44.73-.45.73-.45.73-.45.73-.45.72-.45.72-.46.72-.46.72-.46.72-.06.09-.42.61-.49.71-.49.7-.5.71-.5.7-.5.7-.43.6-.07.1-.52.69-.53.69-.53.69-.53.69-.53.69-.35.45-.37.11-.65.23-.54-.02-.73-.54-.19-.51.02-.68v-.38s.3-.46.3-.46l.48-.71.48-.71.47-.72.47-.71.46-.72.07-.1.41-.61.47-.71.47-.71.46-.71.46-.71.46-.71.4-.62.06-.09.48-.7.48-.7.47-.7.47-.7.47-.7.46-.7.46-.7.46-.71.46-.71.46-.71.45-.71.45-.71.3-.47.15-.24.46-.71.45-.71.45-.71.45-.71.45-.71.89-1.43.89-1.43.88-1.44.87-1.44.37-.61.51-.83.89-1.44.88-1.45.83-1.38.04-.07.88-1.46.88-1.46.87-1.47.65-1.1.22-.37.87-1.48.87-1.49.86-1.5.86-1.51.75-.28.2.77Z"/><path class="h" d="M1826.61,805.34l-.07,1.12-.02,1.14.02.84-.07.29-.26,1.07-.26,1.07-.02.1-.3.95-.33,1.05-.34,1.05-.35,1.05-.35,1.05-.36,1.05-.36,1.05-.37,1.04-.37,1.04-.37,1.04-.38,1.04-.35.95-.03.09-.4,1.04-.4,1.03-.4,1.04-.41,1.03-.41,1.03-.42,1.03-.42,1.03-.43,1.03-.43,1.02-.43,1.02-.43,1.02-.44,1.02-.45,1.02-.45,1.02-.07.16-.39.85-.47,1.01-.47,1.01-.47,1-.48,1-.48,1-.48,1-.48,1-.49,1-.49,1-.49.99-.5.99v.02s-.51.96-.51.96l-.51.98-.51.98-.52.98-.52.98-.52.97-.52.97-.53.97-.53.97-.53.97-.24.43-.32.52-.58.94-.58.94-.58.93-.58.94-.84,1.34-.33.51-1.18,1.85-1.18,1.84-1.7.58-.4-1.75.95-1.96.94-1.97.26-.55.68-1.42.47-.99.46-.99.46-.99.46-.99.25-.55.23-.43.51-.97.51-.97.5-.97.5-.97.5-.98.5-.98.5-.98.49-.98.49-.98.48-.96v-.02s.51-.98.51-.98l.5-.98.49-.98.49-.98.49-.99.48-.99.48-.99.48-.99.47-.99.47-.99.46-.99.39-.84.07-.15.47-.99.47-.99.46-.99.46-1,.46-1,.45-1,.45-1,.45-1,.44-1,.43-1,.43-1,.43-1.01.42-1.01.42-1.01.04-.09.38-.92.42-1.01.41-1.01.4-1.01.4-1.02.39-1.02.39-1.02.38-1.02.38-1.02.37-1.02.37-1.02.33-.93.04-.1.42-1,.41-1.01.11-.28.49-.67.62-.95.56-.97.57-.3.3.56Z"/><path class="h" d="M1833.75,830.19l.46,1.56-.4,1.5-.12.47-.63,2.15-.03.08-2.14,5.13-1.07,2.56-1.07,2.56-.92,2.19-.16.36-.55,1.27-.55,1.27-.56,1.27-.56,1.27-.56,1.27-.3.68-.27.59-.58,1.26-.59,1.26-.59,1.26-.59,1.26-.07.15-.57,1.09-.64,1.24-.15.28-.53.95-.68,1.22-.57,1.03-.11.19-.7,1.22-.7,1.22-.7,1.21-1.74.67-.54-1.79.53-1.29.52-1.29.51-1.3.08-.21.43-1.08.5-1.29.39-1,.12-.29.52-1.28.45-1.13.07-.15.55-1.26.55-1.26.55-1.27.54-1.27.25-.59.3-.68.55-1.26.55-1.27.54-1.27.54-1.27.54-1.27.15-.36.94-2.18,1.09-2.55,1.09-2.55,2.18-5.12.03-.08,1.1-1.95.25-.42.8-1.33,1.44-.75.6-.24.24.6Z"/><path class="h" d="M1855.59,825.01v.07s0,1.15,0,1.15l.02,1.03v.2s0,1.23,0,1.23v.14l-.08,1.08-.02.32-.18.87-.24,1.19-.25,1.18-.06.26-.22.92-.29,1.17-.29,1.17-.29,1.17-.04.15-.27,1.02-.31,1.17-.31,1.17-.6,2.24-.02.09-1.35.83-.83-1.35.02-.09.46-2.27.24-1.18.24-1.18.2-1.03.03-.15.24-1.18.24-1.18.24-1.18.18-.92.06-.26.26-1.17.25-1.17.19-.87.11-.3.35-1.02.05-.13.47-1.13.07-.19.4-.94.41-1.07.03-.07.53-.37.37.53Z"/><path class="h" d="M1878.24,796.96l.29.18.05.45.07.61.08.61.05.34v.26s-.04.6-.04.6l-.02.6-.02.6-.02.6-.02.6-.02.6-.03,1.2-.02,1.2v1.21s-.02,1.21-.02,1.21v1.85s0,.57,0,.57v1.21s.01,1.21.01,1.21v1.21s.03,1.21.03,1.21l.02,1.1v.12l.02,1.21.02,1.21.02,1.21.03,1.22v.56s.01.66.01.66v3.52s0,.13,0,.13l-.03,2.43-.02,2.04v.39s-.05,2.42-.05,2.42l-.04,2.42-1.47,1.66-1.56-1.58-.17-2.41-.18-2.42-.03-.39-.13-2.03-.15-2.44v-.13s-.11-2.31-.11-2.31l-.05-1.22-.02-.66v-.56s-.02-1.23-.02-1.23v-1.23s0-1.23,0-1.23v-1.35l.02-1.11.02-1.23.03-1.23.03-1.23.04-1.23.02-.58.03-.65.06-1.23.07-1.23.07-1.23.08-1.22.09-1.22.05-.61.05-.61.05-.61.06-.61.06-.61.06-.61.03-.27.1-.33.18-.6.17-.6.13-.44.32-.12,1.74.15Z"/><path class="h" d="M1856.69,793.21v.07s0,2.29,0,2.29v1.69s-.02.83-.02.83v.07s-.08.68-.08.68l-.3,1.49-.46,1.95-.16.61-.99,3.84-.23.84-1.23,4.57-.02.09-1.59,1-1-1.6.02-.09.88-4.66.16-.85.79-3.89.13-.61.44-1.95.39-1.47.23-.65.02-.06.33-.76.75-1.52,1.01-2.06.03-.06.55-.34.34.55Z"/><path class="h" d="M1897.47,795.2v.08s.05.38.05.38l.06.46.07.46.09.46.06.26.03.2.09.46.1.46.08.37v.09s.07.45.07.45l.06.45.03.19v.26s-.01.45-.01.45v.45s-.01.45-.01.45v.45s0,.35,0,.35v.1s0,.45,0,.45v.45s0,.45,0,.45v1.34s.01.58.01.58v.32s.01.89.01.89v.9s.04.9.04.9l.03.9.04.9.04.9.05.9.05.9.04.56.02.34.06.9.06.9.06.9.07.9.07.9.07.9.07.9.16,1.82.15,1.67v.14s-1.14,1.45-1.14,1.45l-1.44-1.16-.02-.14-.22-1.67-.23-1.82-.11-.91-.11-.91-.11-.91-.11-.91-.1-.91-.1-.91-.09-.91-.03-.34-.05-.57-.08-.91-.07-.92-.07-.92-.06-.92-.06-.92-.05-.92-.04-.92-.03-.92v-.32s-.02-.6-.02-.6v-.92s0-.46,0-.46v-.92s0-.46,0-.46v-.46s.03-.46.03-.46l.02-.46.02-.46.02-.46.02-.27.04-.19.11-.46.11-.46.02-.09.13-.37.15-.45.15-.45.07-.19.09-.26.16-.45.15-.45.15-.45.12-.37.02-.08.5-.41.41.5Z"/><path class="h" d="M1910.88,788.7l.04.06.38.51.46.55.03.04.42.51.48.54.25.28.14.3.29.61.29.61.17.37.11.25.27.62.28.62.28.61.28.61.03.06.25.56.28.62.28.61.28.61.29.61.29.61.29.61.29.61.24.5.05.11.29.61.29.61.3.61.3.61.3.61.3.61.31.61.3.61.31.6.31.6.32.6.21.41.1.19.31.6.31.6.31.6.32.6.32.6.32.6v.02s.31.58.31.58l.32.6.32.6.32.6.32.6.29.53.04.07.3.61.3.61.31.6.31.6.31.6.12.24.18.37.3.61.31.6.31.6.31.6.32.6.22.41.1.19.32.6.32.6.32.6.32.6.32.59.33.59.33.59-.31,1.64-1.62-.37-.41-.55-.41-.55-.41-.55-.41-.55-.41-.55-.41-.55-.4-.55-.13-.18-.27-.38-.4-.56-.4-.56-.4-.56-.39-.57-.39-.57-.24-.34-.15-.23-.38-.58-.38-.58-.37-.58-.37-.58-.37-.58-.04-.07-.31-.53-.35-.6-.35-.6-.34-.6-.34-.6-.32-.58v-.02s-.34-.61-.34-.61l-.32-.61-.32-.61-.32-.61-.32-.61-.32-.62-.1-.2-.2-.42-.3-.62-.3-.62-.3-.63-.29-.63-.29-.63-.29-.63-.29-.63-.29-.63-.29-.63-.28-.63-.28-.63-.05-.11-.22-.53-.27-.64-.27-.64-.26-.64-.26-.64-.26-.64-.26-.64-.25-.64-.23-.58-.02-.06-.24-.65-.24-.65-.23-.65-.23-.65-.09-.26-.12-.39-.2-.66-.2-.66-.1-.32v-.38s0-.73,0-.73l-.02-.67v-.77s-.05-.64-.05-.64v-.07s.27-.58.27-.58l.58.27Z"/><path class="h" d="M1849.49,855.06v.08s.1,1.93.1,1.93l.06.56.12,1.46.05.43.04.89-.03.68v.07s-.29,1.79-.29,1.79v.06s-.38,1.9-.38,1.9l-.05.25-.37,1.65-.78,3.46-.08.31-.94,3.76-.94,3.75-.31,1.25-.48,1.54-.32.92-.38,1.12-.88,2.56-1.9,1.43-1.08-2.12.33-2.69.15-1.17.12-.97.25-1.59.27-1.26.81-3.78.81-3.78.07-.32.81-3.45.38-1.64.06-.24.48-1.87.02-.06.51-1.73.03-.07.26-.63.42-.78.23-.37.73-1.27.29-.48.89-1.71.03-.07.54-.35.35.54Z"/><path class="h" d="M1873.06,851.11l.31.74.3.53.02.2.09.72.11.71.04.24-.03.46-.04.71-.04.71-.03.71-.03.71-.02.71-.02.71-.02.71-.02.71v.71s-.04,1.43-.04,1.43l-.02,1.43v1.43s-.01.04-.01.04l-.03,2.84-.02,1.44-.02,1.44-.03,1.44-.02.72-.02.6v.12s-1.46,1.4-1.46,1.4l-1.4-1.46v-.71s.01-.71.01-.71v-2.86s-.02-1.43-.02-1.43l-.02-2.83v-1.48s0-1.44,0-1.44v-1.45s.02-.73.02-.73v-.72s.02-.73.02-.73l.02-.73.02-.73.02-.73.02-.73.03-.73.04-.73.03-.48.07-.24.2-.72.2-.71.06-.2.38-.49.44-.68.49-.41.41.5Z"/><path class="h" d="M1896.35,841.55l.27.39.33.38.05.05.06.33.07.38.07.38.08.38.05.21v.17s.03.38.03.38l.02.38.02.38.03.37.03.38.03.37.04.37.04.37.04.37.04.37.04.37.04.37.05.37.1.75.11.74.12.74.12.74v.02s.12.72.12.72l.13.74.14.74.14.74.15.74.15.74.16.74.17.74.17.74.18.74.19.74.07.27.08.48.13.75.14.75.14.75.03.16.1.6.13.76.14.76-1.14,2.06-2.02-1.22-.27-.74-.26-.74-.2-.58-.05-.16-.24-.75-.24-.75-.23-.75-.15-.48-.06-.28-.16-.77-.15-.77-.15-.77-.15-.77-.14-.77-.14-.77-.13-.77-.12-.77-.12-.78-.11-.78-.1-.75v-.03s-.09-.78-.09-.78l-.08-.78-.07-.78-.06-.78-.03-.4-.03-.39-.02-.39-.02-.4-.02-.39-.02-.4v-.4s-.03-.4-.03-.4v-.4s-.02-.4-.02-.4v-.4s0-.4,0-.4v-.58l.04-.22.07-.4.07-.4.07-.4.06-.34.05-.06.33-.39.29-.39.66-.63.64.66Z"/><path class="h" d="M1916.62,831.78h0s.14.4.14.4l.14.39.14.39.14.39.14.38.15.38h0s.12.39.12.39l.13.39.13.39.13.39.14.39.14.38.14.38.14.38.14.38.29.77.3.76.31.76.27.66.04.1.31.76.32.76.33.76.33.75.34.75.34.75.35.74.36.74.36.74.07.14.27.61.34.75.35.75.15.32.2.43.34.76.35.76.34.73v.02s.36.76.36.76l.35.75.36.76.36.75-.59,2.16-2.14-.65-.45-.72-.45-.72-.45-.72-.44-.73v-.02s-.43-.71-.43-.71l-.43-.73-.43-.73-.24-.43-.17-.32-.4-.75-.4-.75-.32-.61-.07-.15-.36-.77-.36-.77-.35-.77-.35-.78-.34-.78-.33-.78-.33-.79-.32-.79-.32-.79-.04-.11-.26-.69-.29-.8-.29-.81-.28-.81-.14-.41-.14-.41-.13-.41-.13-.41-.13-.41-.12-.41-.12-.41-.12-.41-.12-.4h0s-.1-.43-.1-.43l-.09-.42-.09-.42-.09-.42-.09-.42-.09-.42h0s.56-.58.56-.58l.47-.14.88-.23.48-.11.77.2Z"/><path class="h" d="M1802.83,878.92l-.26.8-.24.81-.24.82-.22.82-.21.83-.09.39-.2.4-.38.74-.38.74-.24.44-.16.29-.41.72-.41.72-.38.65-.04.06-.43.7-.43.7-.44.7-.44.69-.45.69-.45.69-.45.69-.46.68-.46.68-.46.68-.46.68-.47.67-.47.67-.47.67-.48.67-.48.66-.48.66-.31.43-.17.24-.49.66-.5.65-.5.65-.5.65-.5.65-.5.64-.51.64-.51.64-.51.64-.51.64-.07.09-.45.54-.52.63-.52.63-.52.63-.53.63-.53.63-1.06,1.25-.27.32-.83.9-1.12,1.2-.35.37-.79.82-1.15,1.18-1.01,1.04-.14.14-1.16,1.17-1.16,1.17-1.16,1.17-1.79.17-.04-1.79,1.03-1.29,1.02-1.29,1.01-1.29.12-.15.89-1.13,1.01-1.28.69-.89.32-.39,1.02-1.27.75-.95.27-.32,1.05-1.24.52-.62.52-.62.52-.62.51-.63.51-.63.43-.54.07-.09.51-.62.51-.63.51-.63.5-.63.5-.63.5-.63.5-.63.5-.63.49-.64.49-.64.17-.23.32-.41.49-.64.48-.64.48-.64.48-.65.48-.65.47-.65.47-.65.46-.66.46-.66.46-.66.45-.66.45-.67.45-.67.45-.67.44-.67.44-.68.43-.68.04-.06.4-.61.44-.68.43-.68.17-.27.27-.41.44-.68.44-.68.23-.37.28-.27.59-.6.57-.62.55-.63.53-.65.51-.66.61-.19.19.61Z"/><path class="h" d="M1816.18,893.2l.16.67v.17s-.04.75-.04.75v.53s-.09.19-.09.19l-.29.63-.29.62-.29.62-.3.61-.3.61-.3.61-.3.61-.3.6-.31.6-.31.6-.31.6-.32.59-.29.54-.03.05-.33.58-.33.58-.33.58-.33.58-.34.57-.34.57-.34.57-.34.57-.23.38-.12.19-.35.56-.36.56-.36.55-.36.55-.37.55-.37.55-.37.55-.37.55-.02.02-.37.51-.39.53-.39.53-.39.53-.39.53-.4.53-.4.53-.8,1.05-.13.17-.69.87-.83,1.04-.83,1.04-.84,1.04-.84,1.04-.23.28-.63.76-.87,1.03-.87,1.03-.88,1.04-.89,1.04-.89,1.04-1.8.24-.17-1.8.82-1.1.81-1.09.8-1.09.79-1.08.79-1.08.57-.79.21-.29.77-1.07.77-1.07.76-1.07.75-1.08.62-.9.12-.17.75-1.07.37-.53.37-.54.37-.53.36-.54.36-.54.36-.54.34-.51.02-.02.37-.53.37-.53.36-.53.36-.54.36-.54.35-.54.35-.54.35-.54.11-.18.24-.36.35-.54.35-.54.35-.55.35-.55.35-.55.34-.55.34-.55.34-.56.03-.05.32-.51.34-.56.34-.56.34-.56.33-.57.33-.57.33-.57.33-.58.33-.58.32-.58.32-.58.32-.59.32-.59.1-.19.41-.32.57-.48.12-.11.62-.29.61-.22.21.61Z"/><path class="h" d="M1829.43,906.7l-.02.09-.43,1.75-.12.52-.17.79-.25.91-.28.6-1,2.14-1,2.14-.17.37-.85,1.76-.52,1.06-.52,1.06-.53,1.06-.53,1.06-.53,1.06-.07.13-.48.92-.55,1.05-.56,1.05-.56,1.05-.57,1.04-.57,1.04-.58,1.04-.59,1.04-.59,1.03-.6,1.03-.3.51-.3.51-.31.51-.31.51v.02s-.35.47-.35.47l-.35.48-.35.48-.36.48-.36.48-.23.31-.13.17-.37.47-.37.47-.37.47-.38.47-1.89.4-.33-1.91.29-.52.29-.51.28-.52.28-.52.1-.18.19-.33.28-.51.28-.51.28-.52.27-.52.26-.5v-.02s.32-.5.32-.5l.31-.5.3-.5.3-.5.6-1,.6-1,.59-1.01.58-1.01.58-1.02.58-1.02.57-1.02.56-1.03.56-1.03.48-.9.07-.13.56-1.03.56-1.03.56-1.04.55-1.04.55-1.04.91-1.72.2-.36,1.13-2.07,1.12-2.08.31-.58.58-.74.53-.61.34-.41,1.15-1.39.06-.07.61-.2.2.61Z"/><path class="h" d="M1851.94,904.38l.45.64-.04.42-.09.91-.03.33-.16.54-.26.85-.26.85-.27.85-.27.84-.27.84-.28.84-.28.84-.28.84-.29.84-.19.53-.11.31-.3.83-.31.83-.31.83-.31.83-.31.83-.32.83-.32.83-.32.82-.32.82-.32.82-.24.59-.1.23-.71,1.56-.02.05-.77,1.59-.27.54-.52,1.05-.79,1.58-1.78.8-.66-1.84.59-1.66.38-1.1.2-.56.58-1.66.02-.06.59-1.59.09-.24.24-.58.34-.81.34-.81.33-.81.33-.81.33-.81.33-.81.32-.81.32-.81.32-.82.32-.81.11-.3.2-.51.32-.81.32-.82.31-.82.31-.82.31-.82.3-.82.3-.82.3-.82.29-.83.18-.53.17-.28.45-.77.2-.36.74-.27.87.27Z"/><path class="h" d="M1877.73,895.13l.75,1.59.15,1.74.03.27-.21,1.27-.25,1.52-.25,1.52-.25,1.53-.17,1.08-.08.44-.26,1.52-.25,1.52-.11.67-.15.85-.14.76-.13.76-.13.76-.04.22-.13.54-.18.75-.12.52-.06.23-.2.75-.19.75-.11.43-.09.32-.2.75-.19.75-.19.75-1.7,1.4-1.3-1.78v-.78s.02-.79.02-.79v-.79s.01-.34.01-.34l.02-.45.02-.79.03-.79v-.25s.05-.54.05-.54l.06-.78.05-.56.03-.22.12-.77.12-.77.12-.77.14-.86.12-.68.28-1.53.29-1.53.08-.44.23-1.08.32-1.52.32-1.52.33-1.52.27-1.26.13-.24.79-1.56,1.29-1.2.53-.36.36.53Z"/><path class="h" d="M1907.27,881.76l.25.76.22.49v.26s.03.72.03.72l.04.72v.19s-.06.51-.06.51l-.09.7-.08.7-.07.7-.07.7-.07.71-.06.71-.06.71-.05.71-.05.71-.04.71-.04.71-.04.71-.03.71-.03.71-.03.71v.02l-.03.7-.03.71-.02.71-.02.71-.04,1.43-.03,1.43-.02,1.43-.02,1.31v.12s-1.34,1.32-1.34,1.32l-1.32-1.33v-1.43s-.01-1.44-.01-1.44v-1.44s.01-1.44.01-1.44v-.73s.02-.73.02-.73v-.73s.02-.71.02-.71v-.02l.02-.73.02-.73.02-.73.03-.73.03-.73.04-.73.04-.73.05-.73.05-.73.06-.73.06-.73.07-.73.07-.73.08-.73.08-.73.06-.53.06-.19.23-.71.23-.7.09-.25.36-.41.48-.65.52-.38.38.52Z"/><path class="h" d="M1796.5,939.94l-.03.09-.21.67-.23.77-.02.07-.22.71-.22.78-.09.34-.21.4-.38.69-.24.44-.14.24-.4.68-.4.68-.41.67-.07.11-.35.55-.42.66-.43.66-.43.66-.43.65-.44.65-.21.32-.24.33-.46.63-.46.63-.47.63-.47.63-.47.63-.48.63-.48.62-.48.62-.48.62-.48.61-.49.61-.49.61-.49.61-.49.61-.49.61-.5.6-.5.61-1,1.2-1,1.2-1.01,1.19-1.01,1.19-1,1.17-.02.02-1.02,1.18-1.02,1.18-2.05,2.35-2.04,2.35-1.02,1.17-1.02,1.17-1.01,1.18-.85.99-.16.19-1.66.15-.15-1.66.16-.19.83-1.01.99-1.2.99-1.2,1-1.2,1.99-2.39,1.99-2.39.99-1.2.99-1.2.02-.02.97-1.18.99-1.2.98-1.2.97-1.21.97-1.21.48-.6.48-.61.48-.61.48-.61.47-.61.47-.61.47-.61.47-.61.46-.62.46-.62.46-.62.45-.62.45-.63.45-.63.45-.63.44-.63.44-.63.22-.32.22-.3.45-.63.45-.63.44-.63.44-.63.44-.63.36-.53.07-.11.43-.63.43-.64.43-.64.15-.23.28-.4.44-.64.24-.36.25-.24.57-.56.5-.53.05-.05.55-.58.46-.52.06-.07.62-.17.17.62Z"/><path class="h" d="M1808.92,949.35l1.33.8.28.37-.18.33-.26.49-.27.48-.27.49-.27.48-.27.48-.27.48-.12.2-.17.27-.3.46-.3.46-.3.46-.31.46-.31.46-.31.46-.31.45-.32.45-.63.9-.64.9-.65.9-.65.89-.66.89-.66.88-.67.88-.67.87-.68.87-.68.87-.68.87-.68.86-.69.86-.69.86-.69.85-.69.86-1.38,1.7-1.39,1.7-1.38,1.69-1.38,1.69-2.25.2-.22-2.25,1.4-1.67,1.4-1.67,1.4-1.67,1.4-1.68.7-.84.7-.84.69-.84.69-.84.69-.85.69-.85.68-.85.68-.85.67-.85.67-.86.66-.86.66-.86.65-.87.64-.87.64-.87.63-.88.31-.44.31-.44.31-.44.31-.45.31-.45.3-.45.3-.45.3-.45.17-.26.14-.18.32-.44.32-.44.31-.44.31-.44.31-.45.31-.45.21-.31.46.08Z"/><path class="h" d="M1823.91,955.02l-.03.09-.23.68-.17.51-.09.27-.25.78-.25.78-.07.24-.19.54-.26.77-.26.77-.13.39-.15.38-.29.76-.05.12-.28.61-.26.58-.08.15-.38.71-.38.71-.09.17-.3.52-.41.69-.41.69-.15.26-.27.43-.43.68-.43.68-.43.68-.44.68-.44.67-.44.67-.19.29-.26.38-.46.66-.46.66-.46.66-.46.66-.47.66-.47.66-.47.66-.47.65-2.22.44-.41-2.23.43-.68.43-.68.43-.67.42-.68.42-.68.42-.68.41-.68.41-.68.23-.38.18-.29.41-.67.41-.67.41-.68.4-.68.4-.68.4-.68.25-.42.15-.25.41-.67.4-.68.3-.51.1-.16.42-.67.42-.67.09-.14.36-.51.38-.55.08-.1.48-.64.24-.32.26-.31.51-.63.5-.63.34-.45.15-.19.51-.64.49-.64.17-.23.32-.42.42-.58.06-.07.61-.2.2.61Z"/><path class="h" d="M1843.05,954.3v.07s.04.85.04.85v.07s.04.86.04.86l.02.26-.15.62-.21.86-.21.86-.22.86-.22.86-.22.86-.23.86-.04.15-.2.7-.24.86-.24.85-.25.85-.25.85-.25.85-.25.85-.51,1.69-.29.97-.22.73-.53,1.69-.53,1.69-.53,1.69-.53,1.68-1.03,3.23-.04.13-1.47.76-.76-1.47.04-.13,1.03-3.23.54-1.68.53-1.68.53-1.68.52-1.68.22-.72.3-.96.52-1.69.25-.84.25-.84.25-.84.25-.84.25-.84.25-.84.2-.7.04-.15.25-.84.24-.84.24-.84.24-.85.23-.85.23-.85.16-.61.14-.22.43-.74.04-.06.43-.73.03-.06.55-.33.33.55Z"/><path class="h" d="M1827.47,983.62l.3.38v.04s-.07.35-.07.35l-.12.69-.13.69-.14.68-.15.68-.15.68-.16.68-.17.67-.04.15-.14.51-.19.66-.2.66-.2.66-.21.66-.22.65-.22.65-.23.65-.23.64-.24.64h0s-.25.64-.25.64l-.26.63-.27.63-.27.63-.28.63-.28.62-.29.62-.29.62-.29.62-.3.61-.17.34-.14.27-.32.61-.32.6-.32.6-.32.6-.33.6-.03.05-.31.54-.34.59-.35.58-.35.59-.35.58-.19.32-.17.26-.37.57-.37.57-.37.57-.38.57-.76,1.13-.23.34-.54.78-.78,1.11-.78,1.11-.79,1.11-.25.36-.53.74-1.58,2.2-.79,1.1-.79,1.1-1.69.4-.32-1.71.69-1.17.69-1.17,1.38-2.33.46-.79.23-.38.69-1.16.68-1.16.68-1.16.47-.81.21-.35.68-1.16.33-.58.33-.58.33-.58.33-.58.15-.27.19-.31.33-.57.33-.57.33-.58.33-.58.3-.53.03-.05.33-.57.33-.57.32-.58.32-.58.32-.58.14-.26.18-.32.32-.58.31-.58.31-.58.3-.58.3-.58.29-.59.29-.59.29-.59.28-.59.27-.59h0s.28-.6.28-.6l.27-.6.27-.6.26-.6.26-.61.25-.61.24-.61.24-.62.23-.62.17-.48.05-.14.23-.62.22-.63.22-.63.21-.64.2-.64.19-.64.19-.65.09-.32v-.04s.44-.21.44-.21l1.44.31Z"/><path class="h" d="M1854.18,965.34l-.04.18-.11.48-.15.66-.15.66-.15.66-.16.66-.15.66-.16.66-.16.66-.1.41-.23.9-.34,1.31-.35,1.3-.13.48-.24.81-.39,1.29-.39,1.28-.13.42-.3.85-.45,1.26-.46,1.26-.46,1.25-.48,1.25-.48,1.24h0s-.5,1.25-.5,1.25l-.51,1.24-.51,1.24-.52,1.24-.53,1.23-.53,1.23-.54,1.23-.12.27-.43.96-.56,1.22-.56,1.22-.57,1.22-.57,1.22-.58,1.22-.59,1.22-.59,1.22-.5,1.03-.09.19-1.37.49-.48-1.37.09-.19.48-1.04.56-1.23.55-1.23.55-1.23.54-1.23.53-1.23.53-1.23.52-1.23.41-.96.11-.27.51-1.23.51-1.23.5-1.23.5-1.23.49-1.23.48-1.23.48-1.24h0s.48-1.23.48-1.23l.48-1.24.47-1.24.46-1.24.46-1.25.3-.84.16-.41.49-1.24.48-1.24.3-.79.19-.46.5-1.24.48-1.25.33-.86.15-.39.24-.63.24-.63.24-.63.24-.63.23-.63.23-.64.23-.64.16-.47.06-.17.56-.31.31.56Z"/><path class="h" d="M1864.63,950.84l.55,1.16.02,1.46.04,1.83v.77s.03,2.6.03,2.6l.02,1.26v1.35s.02,1.3.02,1.3l.02,1.3.02,1.3.02,1.3.03,1.3.03,1.3v.03l.03,1.27.04,1.3.04,1.3.04,1.3.02.46.02.84.03,1.3.04,1.3.04,1.3.04.89v1.7s.02,1.3.02,1.3v.32s.01.98.01.98v1.3s.04,1.3.04,1.3v.42s.02.88.02.88l.03,1.3.04,1.3.05,1.3-.92,1.16-1.1-.98-.17-1.3-.17-1.3-.16-1.3-.11-.88-.05-.42-.14-1.3-.14-1.31-.1-.99-.03-.32-.11-1.31-.1-1.31-.03-.41-.03-.9-.04-1.31-.04-1.31-.03-1.31-.02-.85v-.46s0-1.31,0-1.31v-1.31s.01-1.31.01-1.31v-1.28s.01-.02.01-.02l.02-1.31.02-1.31.02-1.31.03-1.31.03-1.31.04-1.31.04-1.31v-.05s.05-1.26.05-1.26l.1-2.61.03-.77.11-1.83.08-1.46.59-1.13.46-.45.45.46Z"/><path class="h" d="M1862.29,920.66v.08s-.07.59-.07.59l-.06.67-.04.6v.07s-.05.67-.05.67l-.03.57v.1s-.08.66-.08.66l-.02.26-.08.39-.13.64-.12.64-.12.64-.11.64-.11.64-.07.44-.04.2-.11.64-.11.64-.1.64-.1.64-.09.64-.09.64-.09.64-.08.65-.02.19-.06.45-.07.65-.07.65-.07.65-.06.66-.06.66-.06.66-.06.66-.05.66-.05.67-.04.57v.11s-1.18,1.05-1.18,1.05l-1.05-1.17v-.11s.03-.58.03-.58l.04-.68.04-.68.04-.68.05-.67.05-.67.05-.67.06-.67.06-.66.06-.67.05-.46.02-.2.08-.66.08-.66.09-.66.09-.66.09-.66.1-.66.1-.66.11-.66.04-.21.09-.45.13-.65.14-.65.14-.65.14-.65.15-.65.09-.4.09-.25.23-.64.03-.09.23-.53.27-.63.03-.07.25-.56.28-.63.24-.55.03-.08.56-.32.32.56Z"/><path class="h" d="M1884.68,935.98l.42.09.3.22.04.25.09.51.1.5.06.29v.22s-.02.5-.02.5v.5s-.02.5-.02.5v.5s0,.5,0,.5v.5s0,.5,0,.5v.5s.01.5.01.5v.5s.02.5.02.5l.02.5v.35s.01.15.01.15v.5s.02.5.02.5v.5s.05,1.01.05,1.01l.04,1,.05,1,.06,1.01.06,1.01.07,1.01.04.56.02.44.05,1.01.06,1.01.06,1.01.07,1.01.07,1.01.08,1.01.08,1.01.08,1.01.08,1.01v.15s.16,1.87.16,1.87l.16,2.02.17,2.01-1.27,1.64-1.59-1.33-.27-2-.27-2.01-.25-1.87-.02-.15-.12-1.02-.12-1.01-.12-1.02-.12-1.02-.11-1.02-.11-1.02-.11-1.02-.1-1.02-.1-1.02-.04-.45-.04-.58-.06-1.03-.05-1.03-.05-1.03-.04-1.03-.03-1.03-.02-1.03v-.52s-.02-.52-.02-.52v-.51s0-.15,0-.15v-.37s.01-.51.01-.51v-.52s.02-.51.02-.51v-.52s.03-.51.03-.51l.02-.51.02-.52.02-.51.03-.51.03-.51.04-.51.04-.51.02-.22.09-.29.16-.51.16-.5.07-.25.32-.18.43-.02.91.06Z"/><path class="h" d="M1890.16,883.68l.03.22.18,1.34.22,1.56.23,1.56.19,1.23.05.32.24,1.56.24,1.56.09.56.14,1,.22,1.56.14.92.07.64.19,1.57.19,1.56.2,1.57.2,1.56.21,1.56.11.76.11.8.22,1.56.22,1.56.11.78.12.78.12.78.12.78.12.78.12.78.13.77.13.78.13.77.14.78.07.42.06.35.14.77.14.77.14.77.14.77.15.77.15.77.15.77.15.77.15.77.16.77.16.77.16.77.17.77.17.76.17.76.17.76.18.76.18.76.12.52.06.24-.68,1.15-1.14-.69-.06-.24-.14-.52-.2-.76-.19-.77-.19-.77-.19-.77-.19-.77-.18-.77-.18-.77-.18-.77-.18-.77-.17-.77-.17-.77-.17-.77-.17-.77-.17-.78-.16-.77-.16-.78-.16-.78-.15-.78-.07-.35-.08-.42-.15-.78-.15-.78-.14-.78-.14-.78-.14-.78-.14-.78-.14-.78-.13-.78-.13-.78-.13-.79-.25-1.57-.25-1.57-.12-.81-.11-.77-.22-1.57-.21-1.57-.2-1.57-.2-1.57-.19-1.57-.07-.64-.07-.94-.12-1.58-.07-1.02-.03-.56-.08-1.58-.07-1.58-.02-.33-.04-1.25-.05-1.58-.05-1.57-.05-1.36v-.22s.5-.6.5-.6l.6.5Z"/><path class="h" d="M1913.03,937.07l.04.05.24.29.29.33.31.32.33.31.02.02.3.29.33.31.34.3h.01s.27.32.27.32l.29.32.15.16.09.17.2.35.2.35.13.22.07.13.19.35.19.35.19.35.1.17.09.18.18.36.19.35.19.35.19.35.19.35.19.35.2.35.2.35.12.2.08.14.19.35.19.35.2.35.2.35.2.34.2.34.2.34.2.34.21.34.21.34.21.34.22.33.22.33.22.33.22.33.22.33.23.33.04.05.18.29.22.33.22.33.22.33.22.33.23.33.1.14.12.19.22.34.23.33.23.33.23.33.24.33.24.33.06.09.17.24.24.33.24.33.24.33.25.33.25.33.25.32.26.32v1.89s-1.88-.05-1.88-.05l-.32-.28-.33-.28-.32-.29-.32-.29-.32-.29-.32-.29-.32-.29-.23-.21-.09-.08-.31-.3-.31-.3-.3-.3-.3-.3-.3-.31-.3-.31-.17-.18-.12-.14-.29-.32-.29-.32-.28-.32-.28-.32-.28-.33-.23-.28-.04-.05-.26-.34-.25-.34-.25-.34-.25-.34-.25-.35-.25-.35-.24-.35-.24-.35-.24-.35-.24-.35-.23-.35-.23-.36-.23-.36-.23-.36-.22-.36-.22-.37-.22-.36-.09-.15-.12-.22-.2-.37-.2-.38-.2-.38-.2-.38-.2-.38-.19-.38-.19-.38-.19-.38-.09-.19-.09-.2-.17-.39-.17-.39-.17-.4-.06-.14-.09-.26-.15-.4-.14-.4-.07-.2-.02-.23-.04-.45-.05-.43v-.02s.02-.47.02-.47v-.46s0-.43,0-.43v-.03s.02-.46.02-.46v-.46s-.01-.45-.01-.45l-.02-.38v-.06s.26-.59.26-.59l.59.26Z"/><path class="h" d="M1907.95,963.1l.42.34.35.25.15.28.33.61.34.6.35.6.35.6.36.59.37.59.37.58.38.58.38.57.39.57.23.33.16.24.39.56.4.56.4.56.41.55.42.55.42.55.35.45.07.1.42.55.43.54.43.54.44.53.44.53.45.53.33.38.12.15.44.53.45.53.45.53.46.52.46.52.46.51.47.51.47.51.48.51.45.46.04.04.48.51.48.5.49.5.49.5.5.49.5.49.5.49.51.48.51.48.51.48.51.47.52.47.12.1.4.37.52.47.53.46.53.46.53.46.53.45.53.45.54.45.54.45.54.44.54.44.54.44.55.43.55.43.55.43.22,1.39-1.4.2-.58-.4-.58-.4-.58-.41-.57-.41-.58-.41-.57-.42-.57-.42-.57-.42-.57-.43-.57-.43-.57-.43-.56-.44-.56-.44-.56-.44-.43-.35-.12-.1-.55-.45-.55-.45-.55-.46-.55-.46-.55-.47-.54-.47-.54-.47-.54-.48-.53-.48-.53-.48-.53-.49-.52-.49-.04-.04-.48-.46-.51-.5-.51-.51-.51-.51-.5-.52-.5-.52-.5-.52-.49-.53-.49-.53-.48-.53-.13-.15-.33-.4-.46-.56-.45-.56-.45-.56-.44-.57-.44-.57-.43-.58-.08-.1-.34-.48-.41-.59-.41-.59-.4-.6-.4-.6-.39-.61-.38-.61-.15-.25-.22-.37-.36-.62-.36-.63-.35-.63-.34-.63-.33-.64-.33-.64-.32-.64-.32-.65-.31-.65-.3-.66-.14-.3v-.44s.01-.55.01-.55l.2-.34.82-.39.39.05Z"/><path class="h" d="M1900.43,970.96l.04.04.63.6.25.24.56.5.25.44.59,1.03.58,1,.02.03.29.51.29.51.29.51.29.51.29.5.3.5.15.26.14.24.29.5.29.5.29.5.3.49.3.49.3.49.3.49.3.48.31.48.31.48.31.47.32.47.32.47.32.46v.02s.31.45.31.45l.32.46.32.46.33.46.33.45.33.45.33.45.17.23.16.22.34.45.34.44.35.44.35.43.36.43.36.43.37.42.18.2.19.22.37.42.38.42.38.42.39.41.4.41.4.4.41.4.41.39.42.39.42.39.43.38.44.38.13.11.29.3.42.41.43.4.44.4.45.39.46.39.47.38.27,1.13-1.14.19-.55-.3-.55-.3-.54-.31-.53-.31-.53-.32-.53-.32-.37-.23-.14-.11-.49-.37-.48-.38-.47-.38-.47-.38-.46-.39-.46-.39-.45-.4-.44-.4-.44-.41-.43-.41-.43-.42-.42-.42-.22-.22-.19-.2-.41-.43-.4-.43-.4-.44-.39-.44-.38-.45-.38-.45-.38-.45-.18-.22-.19-.24-.36-.46-.36-.47-.35-.47-.35-.47-.34-.48-.34-.48-.32-.46v-.02s-.33-.49-.33-.49l-.32-.5-.32-.5-.31-.5-.3-.5-.3-.51-.3-.51-.3-.51-.3-.51-.29-.51-.29-.52-.29-.52-.28-.52-.28-.53-.13-.25-.14-.28-.27-.53-.27-.53-.26-.54-.26-.54-.26-.54-.26-.54v-.03s-.49-1.07-.49-1.07l-.48-1.1-.2-.46-.06-.75-.04-.34-.09-.87v-.06s.2-.61.2-.61l.61.21Z"/><path class="h" d="M1883.11,981.12l.04.07.32.53.38.59.05.07.33.51.38.58.2.29.14.3.28.61.29.61.18.37.1.24.28.61.28.61.25.54.03.07.28.6.29.61.29.6.3.6.3.6.3.59.3.59.07.13.24.46.31.59.31.59.32.59.32.59.32.59.33.58.19.32.12.27.29.61.3.61.3.61.09.18.21.43.31.61.32.61-.2,1.13-1.11-.29-.43-.55-.43-.55-.3-.38-.12-.17-.41-.56-.41-.56-.4-.56-.18-.25-.19-.33-.35-.6-.34-.6-.33-.6-.33-.6-.33-.6-.32-.6-.25-.47-.07-.14-.31-.61-.3-.61-.3-.61-.29-.62-.29-.62-.29-.62-.28-.62-.03-.07-.24-.55-.27-.63-.27-.63-.1-.24-.15-.4-.24-.64-.24-.65-.12-.32-.06-.35-.12-.69-.12-.61v-.09s-.14-.7-.14-.7l-.11-.61-.02-.08.26-.59.59.26Z"/><path class="h" d="M1875.99,981.16l.04.55.04.57.05.57.06.57.06.57.07.57.07.57.08.56.08.57.09.56.09.57.1.56.11.56.11.56.12.56.12.56.13.56.13.56.14.56.14.56.15.55.15.55.15.55.16.55.16.55.17.55.17.55.18.54.18.54.19.54.19.53.17.45.03.09-.64,1.35-1.36-.64-.03-.09-.16-.46-.19-.56-.18-.56-.17-.56-.17-.56-.17-.56-.16-.57-.16-.57-.15-.57-.15-.57-.14-.57-.14-.58-.13-.58-.13-.57h0s-.12-.58-.12-.58l-.12-.58-.11-.58-.1-.58-.1-.58-.09-.58-.09-.58-.08-.58-.08-.59-.07-.58-.07-.59-.06-.59-.05-.59-.05-.59-.04-.59-.04-.59-.03-.59-.02-.56.19-.03,1.3-.07h.19Z"/><path class="h" d="M1839.63,789.43v.72s0,.57,0,.57l-.03.15-.13.69-.14.69-.14.69-.14.69-.14.69-.15.69-.15.69-.15.69-.15.69-.15.69-.16.68-.16.68-.16.68-.16.68-.1.42-.07.26-.17.68-.18.68-.18.68-.18.68-.19.68-.19.68-.19.68-.19.67-.19.67-.04.12-.16.55-.2.67-.2.67-.21.67-.21.67-.21.67-.22.66-.22.66-.21.63v.03s-.25.66-.25.66l-.24.66-.24.66-.24.66-.24.66-.49,1.31-.41,1.07-.1.24-.52,1.3-.53,1.3-.54,1.3-.55,1.29-.32.75-.23.54-.57,1.28-.58,1.28-.58,1.28-.59,1.28-.59,1.28-1.3.53-.49-1.31.53-1.3.53-1.3.52-1.3.51-1.3.5-1.3.2-.54.3-.76.5-1.3.49-1.3.48-1.3.47-1.3.09-.24.39-1.06.47-1.3.23-.65.23-.65.23-.65.23-.65.22-.65v-.03s.24-.62.24-.62l.24-.65.23-.65.23-.65.23-.65.23-.65.23-.65.22-.65.18-.54.04-.12.22-.65.22-.66.22-.66.22-.66.22-.66.21-.66.21-.66.21-.66.2-.66.08-.26.13-.41.2-.66.2-.66.2-.66.2-.67.2-.67.19-.67.19-.67.19-.67.18-.67.18-.68.18-.68.17-.68.17-.68.17-.68.03-.14.24-.51.29-.66.54-.35.35.54Z"/><path class="h" d="M1843.8,825.33l-.27,2.86-.05,1.33-.38,1.49-.29,1.17-.42,1.56-.32,1.21-.4,1.52-.73,2.72-.64,2.42-.09.3-.76,2.72-.38,1.36-.39,1.36-.39,1.36-.2.71-.2.64-.43,1.35-.43,1.34-.43,1.34-.44,1.34-.45,1.34-.45,1.34-.45,1.34-.46,1.34-.15.45-.31.88-.48,1.33-.48,1.33-.49,1.33-.5,1.33-.5,1.33-2.23,1.05-1.03-2.24.46-1.33.46-1.33.45-1.33.44-1.33.44-1.33.29-.88.15-.45.43-1.33.43-1.33.43-1.34.42-1.34.42-1.34.42-1.34.41-1.34.41-1.34.19-.64.23-.7.44-1.33.44-1.33.43-1.34.86-2.67.09-.3.79-2.37.88-2.67.49-1.49.39-1.19.51-1.54.4-1.13.51-1.45.69-1.13,1.36-2.54.57-.3.3.57Z"/><path class="h" d="M1868.79,813.26l.12,2.36.06.73-.12,1.61-.17,2.33-.17,2.33-.17,2.33-.18,2.33-.02.25-.19,2.08-.21,2.33-.22,2.33-.04.43-.2,1.9-.25,2.32-.25,2.32-.04.32-.25,2-.3,2.32-.3,2.32-.31,2.32-.32,2.32-.13.93-.2,1.38-.35,2.31-.17,1.16-.18,1.16-.18,1.15-.18,1.15-.18,1.16-.19,1.15-.19,1.15-.19,1.15-.19,1.15-.19,1.14v.02s-.2,1.15-.2,1.15l-.2,1.15-.2,1.15-.2,1.15-.21,1.15-.21,1.15-.22,1.15-.22,1.15-.22,1.15-.22,1.15-.22,1.15-.23,1.15-.23,1.15-.23,1.15-.24,1.15-.24,1.15-.91.63-.61-.92.21-1.15.21-1.15.2-1.15.2-1.15.2-1.15.2-1.15.19-1.15.19-1.15.19-1.15.18-1.15.18-1.15.18-1.15.17-1.15.17-1.15.17-1.15.17-1.15h0s.17-1.15.17-1.15l.17-1.15.16-1.15.16-1.15.16-1.15.16-1.15.15-1.16.15-1.15.15-1.16.15-1.15.29-2.31.17-1.38.12-.93.28-2.31.28-2.31.27-2.32.26-2.32.22-1.99.04-.32.28-2.31.27-2.32.22-1.89.05-.43.28-2.32.27-2.32.24-2.07.03-.25.29-2.32.28-2.32.28-2.32.27-2.32.19-1.6.19-.71.55-2.29.49-.41.41.5Z"/><path class="h" d="M1889.25,803.78v.14s.13,1.36.13,1.36l.13,1.19.03.3.18,1.49.15,1.05v.44s0,1.48,0,1.48v1.48s-.02,1.48-.02,1.48l-.02,1.48v.26s0,1.22,0,1.22v1.48s0,1.48,0,1.48v1.48s.02,1.48.02,1.48v1.48s.02,1.48.02,1.48l.02,1.39v1.57s.02,1.48.02,1.48v1.03s0,.45,0,.45v1.48s0,1.48,0,1.48v1.48s.01.68.01.68v2.28s.02,1.48.02,1.48l.02,1.48.03,1.25v.23s.04,1.48.04,1.48l.04,1.48.05,1.48.06,1.48.07,1.49-1.04,1.24-1.2-1.08-.15-1.49-.14-1.49-.14-1.49-.13-1.49-.12-1.49-.02-.23-.09-1.26-.1-1.49-.09-1.49-.09-1.49-.05-.81-.03-.68-.06-1.49-.06-1.49-.05-1.49v-.45s-.03-1.04-.03-1.04v-1.49s-.02-1.49-.02-1.49v-.09l.02-1.4.02-1.49.03-1.39v-.09s.04-1.49.04-1.49l.05-1.49.05-1.49.06-1.49.05-1.22v-.27s.07-1.49.07-1.49l.06-1.49v-.15s.09-1.34.09-1.34l.09-1.49.03-.44.22-1.04.29-1.48.06-.3.22-1.18.24-1.35.02-.14.47-.43.43.47Z"/><path class="h" d="M1884.31,770.26v.05s.27.74.27.74v.02s.27.76.27.76l.07.19-.05.57-.06.75-.06.75-.05.75-.05.75-.04.75-.04.75v.1s-.05.65-.05.65l-.05.75-.04.75-.04.75-.04.75-.04.75-.04.75-.03.75-.03.75-.03.75v.11s-.03.64-.03.64l-.02.75-.02.75-.02.75-.02.75-.02.75-.02.76v.76s-.02.76-.02.76l-.02,1.51v1.4s0,.12,0,.12l-1.2,1.2-1.2-1.2v-1.53s-.02-1.52-.02-1.52v-1.53s0-.76,0-.76v-.76s.01-.76.01-.76v-.76s.02-.76.02-.76l.02-.76v-.65s.02-.11.02-.11l.02-.76.03-.76.03-.76.03-.76.03-.76.04-.76.04-.76.04-.76.04-.76.04-.66v-.1s.07-.76.07-.76l.06-.76.07-.76.07-.76.07-.76.07-.76.06-.57.11-.18.4-.71v-.02s.41-.68.41-.68l.02-.04.5-.41.41.5Z"/><path class="h" d="M1870.83,782.74v.98s.02.24.02.24v.73s.03.65.03.65l-.06.31-.19.92-.18.93-.18.93-.17.93-.17.93-.17.93-.08.46-.09.47-.16.93-.16.93-.15.93-.15.93-.14.93-.14.93-.14.93-.13.93-.13.93-.04.32-.08.61-.12.94-.12.94-.11.94-.11.94-.11.94-.1.94-.1.94-.09.94-.09.94-.08.94-.07.94-.06.79v.15s-1.26,1.08-1.26,1.08l-1.08-1.25v-.15s.07-.8.07-.8l.07-.95.08-.95.09-.95.09-.95.09-.95.1-.95.1-.95.11-.95.11-.95.12-.94.12-.95.08-.62.04-.32.14-.94.14-.94.14-.94.15-.94.15-.94.16-.94.16-.94.17-.94.17-.94.09-.47.09-.46.19-.94.19-.93.2-.94.2-.93.2-.93.21-.93.07-.31.3-.59.32-.66.11-.22.4-.81.03-.07.55-.34.34.55Z"/><path class="h" d="M1902.3,777.69l.04.08.39.84.28.56.17.35.33.66.11.25.2.47.11.48.22.97.21.97.42,1.93.42,1.93.04.2.35,1.74.38,1.94.38,1.94.71,3.64.04.24.74,3.88.37,1.94.38,1.93.38,1.93.35,1.78.03.15-.81,1.24-1.24-.81-.03-.15-.4-1.77-.42-1.93-.42-1.93-.42-1.93-.82-3.86-.05-.24-.76-3.63-.41-1.93-.41-1.93-.37-1.72-.04-.2-.4-1.93-.41-1.93-.2-.96-.21-.96-.1-.48-.02-.51v-.27s0-.74,0-.74v-1.01s0-.92,0-.92v-.09s.34-.55.34-.55l.55.34Z"/><path class="h" d="M1920.42,780.47l.06.29.07.28.14.56.07.24.08.3.16.54.18.53.03.09.08.45.1.53.11.53.11.52.12.52.13.51.14.51.05.19.08.32.14.51.14.5.15.5.15.5.16.5.16.49.17.49.13.36.04.13.16.49.17.49.17.48.18.48.18.48.19.48.19.48.2.48.2.47.21.47.22.47.22.47.22.47.23.47.23.47.24.46.24.46.25.46.25.46.25.46.26.46.26.46.27.46.27.46.27.46.12.19.16.27.28.46.28.46.29.46.29.46.29.46.29.46.29.46.6.92.61.92.61.92.62.92.53.79.09.14-.2,1.21-1.21-.21-.1-.14-.56-.77-.66-.9-.66-.9-.65-.9-.64-.91-.32-.45-.32-.45-.32-.45-.31-.45-.31-.46-.31-.45-.3-.46-.17-.27-.13-.19-.29-.46-.29-.46-.29-.46-.29-.46-.28-.46-.28-.47-.28-.47-.27-.47-.27-.47-.26-.47-.26-.48-.25-.48-.25-.48-.25-.48-.24-.48-.24-.49-.23-.49-.23-.49-.22-.5-.22-.5-.21-.5-.21-.5-.2-.51-.2-.51-.19-.51-.05-.14-.12-.38-.16-.53-.15-.53-.14-.53-.14-.53-.13-.54-.13-.54-.12-.55-.07-.35-.04-.2-.09-.55-.08-.56-.07-.56-.07-.56-.06-.57-.05-.57-.04-.48v-.1s.06-.58.06-.58l.06-.59.03-.32.03-.26.07-.58.04-.3.02-.19v-.1s.45-.48.45-.48l.48.43Z"/><path class="h" d="M1907.18,841.56l.04.11.43,1.14.29.72.21.52.34.82.15.42.19.5.19.76.32,1.27.33,1.26.3,1.14.03.12.32,1.26.16.63.17.63.17.63.17.63.17.62.18.62.18.62.04.15.13.46.17.62.18.62.18.62.19.61.19.61.19.61.19.61.2.61.2.61.2.6.21.6.21.6.21.6.22.6.22.6.23.6.23.59.19.47.04.12.22.6.23.59.24.59.24.59.24.59.25.59.12.28.13.3.25.59.26.59.26.58.27.58.27.58.28.58.22.45.06.12.29.58.29.58.3.57.3.57.31.57.32.57.33.57.33.57-.38,1.72-1.71-.4-.38-.56-.37-.57-.37-.57-.36-.57-.35-.58-.35-.58-.34-.58-.33-.58-.07-.12-.26-.46-.32-.59-.31-.59-.31-.59-.3-.59-.3-.59-.29-.6-.15-.31-.13-.29-.27-.6-.27-.6-.26-.61-.26-.61-.25-.61-.25-.61-.05-.12-.19-.49-.22-.62-.22-.62-.22-.62-.21-.62-.21-.63-.2-.62-.2-.63-.2-.63-.19-.63-.19-.63-.19-.63-.18-.63-.18-.63-.17-.63-.17-.63-.17-.63-.17-.64-.12-.48-.04-.16-.15-.64-.15-.64-.15-.64-.15-.64-.15-.64-.14-.64-.14-.64-.28-1.28-.02-.12-.23-1.17-.25-1.3-.24-1.3-.14-.78-.04-.53-.03-.45-.02-.89-.02-.56-.03-.78-.07-1.22v-.12s.34-.54.34-.54l.54.35Z"/><path class="h" d="M1895.72,870.42v.75s0,.75,0,.75v.75s0,.75,0,.75v.75s.02.75.02.75l.02.75.02.75.02.75.03.75.03.75.03.75.04.74.04.75.05.74.05.74.06.74.06.74.02.23.04.51.06.74.06.74.07.74.07.74.07.74.08.74.08.74.09.74.09.74.07.55.02.18.09.74.09.74.09.74.1.73.1.74.11.73.11.73.11.73.11.68v.05s.11.73.11.73l.1.73.11.74.11.73.11.73.12.73.12.73.09.55.03.19.12.73.12.73.12.73.13.74.13.73.14.73.14.73.14.73.04.22.1.51.14.73.15.73.15.73.15.73.16.73.16.73.17.73.17.73.17.73-.5.9-.88-.53-.21-.73-.21-.73-.21-.73-.2-.73-.2-.73-.2-.73-.2-.73-.19-.73-.19-.73-.13-.51-.06-.22-.18-.74-.17-.73-.17-.74-.17-.73-.16-.74-.16-.74-.16-.74-.15-.74-.04-.19-.11-.56-.14-.74-.13-.74-.13-.74-.12-.74-.12-.74-.12-.74-.12-.74v-.05s-.09-.7-.09-.7l-.09-.74-.09-.75-.08-.75-.08-.75-.08-.75-.07-.75-.07-.75-.06-.75-.02-.19-.04-.56-.05-.75-.05-.75-.04-.75-.04-.75-.04-.75-.04-.75-.03-.75-.03-.75-.02-.75v-.51s-.02-.24-.02-.24l-.02-.75v-.75s-.02-.75-.02-.75v-.75s0-.75,0-.75v-1.51s.01-.76.01-.76v-.75s.02-.76.02-.76l.02-.76.02-.75.02-.76.03-.76.03-.76.03-.76.04-.76.02-.52v-.23s.48-.44.48-.44l.44.47Z"/><path class="h" d="M1883.78,868.39v.08s.07.64.07.64l.05.41.04.31.1.71.03.2v.51s-.03.71-.03.71v.71s-.02.33-.02.33v.37s-.04.7-.04.7l-.02.71-.02.68v.03s-.03.71-.03.71l-.03.71-.02.71-.02.71-.02.71-.02.71-.02.71-.02.71-.02,1.41-.02,1.42v1.41s-.01,1.42-.01,1.42v1.42s0,1.42,0,1.42v1.42s-1,1.04-1,1.04l-1.03-1.02-.02-1.42-.02-1.42v-1.43s-.02-1.42-.02-1.42v-2.85s.02-1.43.02-1.43v-.71s.02-.71.02-.71v-.71s.03-.71.03-.71l.02-.71.02-.71.02-.71.03-.71v-.03l.04-.68.05-.71.05-.71.03-.37.04-.34.07-.71.08-.71.06-.52.06-.19.21-.7.09-.3.12-.4.18-.62.02-.08.49-.41.41.49Z"/><path class="h" d="M1833,871.42l-.02.67v.68s.02.3.02.3l-.11.35-.19.62-.19.62-.19.61-.15.48-.04.14-.21.61-.21.61-.21.61-.22.61-.22.61-.16.45-.06.15-.23.6-.24.6-.24.6-.24.6-.24.6-.24.6-.24.6-.25.6-.25.6-.5,1.19-.43,1.01-.08.17-.54,1.17-.55,1.17-.55,1.17-.56,1.16-.56,1.16h0s-.58,1.15-.58,1.15l-.58,1.15-.59,1.15-.59,1.14-.6,1.14-.6,1.14-.21.39-.4.75-.61,1.13-.61,1.13-.62,1.13-.62,1.13-.62,1.12-.63,1.12-.63,1.12-1.25.39-.36-1.26.59-1.14.58-1.14.58-1.14.58-1.14.58-1.14.57-1.15.57-1.15.37-.75.19-.4.56-1.15.56-1.15.55-1.15.55-1.16.54-1.16.53-1.16h0s.54-1.17.54-1.17l.53-1.16.52-1.16.52-1.17.51-1.17.07-.17.45-.99.52-1.17.26-.58.25-.58.25-.59.25-.58.25-.59.25-.59.25-.59.24-.59.24-.59.06-.15.19-.44.24-.59.24-.59.24-.59.24-.59.24-.59.05-.13.19-.46.24-.59.24-.59.24-.59.13-.33.19-.23.42-.53.38-.55.58-.29.29.58Z"/><path class="h" d="M1841.05,903.6l.09,1.74-.1.36-.3,1.09-.25.83-.41,1.33-.19.58-.63,1.89-.57,1.7-.07.18-.68,1.87-.69,1.87-.69,1.87-.7,1.87-.71,1.86-.72,1.86-.29.75-.43,1.1-.37.92-.37.93-.37.92-.37.92-.38.92-.38.92-.38.92-.32.77-.06.15-1.33.58-.57-1.34.06-.15.3-.78.35-.93.35-.93.35-.93.35-.93.35-.93.34-.93.34-.93.4-1.11.28-.76.67-1.86.67-1.87.66-1.87.65-1.87.64-1.87.64-1.88.06-.19.61-1.68.67-1.87.2-.57.48-1.3.3-.81.42-1.05.14-.35,1.12-1.33.58-.29.29.57Z"/><path class="h" d="M1785.9,974.21l-.09.12-.52.63-.61.75-.61.75-.61.75-1.21,1.51-.85,1.07-.36.45-1.22,1.51-1.13,1.4-.1.12-1.25,1.49-.63.75-.63.75-.06.07-.59.65-.66.72-.66.72-.66.72-.54.58-.13.13-.68.7-.68.7-.69.69-.69.69-.69.69-.02.02-.68.66-.71.67-.71.66-.72.66-.72.65-.36.33-.37.32-1.13-.03.05-1.13.34-.34.34-.34.68-.68.67-.69.67-.69.66-.7.64-.68.02-.02.66-.7.66-.71.65-.71.65-.72.65-.72.12-.14.53-.58.65-.71.65-.72.65-.72.58-.65.07-.07.66-.71.66-.71,1.33-1.42.1-.11,1.24-1.3,1.34-1.41.4-.42.95-.99,1.35-1.4.67-.7.68-.7.67-.7.57-.59.11-.11.64-.03.03.64Z"/><path class="h" d="M1838.75,940.36l.31.96-.1.58-.15,1-.13.37-.94,2.59-.95,2.59-.95,2.6-.48,1.3-.4,1.07-.09.23-.49,1.3-.49,1.29-.5,1.29-.5,1.29-.51,1.29-.47,1.18-.04.1-1.57.69-.69-1.57.04-.11.45-1.18.48-1.29.47-1.29.47-1.29.46-1.3.46-1.3.08-.23.38-1.07.46-1.3.91-2.6.91-2.6.91-2.61.13-.37.52-.87.3-.51.85-.55.58-.27.27.58Z"/><path class="h" d="M1876.71,932.02v.84s.03.84.03.84l.02.49v.35s.04.84.04.84v.24s.01.6.01.6v.43s-.02.41-.02.41l-.05.83-.04.84-.04.84-.03.84-.03.83-.02.75v.08s-.03.83-.03.83l-.02.84-.02.84-.02.83-.02.83v.84s-.01.83-.01.83v.84s0,.63,0,.63v1.04s.02.83.02.83v.83s.03.83.03.83l.02.83.03.83.04.83.04.83.04.83.05.83.05.7v.13s-.98,1.13-.98,1.13l-1.13-.99v-.14s-.06-.71-.06-.71l-.05-.85-.04-.84-.04-.85-.03-.84-.03-.85-.02-.84-.02-.85v-.84s-.02-.85-.02-.85v-.84s0-.21,0-.21v-.64s.01-.84.01-.84v-.84s.03-.84.03-.84l.02-.84.03-.84.03-.84.04-.84.04-.84v-.08s.05-.76.05-.76l.05-.84.06-.84.06-.84.06-.84.07-.84.03-.41.07-.43.09-.6.04-.24.16-.83.07-.35.1-.48.16-.83.14-.72.02-.11.49-.42.41.49Z"/><path class="h" d="M1897.63,942.3l.02.06.37.86.44.88v.02s.43.9.43.9l.18.36.22.54.04.1.2.61.05.22.21.94h0s.17.94.17.94l.12.61.06.33.16.94.17.94.17.94.07.37.1.57.17.94.18.94.19.94.18.87v.07s-.8,1.39-.8,1.39l-1.39-.82-.02-.07-.27-.86-.29-.93-.29-.94-.28-.93-.17-.57-.1-.37-.25-.94-.25-.94-.24-.94-.08-.33-.14-.62-.21-.93v-.02s-.17-.96-.17-.96l-.04-.22-.05-.64v-.7s.04-.4.04-.4l.06-1v-.02l.09-.99.05-.94v-.06s.37-.53.37-.53l.53.37Z"/><path class="h" d="M1824.87,692.98l-.36.66-.36.66-.37.66-.28.5-.09.15-.38.65-.39.65-.39.65h0s-.4.63-.4.63l-.41.63-.37.57-.05.06-.45.61-.45.61-.45.6-.45.6-.46.6-.46.6-.46.6-.46.59-.51.66-.42.51-.95,1.16-.93,1.14-.02.02-.98,1.13-.8.93-.21.17-.37.31-.85.63h0l-.61.46-.53.43-.06.05-.64.08-.08-.64.03-.07.3-.62.31-.71h0l.42-.97.22-.43.12-.24.74-.99.9-1.2v-.02s.93-1.15.93-1.15l.93-1.17.4-.52.53-.64.47-.58.46-.58.47-.58.46-.58.46-.58.46-.58.45-.58.45-.59.04-.06.43-.51.47-.57.46-.56h0s.48-.58.48-.58l.47-.57.46-.58.11-.14.36-.44.46-.58.45-.59.45-.6,1.09-.28.2,1.11Z"/><path class="h" d="M1857.16,638.84l.29.11.17.72.17.69v.13s-.05.81-.05.81l-.05.81-.05.81-.06.81-.06.81-.07.81-.07.81-.08.81-.08.81-.09.8-.09.81-.1.8-.1.8-.1.8-.11.8-.11.8-.1.73v.07s-.13.8-.13.8l-.12.8-.12.8-.25,1.59-.25,1.59-.26,1.59-.26,1.58-.24,1.46-.02.13-1.36,1.01-1.01-1.36.02-.13.2-1.46.21-1.59.21-1.59.2-1.59.2-1.59.1-.79.09-.79.09-.79v-.07s.09-.73.09-.73l.09-.79.09-.79.08-.79.08-.79.07-.79.07-.79.07-.79.06-.79.06-.79.05-.79.05-.79.04-.79.04-.79.03-.79.02-.79.02-.79v-.12s.21-.66.21-.66l.2-.7.3-.09,1.71.04Z"/><path class="g" d="M1866.79,940.9s-8.89,3.95-16.77,6.97c-22.46,8.62-46.37,14.87-69.84,10.5-7.27-1.36-14.38-3.39-21.63-5.05-1.49-.33.36-.45-5.89-1.82-2.42-.43,7.31,8.23,13.45,12.09,3.56,2.19,4.18,2.49,6.21,3.55,56.94,29.91,128.25,20.96,192.86,6.91,5.04-1.1,10.05-2.31,15.02-3.7,4.15-1.16,8.26-2.44,12.32-3.87,7.09-2.5,14.05-5.4,20.75-8.81l1.46-.18c-31.75,17.49-68.38,22.77-103.2,27.58-44.72,6.17-91.57,5.39-133.43-13.38-12.41-5.57-30.52-15.8-26.64-21.09,1.37-1.87,3.88.57,8.83,1.72,19.5,4.61,39.32,7.6,59.1,3.55,16.02-3.28,31.38-8.73,46.48-14.78,0,0,.55-.35.92-.2ZM1946.13,766.61c3.43.51-1.26,3.54-3.23,5.5-3.42,3.41-3.81,3.74-4.97,4.91-32.69,33.12-67.9,64.23-113.13,80.29-11.19,4.01-22.02,8.02-35.04,7.74-13.59-.21-5.76.4-3.83.67,47.77,7.37,93.58,31.5,142.73,23.36,1.76-.29,3.52-.6,5.27-.94,5.96-1.14,11.87-2.56,17.65-4.42,6-1.92,11.39-4.16,15.99-5.82,2.22-.82,1.58-.44,3.57-1.45,3.23-1.67,6.91-3.32,4.51-.44-10.68,12.45-25.73,19.98-39.85,29.06-16.36,10.48-32.98,20.54-50.87,28.37l-1.02-.4s7.48-4.17,13.12-7.02c21.19-10.74,41.21-24.16,60.92-36.96,5.72-3.74,11.31-7.79,15.98-12.82-22.36,11.97-40.71,15.48-63.53,15.77-43.43.55-87.49-19.51-124.82-25.07-1.27-.16-2.59-.16-3.89-.25-1.31-.1-5.3-1.14,1.05-2.45,7.93-1.63,16.05.07,24.78-2.4,49.25-13.91,90.76-46.93,127.26-83.26,3.65-3.63,7.61-6.76,10.55-10.76,0,0-7.71,2.03-13.71,2.87-43.21,5.87-86.86-9.98-130.31-17.31-6.11-1.05-12.49-2.17-17.76-5.46-2.33-1.45,4.45-2.01,7.47-2.86,14.69-4.19,27.89-12.12,41.66-20,27.77-15.99,55.09-32.23,83.2-48.18,3.33-1.84,7.97-4.74,7.97-4.74-.69.07-1.37.2-2.05.27-9.81.88-32.1-3.79-49.82-7.45-16.87-3.48-33.54-7.47-50.46-11.11l-.61-.78s12.32,2.23,21.48,4.26c7.1,1.57,14.19,3.16,21.29,4.69,18.83,4.01,36.87,8.63,56.53,9.11,1.87.05,4.11-.73,4.98-.08,2.64,1.98-5.6,5.19-12.08,8.96-3.57,2.08-7.11,4.2-10.67,6.28-28.73,16.66-57.23,34.2-86.33,50.1-8.34,4.56-17.22,8.4-26.54,10.27-1.94.34-6.11.05-3.76,1.18,11.72,5.55,25.47,5.55,38.12,8.24,35.3,7.56,71.49,17.63,105.76,13.7,5.49-.63,10.79-2.73,16.12-3.19.12,0,.23,0,.35,0Z"/><path class="e" d="M1844.51,658.3c3.47.15,7.17,2.12,7.98,5.74.86,3.86-3.73,8.37-3.73,8.37-4.99,4.25-14.64-.61-10.33-9.66,1.14-2.39,2.92-4.47,6.08-4.45ZM1842.11,666.03"/><path class="e" d="M1908.71,676.23c4.37.23,6.74,6.91,6.81,7.22.17.81.17,1.12.15,1.67-.16,5.6-7.51,10.49-12.34,6.62-5.21-4.18-2.27-15.69,5.38-15.51Z"/><path class="e" d="M1828.37,762.87c6.37.38,12.4,6.32,9.38,13.48-2.54,7.88-14.31,11.88-18.34,3.84-.82-1.64-1.79-17.62,8.96-17.32Z"/><path class="e" d="M1873.61,918.65c6.37.38,12.4,6.32,9.38,13.48-2.54,7.88-14.31,11.88-18.34,3.84-.82-1.64-1.79-17.62,8.96-17.32Z"/><path class="e" d="M1802.3,882.13c8.51.31,8.03,4.38,7.93,6.72-.12,2.98-3.04,6.66-3.04,6.66-2.27,3.87-8.79,3.93-9.34,3.66-9.79-4.85-3.42-17.1,4.44-17.04Z"/><path class="i" d="M1903.76,764.93c4.04.17,7.98,2.7,8.63,6.47,1.11,6.51-7.53,13.99-13.09,9.33-6.25-5.23-1.21-15.87,4.46-15.79Z"/><path class="i" d="M1869.2,696.5c3.58.14,5.76,5.58,5.76,5.58.09.3.17.6.22.91,1,6.42-11.53,10.29-13.97,2.49-1.31-4.2,3.1-9.06,7.99-8.98ZM1870.56,704.24,1869.94,702.9"/><path class="i" d="M1856.54,831.71c3.41.16,6.1,4.77,6.1,4.77,3.95,5.18-5.5,15.85-12.23,10.55-2.09-1.64-2.66-5.85-2.66-5.85-2.62-5.96,3.18-7.38,3.18-7.38,1.5-1.39,3.49-2.13,5.61-2.09Z"/><path class="i" d="M1899.34,980.45c3.71.25,4.92,6.34,4.92,6.34,1.69,6.13-5.62,14.6-12.81,8.2-4.17-3.71-3.11-11.64,3.21-13.38,1.39-.84,2.47-1.22,4.68-1.15Z"/><path class="i" d="M1788.28,967.34c3.71.25,4.92,6.34,4.92,6.34,1.69,6.13-5.62,14.6-12.81,8.2-4.17-3.71-3.11-11.64,3.21-13.38,1.39-.84,2.47-1.22,4.68-1.15Z"/><path class="s" d="M1767.3,940.78c7.22-29.5,24.08-38.53,43.34-29.5,19.26,9.03,20.47,16.25,10.84,29.5-9.63,13.24-48.76,27.69-48.76,27.69l-5.42-27.69Z"/><path class="l" d="M1771.27,961.06c8.07-19.08,30.34-39.17,35.76-31.83,5.42,7.34-34.31,39.24-34.31,39.24l-1.45-7.41Z"/><polygon class="u" points="1776.66 964.4 1801.27 986.07 1786.29 998.11 1771.24 966.81 1776.66 964.4"/><path class="s" d="M1762.36,940.78c-7.22-29.5-24.08-38.53-43.34-29.5-19.26,9.03-20.47,16.25-10.84,29.5,9.63,13.24,48.76,27.69,48.76,27.69l5.42-27.69Z"/><path class="l" d="M1758.4,961.06c-8.07-19.08-30.34-39.17-35.76-31.83-5.42,7.34,34.31,39.24,34.31,39.24l1.45-7.41Z"/><polygon class="u" points="1754.91 964.4 1730.29 986.07 1745.28 998.11 1760.33 966.81 1754.91 964.4"/><rect class="v" x="1755.59" y="940.78" width="19.62" height="30.7" rx="1.77" ry="1.77"/><polygon class="k" points="1815.33 994.15 1815.13 997.92 1810.78 1079.79 1714.7 1079.79 1714.23 1070.76 1710.15 994.15 1815.33 994.15"/><rect class="s" x="1756.02" y="999.34" width="18.88" height="80.45"/><path class="d" d="M1815.13,997.92l-4.35,81.87h-96.09l-.47-9.03,81.92-21.34,10.83-51.99s3.52.2,8.15.49Z"/><polygon class="k" points="1831.84 962.29 1825.88 1003.72 1699.6 1003.72 1698.75 997.75 1693.62 962.29 1831.84 962.29"/><rect class="s" x="1754.18" y="962.29" width="22.56" height="41.42"/><polygon class="d" points="1831.84 962.29 1825.88 1003.72 1699.6 1003.72 1698.75 997.75 1813.92 989.55 1824.67 962.29 1831.84 962.29"/><path class="m" d="M390.8-37.59c-.76,2.95-.43,6.19-.43,9.21,0,2.99,0,5.98,0,8.97,0,6.43,0,12.86.02,19.29.02,6.28.03,12.56.05,18.84.02,6.14-.31,12.35.66,18.43.09.57,1.06.57,1.15,0,.95-5.93.64-11.99.66-17.98.02-6.43.03-12.86.05-19.29.02-6.28.02-12.56.02-18.84,0-3.14,0-6.28,0-9.42,0-3.02.33-6.27-.43-9.21-.22-.87-1.54-.87-1.76,0h0Z"/><path class="k" d="M423.53,77.02c-1.87-20.97-24.6-20.45-27.14-25.4-.64-1.24.34-5.12-1.49-5.33-1.2-.14-4.08.32-5.1,1-.62.41-.69,1.11-.46,1.65-.2,1.78-.86,3.03-2.66,3.78-2.02.84-4.26,1.25-6.35,1.86-4.07,1.2-8.23,2.45-12.04,4.34-6.54,3.24-10.97,9.04-12.65,16.14-3.33,14.1,4.21,29.43,17.17,35.69,11.7,5.65,25.54,4.58,36.35-2.66,10.82-7.25,15.54-17.86,14.37-31.07Z"/><path class="q" d="M416.76,62.69c-.81-.21-1.63-.4-2.45-.57-12.27-2.61-25.37-3.08-37.71-.7-5.15.99-10.26,2.42-15.1,4.45-.75.31-1.5.65-2.25,1-1.65,2.45-2.88,5.2-3.59,8.21-2.42,10.23.91,21.09,7.85,28.68,2.19-1.82,4.47-3.53,6.84-5.12,8.91-5.99,18.87-10.38,29.07-13.66,5.12-1.65,10.33-2.99,15.6-4.06,2.76-.56,5.53-1.09,8.34-1.27.11,0,.23,0,.34-.02-.03-.85-.07-1.72-.15-2.6-.59-6.66-3.29-11.14-6.77-14.33Z"/><path class="n" d="M357.15,80.45c-1.7.3-3.22,1.51-3.88,3.11-.34.81-.46,1.69-.5,2.57-.12,2.55.58,5.37,2.67,6.83,1.78,1.25,4.32,1.19,6.16.02,1.84-1.17,2.95-3.32,3.04-5.49.18-4.2-3.07-7.81-7.49-7.04Z"/><path class="n" d="M374.81,71.64c-1.4,1.42-1.9,3.51-1.96,5.5-.06,1.97.3,4.08,1.65,5.51,1.3,1.38,3.38,1.91,5.24,1.51,1.86-.4,3.47-1.64,4.53-3.22,1.59-2.37,1.99-6.79-.26-8.96-2.32-2.24-6.88-2.7-9.2-.35Z"/><path class="n" d="M397.43,69.14c-.96,2.17-.06,4.97,1.96,6.21,4.21,2.59,9.18-2,7.6-6.46-1.49-4.2-7.93-3.43-9.56.25Z"/><path class="n" d="M417.57,70.31c.38,1.98,2.29,3.55,4.3,3.53.33,0,.67-.04.98-.16.26-.1.49-.24.7-.41,2.48-1.92,1.77-6.33-.9-7.82-2.8-1.57-5.57,2.34-5.08,4.86Z"/><path class="n" d="M423.69,80.77c0-.84-.03-1.68-.08-2.54-2.06-.9-4.78-.17-6.91.2-3.17.55-6.29,1.36-9.37,2.28-6.23,1.86-12.34,3.57-18.22,6.42-9.28,4.5-17.92,9.78-25.53,16.71.19.21.37.42.56.62,6.99-6.97,16.65-11.17,25.44-15.36,5.7-2.71,11.78-4.81,18-5.92,2.93-.52,5.89-1.01,8.84-1.42,2.21-.31,5.19.05,7.27-.99Z"/><path class="n" d="M360.02,65.73c-.32.42-.61.86-.91,1.31,10.02-2.59,20.2-5.11,30.49-6.12,5.91-.58,11.98-.74,17.89-.15,2.13.21,4.27.56,6.35,1.1,1.12.29,2.24.84,3.38,1.25-2.43-2.35-5.28-4.03-8.09-5.34-.05,0-.1-.01-.15-.02-6.01-.65-12.33-.53-18.33.22-10.5,1.31-20.59,4.49-30.63,7.74Z"/><path class="m" d="M397.88,43.63c-.02-1.55.06-3.13-.02-4.68-.08-1.48-.85-2.64-2.25-3.17-1.18-.45-2.56-.38-3.8-.26-2.09.2-4.29.84-5.47,2.72-.97,1.55-.86,3.46-.48,5.18.47,2.12,1.39,4.11,2.33,6.06.4.84,2.23.45,2.92.38,1.45-.14,2.91-.16,4.37-.07.88.05,2.17.28,2.24-.92.05-.89.19-1.73.18-2.64,0-.87-.02-1.74-.03-2.61Z"/><path class="m" d="M1012.31-36.11c-.76,2.95-.43,6.19-.43,9.21,0,2.99,0,77.85,0,80.84,0,6.43,0,12.86.02,19.29.02,6.28.03,12.56.05,18.84.02,6.14-.31,12.35.66,18.43.09.57,1.06.57,1.15,0,.95-5.93.64-11.99.66-17.98.02-6.43.03-12.86.05-19.29.02-6.28.02-12.56.02-18.84,0-3.14,0-78.15,0-81.29,0-3.02.33-6.27-.43-9.21-.22-.87-1.54-.87-1.76,0h0Z"/><path class="s" d="M1045.78,150.86c-1.87-20.97-24.6-20.45-27.14-25.4-.64-1.24.34-5.12-1.49-5.33-1.2-.14-4.08.32-5.1,1-.62.41-.69,1.11-.46,1.65-.2,1.78-.86,3.03-2.66,3.78-2.02.84-4.26,1.25-6.35,1.86-4.07,1.2-8.23,2.45-12.04,4.34-6.54,3.24-10.97,9.04-12.65,16.14-3.33,14.1,4.21,29.43,17.17,35.69,11.7,5.65,25.54,4.58,36.35-2.66,10.82-7.25,15.54-17.86,14.37-31.07Z"/><path class="x" d="M1038.26,136.04c-.81-.21-1.63-.4-2.45-.57-12.27-2.61-25.37-3.08-37.71-.7-5.15.99-10.26,2.42-15.1,4.45-.75.31-1.5.65-2.25,1-1.65,2.45-2.88,5.2-3.59,8.21-2.42,10.23.91,21.09,7.85,28.68,2.19-1.82,4.47-3.53,6.84-5.12,8.91-5.99,18.87-10.38,29.07-13.66,5.12-1.65,10.33-2.99,15.6-4.06,2.76-.56,5.53-1.09,8.34-1.27.11,0,.23,0,.34-.02-.03-.85-.07-1.72-.15-2.6-.59-6.66-3.29-11.14-6.77-14.33Z"/><path class="n" d="M978.65,153.8c-1.7.3-3.22,1.51-3.88,3.11-.34.81-.46,1.69-.5,2.57-.12,2.55.58,5.37,2.67,6.83,1.78,1.25,4.32,1.19,6.16.02,1.84-1.17,2.95-3.32,3.04-5.49.18-4.2-3.07-7.81-7.49-7.04Z"/><path class="n" d="M996.31,144.99c-1.4,1.42-1.9,3.51-1.97,5.5-.06,1.97.31,4.08,1.65,5.51,1.3,1.38,3.38,1.91,5.24,1.51,1.86-.4,3.47-1.64,4.53-3.22,1.59-2.37,1.99-6.79-.26-8.96-2.32-2.24-6.88-2.7-9.19-.35Z"/><path class="n" d="M1018.93,142.49c-.96,2.17-.06,4.97,1.96,6.21,4.21,2.59,9.18-2,7.6-6.46-1.49-4.2-7.93-3.43-9.56.25Z"/><path class="n" d="M1039.07,143.67c.38,1.98,2.29,3.55,4.3,3.53.33,0,.67-.04.98-.16.25-.1.49-.24.7-.41,2.48-1.92,1.77-6.33-.9-7.82-2.8-1.57-5.57,2.34-5.08,4.86Z"/><path class="n" d="M1045.19,154.12c0-.84-.03-1.68-.08-2.54-2.06-.9-4.78-.17-6.91.2-3.17.55-6.29,1.36-9.37,2.28-6.23,1.86-12.34,3.57-18.22,6.42-9.28,4.5-17.92,9.78-25.53,16.71.19.21.37.42.56.62,6.99-6.97,16.65-11.17,25.44-15.36,5.7-2.71,11.78-4.81,18-5.92,2.93-.52,5.89-1.01,8.84-1.42,2.21-.31,5.19.05,7.27-.99Z"/><path class="n" d="M981.52,139.08c-.32.42-.61.86-.91,1.31,10.02-2.59,20.2-5.11,30.49-6.12,5.91-.58,11.98-.74,17.89-.15,2.13.21,4.27.56,6.35,1.1,1.12.29,2.24.84,3.38,1.25-2.43-2.35-5.28-4.03-8.09-5.34-.05,0-.1-.01-.15-.02-6.01-.65-12.33-.53-18.33.22-10.5,1.31-20.59,4.49-30.63,7.74Z"/><path class="m" d="M1019.39,116.98c-.02-1.55.06-3.13-.02-4.68-.08-1.48-.85-2.64-2.25-3.17-1.18-.45-2.56-.38-3.8-.26-2.09.2-4.29.84-5.47,2.72-.97,1.55-.86,3.46-.48,5.18.47,2.12,1.39,4.11,2.33,6.06.4.84,2.23.45,2.92.38,1.45-.14,2.91-.16,4.37-.07.88.05,2.17.29,2.24-.92.05-.89.19-1.73.18-2.64,0-.87-.02-1.74-.03-2.61Z"/><path class="m" d="M521.04-37.53c-.57,1.69-.46,3.47-.49,5.24-.03,2.09-.07,4.18-.1,6.28-.05,3.88-.01,7.77.02,11.66.07,8.07.11,16.14.09,24.21-.04,15.84-.06,31.68-.06,47.52,0,8.76-.51,17.64.82,26.32.13.82,1.53.82,1.66,0,1.15-7.53.82-15.14.82-22.74v-24.21c0-15.84-.14-31.68,0-47.52.04-4.48.07-8.97.07-13.45,0-2.24-.06-4.48-.09-6.72-.04-2.18.19-4.5-.51-6.58-.37-1.1-1.86-1.1-2.23,0h0Z"/><path class="s" d="M569.19,122.68c-3.86-5.43-8.91-10.04-15.05-13.3-4.79-2.54-9.77-4.63-15.1-5.72-2.36-.48-5.37-.53-7.42-1.91-2.03-1.36-.4-4.44-1.72-6.36-1.3-1.88-3.93-1.47-5.89-1.16-2.05.33-4.67.12-6.2,1.73-.27.28-.36.59-.35.87-.41-.02-.83.22-.8.75.25,5.29-6.05,6.27-9.85,7.89-5.6,2.38-10.78,5.92-15.35,9.91-4.35,3.79-8.01,8.11-10.56,13.3-2.45,4.99-3.75,10.07-4.43,15.57-1.34,10.78.18,21.74,6.02,31.09,9.24,14.78,27.75,22.7,44.73,23.06,17.05.36,34.34-6.23,43.76-20.82,10.7-16.57,9.42-39.18-1.77-54.9Z"/><path class="n" d="M491.28,115.53c8.65-2.33,17.85-2.78,26.76-2.69,13.67.14,27.31,1.35,40.26,6.01,3.52,1.27,6.98,2.72,10.28,4.49.61.33,1.17.69,1.75,1.05-.37-.57-.72-1.15-1.12-1.71-.7-.99-1.46-1.93-2.24-2.86-1.2-.53-2.4-1.03-3.51-1.5-6.85-2.86-14.2-4.57-21.52-5.74-6.94-1.1-13.95-1.49-20.96-1.65-6.99-.16-13.98.03-20.9,1.12-2.04.32-4.07.73-6.07,1.22-.87.69-1.72,1.39-2.55,2.11-.06.05-.11.1-.17.15Z"/><path class="n" d="M542.04,121.19c-17.52-2.04-36.03.4-52.45,6.86-3.55,1.4-7.02,2.99-10.44,4.69-1.37,3.7-2.2,7.5-2.7,11.52-1.09,8.77-.24,17.65,3.24,25.69,10.12-3.07,21.11-3.35,31.62-3.48,7.27-.08,14.68-.35,21.91.6,7.3.96,14.31,2.74,21.13,5.49,3.37,1.36,6.66,2.93,9.79,4.78,1.65.98,3.07,2.22,4.5,3.45.81-1.03,1.6-2.09,2.33-3.21,6.95-10.77,8.82-24.08,6.22-36.41-3.07,3.87-5.96,8.07-8.51,12.1-3.62,5.72-7.55,11.89-10.39,18.03-.48-6.56.08-13.22-.56-19.74-.4-4.08-.83-18.84-2.08-24.19,1.83.44,3.64.92,5.43,1.45,4.95,1.47,9.68,3.4,14.24,5.72-.63-1.76-1.34-3.48-2.15-5.15-2.5-1.16-5.07-2.18-7.65-3.07-7.59-2.62-15.5-4.22-23.47-5.15ZM492.03,164.23c-2.09-4.42-4.02-9.17-5.78-13.85-1.12-2.99-2.33-5.98-3.49-8.94-.75-1.92-1.29-4.35-2.22-6.25,2.63-1.23,5.28-2.39,7.98-3.43,7.89-3.06,16.03-5.31,24.41-6.52-3.64,6.4-15.9,27.63-20.9,38.99ZM523.89,164.73c-2.35-5.69-3.77-12.42-5.1-18.51-.86-3.98-1.23-8.01-2.16-11.98-.46-1.94-.89-6.91-2.12-9.2,13.11-1.7,26.82-.94,39.78,2.04-10.7,11.66-19.33,22.08-30.41,37.65Z"/><path class="n" d="M565.26,184.58c-.86-.66-1.74-1.29-2.59-1.86-2.85-1.92-5.91-3.51-9.08-4.82-6.33-2.63-13.1-3.91-19.91-4.34-6.98-.44-14.12-.17-21.1.31-6.98.49-13.95,1.41-20.64,3.52-2.14.68-4.21,1.48-6.22,2.39.49.59.99,1.16,1.51,1.72,7.31-3.04,15.24-4.63,23.33-5.21,6.43-.46,12.94-.46,19.38-.27,6.63.2,13.22,1.02,19.53,3.16,3.51,1.19,6.88,2.78,10.04,4.72,1.27.78,2.49,1.65,3.71,2.54.7-.6,1.38-1.22,2.03-1.87Z"/><path class="m" d="M515,100.11c.14.11.31.2.51.27.53.19,1.12.12,1.68.03,2.07-.31,4.25-.81,6.4-.94,1.83-.11,3.6.46,5.4.69,1.11.14,3.53.06,3.35-1.54-.24-2.01-.37-4-.39-6.02-.02-1.68.13-3.37.06-5.05-.07-1.61-.48-3.19-1.57-4.42-1.16-1.32-2.92-2.01-4.63-2.23-3.21-.42-6.43.78-9.27,2.16-2.32,1.12-3.67,2.91-3.84,5.52-.13,2.01.32,3.99.78,5.94.24,1.01.52,2.02.68,3.05.15.92.1,1.98.85,2.56Z"/><path class="m" d="M1164.47-37.99c-1.29,2.59-.72,6.53-.71,9.39,0,2.35.06,4.71.1,7.06.04,2.44.03,4.88.02,7.32-.03,4.93-.06,9.86-.06,14.79v10.78c0,4.26-.47,8.76.82,12.87.26.82,1.4.82,1.66,0,1.13-3.6.82-7.38.82-11.12V2.66c0-3.78-.01-7.56-.03-11.33-.02-3.83-.1-7.67-.04-11.5.04-2.39.1-4.79.12-7.18.01-1.7.03-3.4-.02-5.1-.06-1.89.17-3.82-.68-5.54-.38-.76-1.62-.76-2,0h0Z"/><path class="k" d="M1212.51,63.21c-3.86-5.43-8.91-10.04-15.05-13.3-4.79-2.54-9.77-4.63-15.1-5.72-2.36-.48-5.37-.53-7.42-1.91-2.03-1.36-.4-4.44-1.72-6.36-1.3-1.88-3.93-1.47-5.89-1.16-2.05.33-4.67.12-6.2,1.73-.27.28-.36.59-.35.87-.41-.02-.83.22-.8.75.25,5.29-6.05,6.27-9.85,7.89-5.6,2.38-10.78,5.92-15.35,9.91-4.35,3.79-8.01,8.11-10.56,13.3-2.45,4.99-3.75,10.07-4.43,15.57-1.34,10.78.18,21.74,6.02,31.09,9.24,14.78,27.75,22.7,44.73,23.06,17.05.36,34.34-6.23,43.76-20.82,10.7-16.57,9.42-39.18-1.77-54.9Z"/><path class="n" d="M1134.59,56.06c8.65-2.33,17.85-2.78,26.76-2.69,13.67.14,27.31,1.35,40.26,6.01,3.52,1.27,6.98,2.72,10.28,4.49.61.33,1.17.69,1.75,1.05-.37-.57-.72-1.15-1.12-1.71-.7-.99-1.46-1.93-2.24-2.86-1.2-.53-2.4-1.03-3.51-1.5-6.85-2.86-14.2-4.57-21.52-5.74-6.94-1.1-13.95-1.49-20.96-1.65-6.99-.16-13.98.03-20.9,1.12-2.04.32-4.07.73-6.07,1.22-.87.69-1.72,1.39-2.55,2.11-.06.05-.11.1-.17.15Z"/><path class="n" d="M1185.36,61.71c-17.52-2.04-36.03.4-52.45,6.86-3.55,1.39-7.02,2.99-10.44,4.69-1.37,3.7-2.2,7.5-2.7,11.52-1.09,8.77-.24,17.65,3.24,25.69,10.12-3.07,21.11-3.35,31.62-3.48,7.27-.08,14.68-.35,21.91.6,7.3.96,14.31,2.74,21.13,5.49,3.37,1.36,6.66,2.93,9.79,4.78,1.65.98,3.07,2.22,4.5,3.45.81-1.03,1.6-2.09,2.33-3.21,6.95-10.77,8.82-24.08,6.22-36.41-3.07,3.87-5.96,8.07-8.51,12.1-3.62,5.72-7.55,11.89-10.39,18.03-.48-6.56.08-13.22-.56-19.74-.4-4.08-.83-18.84-2.08-24.19,1.83.44,3.64.92,5.43,1.45,4.95,1.47,9.68,3.4,14.24,5.72-.63-1.76-1.34-3.48-2.15-5.15-2.5-1.16-5.07-2.18-7.65-3.07-7.59-2.62-15.5-4.22-23.47-5.15ZM1135.35,104.75c-2.09-4.42-4.02-9.17-5.78-13.85-1.12-2.99-2.33-5.98-3.49-8.94-.75-1.92-1.29-4.35-2.22-6.25,2.63-1.23,5.28-2.39,7.98-3.43,7.89-3.06,16.03-5.31,24.41-6.52-3.64,6.4-15.9,27.63-20.9,38.99ZM1167.21,105.25c-2.35-5.69-3.77-12.42-5.1-18.51-.86-3.98-1.23-8.01-2.16-11.98-.46-1.94-.89-6.91-2.12-9.2,13.11-1.7,26.82-.94,39.78,2.04-10.7,11.66-19.33,22.08-30.41,37.65Z"/><path class="n" d="M1208.57,125.1c-.86-.66-1.74-1.29-2.59-1.86-2.85-1.92-5.91-3.51-9.08-4.82-6.33-2.63-13.1-3.91-19.91-4.34-6.98-.44-14.12-.17-21.1.31-6.98.49-13.95,1.41-20.64,3.52-2.14.68-4.21,1.48-6.22,2.39.49.59.99,1.16,1.51,1.72,7.31-3.04,15.24-4.63,23.33-5.21,6.43-.46,12.94-.46,19.38-.27,6.63.2,13.22,1.02,19.53,3.16,3.51,1.19,6.88,2.78,10.04,4.72,1.27.78,2.49,1.65,3.71,2.54.7-.6,1.38-1.22,2.03-1.87Z"/><path class="m" d="M1158.32,40.64c.14.11.31.2.51.27.53.19,1.12.12,1.68.03,2.07-.31,4.25-.81,6.4-.94,1.83-.11,3.6.46,5.4.69,1.11.14,3.53.06,3.35-1.54-.24-2.01-.37-4-.39-6.02-.02-1.68.13-3.37.06-5.05-.07-1.61-.48-3.19-1.57-4.42-1.16-1.32-2.92-2.01-4.63-2.23-3.21-.42-6.43.78-9.27,2.16-2.32,1.12-3.67,2.91-3.84,5.52-.13,2.01.32,3.99.78,5.94.24,1.01.52,2.02.68,3.05.15.92.1,1.98.85,2.56Z"/><path class="n" d="M691.11,54.14c-2.83-8.64-9.09-16.14-16.84-20.83-2.83-1.71-5.82-3.22-9-4.16-3.35-.99-6.56-.52-9.89-1.13-2.64-.49-1.59-3.26-1.58-5.3,0-.92-.75-1.58-1.63-1.63-3.03-.17-6.35-.41-8.79,1.7-.74.64-.6,1.47-.11,2.03.3.93.38,1.82-.55,2.55-.54.42-1.35.59-1.99.79-2.29.7-4.62,1.29-6.97,1.78-4.37.93-8.68,1.86-12.66,3.98-6.76,3.6-11.15,9.67-13.11,17.01-3.59,13.42-1.45,27.08,7.33,37.93,8.48,10.48,21.94,16.59,35.51,16.2,22.67-.64,45.03-21.87,41.58-45.39-.28-1.88-.72-3.73-1.31-5.53Z"/><path class="r" d="M645.34,88.8c0,.64,0,1.3.22,1.9.45,1.19,1.72,1.92,2.98,2.1,1.26.18,2.54-.1,3.79-.38.68-.15,1.4-.33,1.88-.83.39-.41.55-.98.68-1.52.56-2.36.68-4.82.36-7.22-.04-.34-.12-.71-.41-.89-.15-.09-.33-.12-.5-.14-1.84-.24-6.38-1.35-8.02-.16-1.56,1.13-.96,5.36-.98,7.15Z"/><path class="t" d="M669.73,74.72c-2.39-1.63-4.79-3.22-7.19-4.82,2.87.98,5.91,1.48,7.78-.25,1.9-1.77.25-4.9-1.13-6.39-1.51-1.62-3.35-2.94-4.98-4.43-.94-.85-1.88-1.72-2.8-2.59.82.32,1.65.6,2.49.83,1.63.44,3.82,1.03,5.4.09,2.76-1.64.99-5.68-.41-7.6-1.37-1.88-3.33-3.13-5.25-4.37-2.6-1.67-5.05-3.61-7.33-5.7-3.47-3.18-6.41-7.64-11.45-3.77-2.06,1.58-3.43,3.87-5.19,5.75-1.87,2.01-3.87,3.75-6.13,5.29-1.54,1.06-3.24,2.19-4.36,3.71-1.92,2.6.05,4.26,2.79,4.21,3.05-.05,6.2-1,9.05-2.4-2.2,2.03-4.56,3.89-6.91,5.74-2.84,2.24-6.48,4.88-7.48,8.57-.8,2.95,2.59,2.46,4.61,2.18,3.66-.5,6.92-1.71,10.12-3.28-2.1,1.82-4.68,3.17-6.86,4.84-3.22,2.46-6.55,5.08-8.76,8.53-4.33,6.76,5.6,7.16,9.92,7.74,8.54,1.15,17.2,1.94,25.78.7,3.26-.47,6.55-1.22,9.6-2.49,1.75-.73,4.63-2.06,4.29-4.41-.37-2.5-3.7-4.44-5.59-5.72Z"/><path class="m" d="M645.38-38.85c-.72,4.44-.26,9.29-.24,13.79.02,4.91.02,9.82.08,14.73.05,4.76.1,9.52.15,14.29.05,4.65-.36,9.5.61,14.07.17.82,1.48.82,1.66,0,.94-4.43.56-9.11.61-13.62.05-4.91.1-9.82.15-14.73.05-4.76.05-9.52.07-14.29.02-4.64.5-9.65-.24-14.23-.23-1.41-2.61-1.41-2.84,0h0Z"/><path class="m" d="M638.36,18.79c.72,1.65,1.45,3.37,2.34,4.92,1.35,2.34,3.99,2.6,6.45,2.71,2.5.12,5.2-.02,7.52-1.06,2.3-1.03,3-3.18,3.31-5.47-.04-.89-.12-1.77-.17-2.56-.11-2-.1-4.01-.36-6-.28-2.13-.78-4.33-2.15-6.04-1.25-1.56-3.08-2.19-5.03-2.18-2.18,0-4.42.59-6.44,1.39-1.95.77-3.98,1.78-5.41,3.36-1.71,1.88-1.77,4.78-1.25,7.15.28,1.29.74,2.54,1.18,3.78Z"/><path class="n" d="M1340.86,126.01c-2.83-8.64-9.09-16.14-16.84-20.83-2.83-1.71-5.82-3.22-9-4.16-3.35-.99-6.56-.52-9.89-1.13-2.64-.49-1.59-3.26-1.58-5.3,0-.92-.75-1.58-1.63-1.63-3.03-.17-6.35-.41-8.79,1.7-.74.64-.61,1.47-.11,2.03.3.93.38,1.82-.55,2.55-.54.42-1.35.59-1.99.79-2.29.7-4.62,1.29-6.97,1.78-4.37.93-8.68,1.86-12.66,3.98-6.76,3.6-11.15,9.67-13.11,17.01-3.59,13.42-1.45,27.08,7.33,37.93,8.48,10.48,21.94,16.59,35.51,16.2,22.67-.64,45.03-21.87,41.58-45.39-.28-1.88-.72-3.73-1.31-5.53Z"/><path class="r" d="M1295.09,160.66c0,.64,0,1.3.22,1.9.45,1.19,1.72,1.92,2.98,2.1,1.26.18,2.54-.1,3.79-.38.68-.15,1.4-.33,1.88-.83.39-.41.55-.98.68-1.52.56-2.36.68-4.82.36-7.22-.04-.34-.12-.71-.41-.89-.15-.09-.33-.12-.5-.14-1.84-.24-6.38-1.35-8.02-.16-1.56,1.13-.96,5.36-.98,7.15Z"/><path class="t" d="M1319.48,146.59c-2.39-1.63-4.79-3.22-7.19-4.82,2.87.98,5.91,1.48,7.78-.25,1.9-1.77.25-4.9-1.13-6.39-1.51-1.62-3.35-2.94-4.98-4.43-.94-.85-1.88-1.72-2.8-2.59.82.32,1.65.6,2.49.83,1.63.44,3.82,1.03,5.4.09,2.76-1.64.99-5.68-.41-7.6-1.37-1.88-3.33-3.13-5.25-4.37-2.6-1.67-5.05-3.61-7.33-5.7-3.47-3.18-6.41-7.64-11.45-3.77-2.06,1.58-3.43,3.87-5.19,5.75-1.87,2.01-3.87,3.75-6.13,5.29-1.54,1.06-3.24,2.19-4.36,3.71-1.92,2.6.05,4.26,2.79,4.21,3.05-.05,6.2-1,9.05-2.4-2.2,2.03-4.56,3.89-6.91,5.74-2.84,2.24-6.48,4.88-7.48,8.57-.8,2.95,2.59,2.46,4.61,2.18,3.66-.5,6.92-1.71,10.12-3.28-2.1,1.82-4.68,3.17-6.86,4.84-3.22,2.46-6.55,5.08-8.76,8.53-4.33,6.76,5.6,7.16,9.92,7.74,8.54,1.15,17.2,1.94,25.78.7,3.26-.47,6.55-1.22,9.6-2.49,1.75-.73,4.63-2.06,4.29-4.41-.37-2.5-3.7-4.44-5.59-5.72Z"/><path class="m" d="M1295.09-38.47c-.64,5.87-.18,12.13-.2,18.07-.03,9.35.02,18.7.04,28.05.04,20.26.17,40.53.24,60.79.02,7.09-.1,14.15.54,21.21.1,1.1,1.62,1.11,1.72,0,.55-6.02.51-12.02.53-18.07.03-9.35.08-18.7.12-28.05.09-20.26.16-40.53.17-60.79,0-4.18-.03-8.37-.04-12.55-.01-2.87.14-5.84-.17-8.66-.21-1.89-2.74-1.9-2.95,0h0Z"/><path class="m" d="M1288.12,90.65c.72,1.65,1.45,3.37,2.34,4.92,1.35,2.34,3.99,2.6,6.45,2.71,2.5.12,5.2-.02,7.52-1.06,2.3-1.03,3-3.18,3.31-5.47-.04-.89-.12-1.77-.17-2.56-.11-2-.1-4.01-.36-6-.28-2.13-.78-4.33-2.15-6.04-1.25-1.56-3.08-2.19-5.03-2.18-2.18,0-4.42.59-6.44,1.39-1.95.77-3.98,1.78-5.41,3.36-1.71,1.88-1.77,4.78-1.25,7.15.28,1.29.74,2.54,1.18,3.78Z"/><path class="m" d="M770.91-37.22c-.45,4.45.02,9,.02,13.47s-.03,8.98-.07,13.47c-.07,8.98-.18,17.96-.12,26.94.11,17.96.11,35.92.12,53.88,0,9.87-.6,19.98.65,29.78.11.88,1.26.88,1.37,0,1.1-8.64.63-17.48.64-26.19.01-8.98-.01-17.96.01-26.94.05-17.96.15-35.92.02-53.88-.04-5.09-.1-10.18-.1-15.27s.53-10.24.02-15.27c-.17-1.64-2.39-1.65-2.56,0h0Z"/><path class="x" d="M819.49,139.86c-5.41-10.41-16.09-17.24-26.82-21.21-2.58-.95-5.57-1.52-7.81-3.19-2.05-1.53-2.34-3.8-3.5-5.89-1.17-2.1-3.38-2.87-5.68-2.88-1.4,0-2.8.33-4.19.44-1.33.11-2.64.15-3.93.5-.94-.38-2.17.04-2.12,1.36.1,2.32-1.37,4.07-3.15,5.37-1.99,1.45-4.17,2.81-6.28,4.06-4.99,2.97-10.31,5.45-14.88,9.07-8.15,6.46-14.7,16.78-16.45,27.09-1.64,9.67,1.44,19.43,7.54,26.99,6.03,7.48,14.75,12.54,23.79,15.5,17.93,5.86,38.95,3.01,53.85-8.84,14.31-11.38,18.02-32.23,9.63-48.35Z"/><path class="q" d="M748.42,192.67c-2.35-3.08-4.51-6.31-6.63-9.56-4.56-7.01-7.42-15.23-7.26-23.65.15-7.94,2.67-16.07,7.43-22.46,4.44-5.96,10.57-10.04,16.36-14.54,4.77-3.7,10.2-8.55,10.12-15.02-.3.05-.6.11-.9.19-.33-.14-.7-.17-1.04-.09-.53,6.57-6.74,11.09-11.68,14.69-5.86,4.26-11.69,8.63-15.86,14.66-4.37,6.32-6.11,14.6-6.17,22.2-.06,7.94,1.95,15.66,5.86,22.58,2.17,3.83,4.71,7.53,7.3,11.08,1.38.75,2.8,1.43,4.24,2.07-.61-.7-1.21-1.41-1.78-2.15Z"/><path class="q" d="M809.88,188.19c1.79-1.42,3.41-3,4.86-4.69,2.01-7.47,2.87-15.57,2.4-23.26-.48-7.84-2.55-15.68-7.55-21.89-4.72-5.87-10.7-10.58-16.11-15.78-1.76-1.69-3.44-3.46-5.01-5.31-1.29-.46-2.54-1-3.62-1.8-2.05-1.53-2.34-3.8-3.5-5.89-.38-.69-.89-1.22-1.46-1.65,4.21,11.19,14.53,18.85,22.81,27.34,2.55,2.61,5.05,5.34,6.84,8.54,1.99,3.55,3.14,7.5,3.77,11.5,1.2,7.67.47,15.74-.85,23.34-.57,3.25-1.45,6.44-2.58,9.54Z"/><path class="q" d="M798.04,195.25c1.88-.81,3.7-1.73,5.48-2.75,1.72-5.87,2.68-11.99,2.56-18.11-.14-7.2-1.6-14.46-4.17-21.19-2.8-7.33-6.37-14.67-10.99-21.03-3.05-4.2-6.77-8.05-8.96-12.81-1.69-3.67-2.28-7.69-2.51-11.74-.45-.27-.93-.47-1.44-.62.06,3.04.26,6.08.84,9.06.84,4.33,3.01,8.11,5.28,11.84,4.28,7.01,8.25,14.12,11.4,21.73,2.68,6.48,4.86,13.34,5.58,20.34.76,7.46-.01,14.91-2.07,22.11-.3,1.06-.64,2.11-.99,3.16Z"/><path class="q" d="M783.98,199.29c.1-1.26.17-2.53.21-3.78.3-9.1-.41-18.29-1.75-27.29-2.26-15.19-7.07-30.2-8.17-45.55-.38-5.26-.22-10.82,1.2-15.96-.58.01-1.16.07-1.74.15-.88,3.36-1.28,6.87-1.4,10.32-.24,7.16.45,14.32,1.65,21.37,2.87,16.77,6.67,33.31,7.15,50.41.1,3.57.08,7.16-.19,10.73,1.01-.1,2.02-.23,3.03-.38Z"/><path class="q" d="M768.06,194.95c-2.6-7.88-7.08-15.01-10.06-22.74-3.06-7.92-4.73-16.2-2.2-24.51,2.23-7.31,6.43-13.9,9.89-20.66,3.23-6.32,5.87-12.92,6.37-19.98-.19.02-.38.05-.58.07-.44.04-.89.07-1.33.1-1.17,14.02-11.03,25.38-15.85,38.31-2.74,7.35-3.17,15.07-1.05,22.65,2.2,7.86,6.11,15.1,9.17,22.63,1.11,2.73,1.98,5.52,2.61,8.38,1.42.23,2.85.41,4.28.54-.34-1.64-.75-3.25-1.26-4.8Z"/><path class="m" d="M762.52,96.08c-.66.69-1.23,1.44-1.57,2.34-.12.33-.18.67-.25,1.01-.1,1,.03,2.05.19,2.98.21,1.18.47,2.34.67,3.52.19,1.16.22,2.35.53,3.49.42,1.53,1.47,2.96,2.99,3.52,2.73,1.01,5.96.69,8.78.28,2.61-.38,5.84-.85,7.96-2.54,1.34-1.07,1.93-2.43,2.25-3.91-.02-1.44-.11-2.89-.12-4.33-.01-1.19,0-2.37-.09-3.55-.15-1.91-.51-4.01-2-5.36-1.69-1.53-4.06-1.78-6.24-1.64-4.2.26-9.25,1.16-12.63,3.82-.15.12-.3.25-.45.38Z"/><path class="m" d="M1492.78-37.97c-.45,4.45.02,9,.02,13.47s-.03,8.98-.07,13.47c-.07,8.98-.18,17.96-.12,26.94.11,17.96.11,35.92.12,53.88,0,9.87-.6,19.98.65,29.78.11.88,1.26.88,1.37,0,1.1-8.64.63-17.48.64-26.19.01-8.98-.01-17.96.01-26.94.05-17.96.15-35.92.02-53.88-.04-5.09-.1-10.18-.1-15.27s.53-10.24.02-15.27c-.17-1.64-2.39-1.65-2.56,0h0Z"/><path class="t" d="M1541.35,139.12c-5.41-10.41-16.09-17.24-26.82-21.21-2.58-.95-5.57-1.52-7.81-3.19-2.05-1.53-2.34-3.8-3.5-5.89-1.17-2.1-3.38-2.87-5.68-2.88-1.4,0-2.8.33-4.19.44-1.33.11-2.64.15-3.93.5-.94-.38-2.17.04-2.12,1.36.1,2.32-1.37,4.07-3.15,5.37-1.99,1.45-4.17,2.81-6.28,4.06-4.99,2.97-10.31,5.45-14.88,9.07-8.15,6.46-14.7,16.78-16.45,27.09-1.64,9.67,1.44,19.43,7.54,26.99,6.03,7.48,14.75,12.54,23.79,15.5,17.93,5.85,38.95,3.01,53.85-8.84,14.31-11.38,18.02-32.23,9.63-48.35Z"/><path class="n" d="M1470.29,191.92c-2.35-3.08-4.51-6.31-6.63-9.56-4.56-7.01-7.42-15.23-7.26-23.65.15-7.94,2.67-16.07,7.43-22.46,4.44-5.96,10.57-10.04,16.36-14.54,4.77-3.7,10.2-8.55,10.12-15.02-.3.05-.6.11-.9.19-.33-.14-.7-.17-1.04-.09-.53,6.57-6.74,11.09-11.68,14.69-5.86,4.26-11.69,8.63-15.86,14.66-4.37,6.32-6.11,14.6-6.17,22.2-.06,7.94,1.95,15.66,5.86,22.58,2.17,3.83,4.71,7.53,7.3,11.08,1.38.75,2.8,1.43,4.24,2.07-.61-.7-1.21-1.41-1.78-2.15Z"/><path class="n" d="M1531.75,187.45c1.79-1.42,3.41-3,4.86-4.69,2.01-7.47,2.87-15.57,2.4-23.26-.48-7.84-2.55-15.68-7.55-21.89-4.72-5.87-10.7-10.58-16.11-15.78-1.76-1.69-3.44-3.46-5.01-5.31-1.29-.46-2.54-1-3.62-1.8-2.05-1.53-2.34-3.8-3.5-5.89-.38-.69-.89-1.22-1.46-1.65,4.21,11.19,14.53,18.85,22.81,27.34,2.55,2.61,5.05,5.34,6.84,8.54,1.99,3.55,3.14,7.5,3.77,11.5,1.2,7.67.47,15.74-.85,23.34-.57,3.25-1.45,6.44-2.58,9.54Z"/><path class="n" d="M1519.91,194.51c1.88-.81,3.7-1.73,5.48-2.75,1.72-5.87,2.68-11.99,2.56-18.11-.14-7.2-1.6-14.46-4.17-21.18-2.8-7.33-6.37-14.67-10.99-21.03-3.05-4.2-6.77-8.05-8.96-12.81-1.69-3.67-2.28-7.69-2.51-11.74-.45-.27-.93-.47-1.44-.62.06,3.04.26,6.08.84,9.06.84,4.33,3.01,8.11,5.28,11.84,4.28,7.02,8.25,14.12,11.4,21.73,2.68,6.48,4.86,13.34,5.58,20.34.76,7.46-.01,14.91-2.07,22.11-.3,1.06-.64,2.11-.99,3.16Z"/><path class="n" d="M1505.85,198.54c.1-1.26.17-2.53.21-3.78.3-9.1-.41-18.29-1.75-27.29-2.26-15.19-7.07-30.2-8.17-45.55-.38-5.26-.22-10.82,1.2-15.96-.58.01-1.16.07-1.74.15-.88,3.36-1.28,6.87-1.4,10.32-.24,7.16.45,14.32,1.65,21.37,2.87,16.77,6.67,33.31,7.15,50.41.1,3.57.08,7.16-.19,10.73,1.01-.1,2.02-.23,3.03-.38Z"/><path class="n" d="M1489.92,194.21c-2.6-7.88-7.08-15.01-10.06-22.74-3.06-7.92-4.73-16.2-2.2-24.51,2.23-7.31,6.43-13.9,9.89-20.66,3.23-6.32,5.87-12.92,6.37-19.98-.19.02-.38.05-.58.07-.44.04-.89.07-1.33.1-1.17,14.02-11.03,25.38-15.85,38.31-2.74,7.35-3.17,15.07-1.05,22.65,2.2,7.86,6.11,15.1,9.17,22.63,1.11,2.73,1.98,5.52,2.61,8.38,1.42.23,2.85.41,4.28.54-.34-1.64-.75-3.25-1.26-4.8Z"/><path class="m" d="M1484.38,95.34c-.66.69-1.23,1.44-1.57,2.34-.12.33-.18.67-.25,1.01-.1,1,.03,2.05.19,2.98.21,1.18.47,2.34.66,3.52.19,1.16.22,2.35.53,3.49.42,1.53,1.47,2.96,2.99,3.52,2.73,1.01,5.96.69,8.78.28,2.61-.38,5.84-.85,7.96-2.54,1.34-1.07,1.93-2.43,2.25-3.91-.02-1.44-.11-2.89-.12-4.33-.01-1.18,0-2.37-.09-3.55-.15-1.91-.51-4.01-2-5.36-1.69-1.53-4.06-1.78-6.24-1.64-4.2.26-9.25,1.16-12.63,3.82-.15.12-.3.25-.45.38Z"/><path class="m" d="M884.41-39.74c-.53,2.29.07,4.65.1,6.98.03,2.38-.07,4.76-.12,7.14-.11,5.05-.18,10.11-.18,15.17,0,4.91,0,9.81.01,14.72,0,4.77-.36,9.76.51,14.47.13.7,1.29.7,1.42,0,.84-4.56.5-9.4.51-14.02,0-5.06,0-10.11.01-15.17,0-4.9-.07-9.82-.17-14.72-.05-2.38-.15-4.76-.14-7.14.01-2.46.67-5.01.11-7.42-.24-1.02-1.83-1.02-2.06,0h0Z"/><path class="t" d="M922.7,45.82c-4.41-7.87-11.86-14.41-20.51-17.16-2.67-.85-5.43-1.22-8.12-1.96-1.21-.33-2.26-.55-2.76-1.74-.32-.75-.3-1.62-.63-2.38-1.5-3.46-7.22-3.13-10.04-1.73-.42.21-.68.49-.83.82-.59-.04-1.21.31-1.14,1.02.2,1.98.71,5.18-.89,6.62-1.68,1.52-4.18,2.54-6.16,3.61-4.06,2.2-7.91,4.49-11.55,7.35-6.48,5.09-11.99,11.34-13.75,19.61-3.22,15.11,3.43,30.27,19.66,37.41,7.58,3.33,16.51,3.65,24.68,2.91,8.42-.76,16.51-3.35,23.21-8.63,6.87-5.41,12.02-13.33,13.37-22.04,1.26-8.13-.54-16.55-4.55-23.71Z"/><path class="m" d="M876.56,25.4c.29,1.33.62,2.8,1.28,4.04,3.42-1.47,7.05-2.19,10.76-2.74,1.54-.23,3.38-.52,5.19-.54-.27-2.99-.49-5.97-.79-8.96-.28-2.87-1.06-6.11-4.32-6.75-3.29-.64-7.38.43-10.24,2.11-1.17.69-2.14,1.65-2.6,2.96-.48,1.36-.33,2.86-.15,4.26.25,1.88.46,3.77.86,5.62Z"/><path class="x" d="M894.46,50.11c-2.82-1-5.82-1.65-8.79-1.33-2.97.32-5.92,1.7-7.66,4.13-2.14,2.99-2.15,6.98-1.79,10.65.25,2.58.73,5.31,2.48,7.22,1,1.09,2.33,1.81,3.71,2.35,3.72,1.46,8.01,1.65,11.69.1,3.68-1.55,6.64-4.94,7.24-8.89.82-5.39-1.48-12.31-6.87-14.23Z"/><path class="n" d="M863.09,45.78c-1.53,1.22-2.51,3.23-2.17,5.15.36,2.07,2.28,3.73,4.38,3.88,2.1.15,4.19-1.19,5.03-3.11,2.03-4.67-3.05-9.25-7.24-5.92Z"/><path class="n" d="M883.9,40.02c.8,1.01,2.06,1.57,3.32,1.87,1.55.37,3.36.32,4.53-.76.52-.48.87-1.13,1.1-1.8,4.01-11.78-14.47-6.29-8.94.69Z"/><path class="n" d="M908.22,45.67c-1.1.89-1.79,2.24-2,3.64-.21,1.38.06,2.9,1.02,3.91,1.41,1.49,4.13,2.07,5.99,1.23,2.31-1.05,3.22-3.7,2.63-6.06-.89-3.58-4.67-5.14-7.64-2.73Z"/><path class="n" d="M907.38,73.32c-.14,1.51.04,3.13.98,4.32,1.11,1.41,3.17,1.91,4.88,1.37s3.05-2,3.68-3.69c2.12-5.74-8.82-9.97-9.54-2Z"/><path class="n" d="M887.36,82.71c-.49.27-.93.61-1.3,1.02-1.49,1.63-1.77,5.18.28,6.54.48.32,1.05.47,1.62.53,2.8.3,5.64-1.73,6.31-4.46.62-2.51-.75-4.12-3.31-4.36-1.24-.11-2.53.13-3.61.73Z"/><path class="n" d="M860.68,72.33c-.9.55-1.5,1.44-1.77,2.79-.77,3.82,1.68,5.4,5.21,5.45.91.01,1.86-.04,2.68-.45,1.09-.54,1.81-1.65,2.1-2.83.68-2.7-.23-5.21-3.21-5.67-1.54-.23-3.64-.13-5.02.71Z"/><path class="m" d="M1402.85-38.54c-.7,2.45.06,5.38.11,7.9.06,2.81-.02,5.63-.05,8.45-.07,6.34-.09,12.68-.03,19.02.06,6.34.13,12.68.18,19.02.04,5.28-.48,11.06.58,16.26.14.7,1.28.7,1.42,0,1.06-5.2.47-10.99.43-16.26-.04-6.34-.1-12.68-.15-19.02-.06-6.34-.2-12.68-.36-19.02-.07-2.81-.18-5.63-.15-8.45.03-2.53.78-5.45.08-7.9-.29-1.02-1.77-1.02-2.06,0h0Z"/><path class="s" d="M1441.61,59.2c-4.41-7.87-11.86-14.41-20.51-17.16-2.67-.85-5.43-1.22-8.12-1.96-1.21-.33-2.26-.55-2.76-1.74-.32-.75-.3-1.62-.63-2.38-1.5-3.46-7.22-3.13-10.04-1.73-.42.21-.68.49-.83.82-.59-.04-1.21.31-1.14,1.02.2,1.98.71,5.18-.89,6.62-1.68,1.52-4.18,2.54-6.16,3.61-4.06,2.2-7.91,4.49-11.55,7.35-6.48,5.09-11.99,11.34-13.75,19.61-3.22,15.11,3.43,30.27,19.66,37.41,7.58,3.33,16.51,3.65,24.68,2.91,8.42-.76,16.51-3.35,23.21-8.63,6.87-5.41,12.02-13.33,13.37-22.04,1.26-8.13-.54-16.55-4.55-23.71Z"/><path class="m" d="M1395.47,38.78c.29,1.33.62,2.8,1.28,4.04,3.42-1.47,7.05-2.19,10.76-2.74,1.54-.23,3.38-.52,5.19-.54-.27-2.99-.49-5.97-.79-8.96-.28-2.87-1.06-6.11-4.32-6.75-3.29-.64-7.38.43-10.24,2.11-1.17.69-2.14,1.65-2.6,2.96-.48,1.36-.33,2.86-.15,4.26.25,1.88.46,3.77.86,5.62Z"/><path class="x" d="M1413.38,63.49c-2.82-1-5.82-1.65-8.79-1.33-2.97.32-5.92,1.7-7.66,4.13-2.14,2.99-2.15,6.98-1.79,10.65.25,2.58.73,5.31,2.48,7.22,1,1.09,2.33,1.81,3.71,2.35,3.72,1.46,8.01,1.65,11.69.1,3.68-1.55,6.64-4.94,7.24-8.89.82-5.39-1.48-12.31-6.87-14.23Z"/><path class="n" d="M1382.01,59.16c-1.53,1.22-2.51,3.23-2.17,5.15.36,2.07,2.28,3.73,4.38,3.88,2.1.15,4.19-1.19,5.03-3.11,2.03-4.67-3.05-9.25-7.24-5.92Z"/><path class="n" d="M1402.81,53.41c.8,1.01,2.06,1.57,3.32,1.87,1.55.37,3.36.32,4.53-.76.52-.48.87-1.13,1.1-1.8,4.01-11.78-14.47-6.29-8.94.69Z"/><path class="n" d="M1427.13,59.06c-1.1.89-1.79,2.24-2,3.64-.21,1.38.06,2.9,1.02,3.91,1.41,1.49,4.13,2.07,5.99,1.23,2.31-1.05,3.22-3.7,2.63-6.06-.89-3.58-4.67-5.14-7.64-2.73Z"/><path class="n" d="M1426.29,86.71c-.14,1.51.04,3.13.98,4.32,1.11,1.41,3.17,1.91,4.88,1.37,1.71-.54,3.05-2,3.68-3.69,2.12-5.74-8.82-9.97-9.54-2Z"/><path class="n" d="M1406.27,96.09c-.49.27-.93.61-1.3,1.02-1.49,1.63-1.77,5.18.28,6.54.48.32,1.05.47,1.62.53,2.8.3,5.64-1.73,6.31-4.46.62-2.51-.75-4.12-3.31-4.36-1.24-.11-2.53.13-3.61.73Z"/><path class="n" d="M1379.59,85.71c-.9.55-1.5,1.44-1.77,2.79-.77,3.82,1.68,5.4,5.21,5.45.91.01,1.86-.04,2.68-.45,1.09-.54,1.81-1.65,2.1-2.83.68-2.7-.23-5.21-3.21-5.67-1.54-.23-3.64-.13-5.02.71Z"/></g></g></g></svg>