<?xml version="1.0" encoding="utf-8"?>
<!-- Generator: Adobe Illustrator 26.1.0, SVG Export Plug-In . SVG Version: 6.00 Build 0)  -->
<svg version="1.0" xmlns="http://www.w3.org/2000/svg" xmlns:xlink="http://www.w3.org/1999/xlink" x="0px" y="0px"
	 viewBox="0 0 1920 1080" xml:space="preserve">
<style type="text/css">
	.st0{fill:#FFCA00;}
	.st1{fill:#FFFFFF;}
</style>
<g transform="translate(81 945)">
	<path class="st0" d="M133.6-12.2c0,14-6.4,26.4-16.2,33.7v-11c1.8-2.1,3.3-4.4,4.5-6.9l3.6-3.6h-2.1c1.3-3.8,2.1-7.9,2.1-12.2
		c0-9-3.2-17.1-8.4-23c-5.1-5.8-12.2-9.4-20-9.4c-7.5,0-14.7,2-21.2,5.5c-4,2.2-7.8,4.9-11.2,8.2C52.5-19,44.5-0.5,44.5,20.2
		c0,0.1,0,0.2,0,0.3c0,2.8,0.2,5.7,0.5,8.4c-1.4-0.4-3-0.6-4.5-0.6c-1.3,0-2.5,0.1-3.6,0.4c-1.4,0.3-2.7,0.8-3.9,1.5
		c-3.1,1.6-5.6,4.3-7.1,7.5c-0.7-3.7-1.1-7.5-1.3-11.4c-0.1-2-0.2-4-0.2-6c0-22.5,7.4-43.6,20.9-59.6c1.5-1.8,3.1-3.5,4.8-5.2h-58
		l-8.1-8.1h92.6c-5,2-9.8,4.8-14.2,8.1C44.3-30.9,32.4-7,32.4,20.2c0,0.5,0,0.9,0,1.4c1.3-0.5,2.6-0.8,4-1c0-0.1,0-0.2,0-0.3
		c0-28.2,13.4-52.7,32.9-64.8C73-46.8,76.9-48.7,81-50c4.8-1.6,9.9-2.5,15.1-2.6c0.2,0,0.3,0,0.5,0c0.2,0,0.4,0,0.6,0
		c14.1,0,26.3,8.8,32.3,21.8c1.4,3,2.5,6.3,3.2,9.7C133.3-18.2,133.6-15.2,133.6-12.2z"/>
	<path id="enpjJ" class="st1" d="M101.2,32.4v36.4c0,2.2-1.8,4-4.1,4h-0.5c-0.8,3.2-2.6,6-5,8.1h5.5c6.7,0,12.2-5.4,12.2-12.1V32.4
		H101.2z"/>
	<path id="enpJj" class="st1" d="M85,32.4v36.4c0,2.2-1.8,4-4.1,4h-8.1l0,8.1H81c6.7,0,12.2-5.4,12.2-12.1V32.4H85z"/>
	<path id="enPjj" class="st1" d="M68.8,32.4c-6.7,0-12.1,5.4-12.1,12.1v8.1c0,0,0,0,0,0h0V81h8.1V64.1c1.3,0.4,2.6,0.7,4,0.7
		c6.7,0,12.1-5.4,12.1-12.1v-8.1C81,37.8,75.6,32.4,68.8,32.4z M72.9,52.6c0,2.2-1.8,4-4,4s-4-1.8-4-4v-8.1c0-2.2,1.8-4,4-4
		s4,1.8,4,4V52.6z"/>
	<path id="eNpjj" class="st1" d="M40.5,32.4c-6.7,0-12.1,5.4-12.1,12.1V81h8.1V44.5c0-2.2,1.8-4,4-4c2.2,0,4,1.8,4,4V81h8.1V44.5
		C52.6,37.8,47.2,32.4,40.5,32.4z"/>
	<path id="Enpjj" class="st1" d="M24.3,60.7V44.5c0-6.7-5.4-12.1-12.1-12.1S0,37.8,0,44.5v24.3C0,75.6,5.4,81,12.1,81
		s12.1-5.4,12.1-12.1h-8.1c0,2.2-1.8,4-4,4c-2.2,0-4-1.8-4-4v-8.1H24.3z M8.1,44.5c0-2.2,1.8-4,4-4c2.2,0,4,1.8,4,4v8.1H8.1V44.5z"
		/>
	<path class="st1" d="M85,26v2.3H56.7V8.1L63,1.8c0.7,2.2,1.6,4.3,2.6,6.3C69.9,16.4,76.8,22.8,85,26z"/>
	<path class="st1" d="M125.5,0l-8.1,8.1v20.3h-8.1V26l0-5.8c0-1-0.4-1.9-1-2.6c-0.7-0.9-1.8-1.4-3.1-1.4c-2.1,0-3.9,1.6-4,3.7
		c-1.3,0.2-2.7,0.3-4.1,0.3c-8.9,0-16.9-4.7-22.1-12.1C73.4,5.7,72,2.9,70.9,0H125.5z"/>
	<path class="st0" d="M109.3,26c-1.3,0.5-2.7,1-4,1.3c-1.3,0.3-2.7,0.6-4,0.8c-1.3,0.2-2.7,0.2-4,0.2c-1.4,0-2.7-0.1-4.1-0.2
		c-2.8-0.3-5.5-1-8.1-2.1c-8.2-3.2-15.1-9.7-19.4-17.9c-1-2-1.9-4.1-2.6-6.3c-1.4-4.4-2.2-9.1-2.2-14c0-3.1,0.3-6.1,0.9-9
		c4.3-5.8,9.6-10.6,15.6-14c-5.2,5.9-8.4,14-8.4,23c0,4.3,0.7,8.4,2.1,12.2c1,2.9,2.4,5.7,4.2,8.1c5.2,7.4,13.2,12.1,22.1,12.1
		c1.4,0,2.7-0.1,4.1-0.3c1.4-0.2,2.7-0.6,4-1c1.1-0.4,2.1-0.8,3.1-1.3c0.6,0.7,1,1.6,1,2.6L109.3,26z"/>
</g>
</svg>
