<?xml version="1.0" encoding="UTF-8"?><svg id="a" xmlns="http://www.w3.org/2000/svg" viewBox="0 0 154.99 100"><defs><style>.j{fill:#a01;}.k{fill:#1560bd;}</style></defs><g id="b"><path id="c" d="M124.99,40v45c0,2.76-2.25,5-5,5h-.62c-1.02,3.93-3.2,7.39-6.15,10h6.78c8.29,0,15-6.71,15-15v-45h-10Z"/><path id="d" d="M104.99,40v45c0,2.76-2.24,5-5,5h-9.99v10h9.99c8.29,0,15-6.71,15-15v-45h-10Z"/><path id="e" d="M84.99,40c-8.29,0-15,6.71-15,15v10s0,0,0,0h0v35h10v-20.86c1.56.55,3.25.86,5,.86,8.29,0,15-6.72,15-15v-10c0-8.29-6.71-15-15-15ZM89.99,65c0,2.76-2.24,5-5,5s-5-2.24-5-5v-10c0-2.76,2.24-5,5-5s5,2.24,5,5v10Z"/><path id="f" d="M49.99,40c-8.29,0-15,6.71-15,15v45h10v-45c0-2.76,2.24-5,5-5s5,2.24,5,5v45h10v-45c0-8.29-6.71-15-15-15Z"/><path id="g" d="M30,75v-20c0-8.29-6.71-15-15-15S0,46.71,0,55v30c0,8.28,6.71,15,15,15s15-6.72,15-15h-10c0,2.76-2.24,5-4.99,5s-5-2.24-5-5v-10h20ZM10,55c0-2.76,2.24-5,5-5s4.99,2.24,4.99,5v10h-9.99v-10Z"/><path id="h" class="j" d="M69.99,10v25h35v-5c0-2.76,2.24-5,5-5s5,2.24,5,5v5s10,0,10,0v-10c0-2.76,2.23-5,5-5s5,2.24,5,5v10h10.01V10h-75Z"/><polygon id="i" class="k" points="79.98 0 69.99 10 144.99 10 154.99 0 79.98 0"/></g></svg>