<?xml version="1.0" encoding="utf-8"?>
<!-- Generator: Adobe Illustrator 26.1.0, SVG Export Plug-In . SVG Version: 6.00 Build 0)  -->
<svg version="1.0" id="Calque_1" xmlns="http://www.w3.org/2000/svg" xmlns:xlink="http://www.w3.org/1999/xlink" x="0px" y="0px"
	 viewBox="0 0 1920 1080" xml:space="preserve">
<style type="text/css">
	.st0{fill:#27AAE2;}
	.st1{fill:#CFD1D3;}
	.st2{fill:#E63643;}
	.st3{fill:#6D6F71;}
	.st4{fill:#FFFFFF;}
	.st5{fill:none;}
</style>
<g transform="translate(81 54)">
	<path class="st0" d="M82.5,71.8c0,0.3-0.3,0.5-0.6,0.5l-6,0c-0.3,0-0.6-0.2-0.6-0.5l0-6.1c0-0.3,0.3-0.5,0.6-0.6l6,0
		c0.3,0,0.6,0.2,0.6,0.5L82.5,71.8z"/>
	<path class="st1" d="M92.8,71.8c0,0.3-0.3,0.5-0.6,0.5l-6,0c-0.3,0-0.6-0.2-0.6-0.5l0-6.1c0-0.3,0.3-0.5,0.6-0.6l6,0
		c0.3,0,0.6,0.2,0.6,0.5L92.8,71.8z"/>
	<path class="st2" d="M103.3,71.8c0,0.3-0.3,0.5-0.6,0.5l-6,0c-0.3,0-0.6-0.2-0.6-0.5l0-6.1c0-0.3,0.3-0.5,0.6-0.6l6,0
		c0.3,0,0.6,0.2,0.6,0.5L103.3,71.8z"/>
	<g>
		<path class="st3" d="M76.4,40.3c-0.5,0.1-0.7,0.4-0.7,0.9c0.1,0.5,0.6,1.1,1,1.1c0.1,0,0.2,0,0.4,0c0.8,0,2.2,0.1,3,0.2
			c0.5,0.1,1.6,0.5,2,1.3c0.3,0.6,0.1,1.4-0.4,2.2c-1.7,2.6-5.2,2.7-6.6,2.8c-0.2,0-0.4,0-0.5,0c-0.3,0-0.4,0.2-0.4,0.4
			c0,0.3,0.5,0.8,1.4,0.8h0c2.1,0,9.1-0.4,9.2-5.4c0-1.1-0.3-2.1-1-2.8c-1.5-1.6-4.4-1.8-5.5-1.8C77.7,40.1,77,40.2,76.4,40.3z
			 M75.8,50L75.8,50L75.8,50L75.8,50z"/>
		<path class="st3" d="M112.1,57.4l-0.2-0.1c-3.1-1.5-13.2-6.5-15.5-8.9c-0.3-0.4-0.7-0.7-1.1-1.1c-2.6-2.5-6.2-5.8-3.6-13.5
			c1-2.9,1.9-5,2.6-6.7c1.5-3.5,2.3-5.4,2.1-9.4c0-0.8-0.7-1.7-1.3-1.7c-0.2,0-0.7,0.1-0.8,1.1l0,0.3c-0.2,2.1-0.6,5.7-3.1,11.1
			l-0.1,0.2c-2.6,5.8-6.3,13.8,2.2,20.4c8.6,6.7,18,9.3,19,9.4c0.1,0,0.2,0,0.2,0c0.3,0,0.4-0.1,0.5-0.2
			C113.2,58.1,112.5,57.6,112.1,57.4z"/>
		<path class="st3" d="M94,36.2c-0.1,0.3,0,0.7,0.4,1.2c0.2,0.2,0.5,0.3,1,0.3c0.6,0,1.4-0.1,2.3-0.2c0.4-0.1,0.8-0.1,1.2-0.2
			c1.4-0.2,3.2-0.3,4.6-0.5l0.9-0.1c0.4,0,0.8-0.1,1.4-0.1c1.6-0.2,3.8-0.4,4.7-0.4l0.1,0c0.4,0,0.4-0.2,0.4-0.3
			c0-0.5-1-1.2-2.2-1.4c-0.3-0.1-0.8-0.1-1.5-0.1c-3.6,0-11.4,0.6-12.4,1C94.4,35.6,94.1,35.9,94,36.2z"/>
		<path class="st3" d="M24.6,51.5c-0.6,0.4-1.2,0.9-1.8,1.2c-1.1,0.7-3.5,1.8-4.4,2.1c-1.2,0.4-2.6,0.7-4,0.7
			c-3.6,0-7.1-1.5-9.1-3.9c-2-2.3-2.7-5.5-2.1-9.1C3.8,38.8,7,31,15.1,26.1c2.1-0.9,1.6-2,1.6-2l0-0.1l-0.1,0
			C6.4,26.7,2.3,34.6,0.6,40.8c-1.5,5.6,0,9.5,1.6,11.9c2,3,5.4,5.1,8.7,5.4c1.1,0.1,2.1,0.2,3.2,0.2c1.3,0,2.6-0.2,3.8-0.5l0,0
			c1.6-0.4,3.3-1.1,5-2.1c0.6-0.3,1.2-0.7,1.8-1.1c0.7-0.4,1.2-0.9,2-1.5l0,0v-3.3L26.5,50C25.9,50.6,25.3,51.1,24.6,51.5z"/>
		<path class="st3" d="M50.1,45.1c0.3,1.9,1.2,3.7,1.9,3.7c0.1,0,0.1,0,0.2-0.1c0.6-0.4,0.5-1.5,0.3-2.5c-0.1-0.3-0.1-0.7-0.2-1.2
			c-0.2-1.3-0.5-3.1-0.9-4c-0.2-0.6-1.1-1.6-2.4-2l-0.1,0c0,0-0.1,0-0.1,0l-0.1,0l0,2.6l0.1,0C49.6,41.9,50.1,43.1,50.1,45.1z"/>
		<path class="st3" d="M89.8,57.3c-1,0-2.3,0.2-3.3,0.3c-0.6,0.1-2,0.3-3.8,0.6c-3.3,0.5-7.8,1.2-9.4,1.4c-0.4,0-0.9,0.1-1.5,0.2
			c1.2-6.5,2.5-14,2.7-15.4c0.1-0.5-0.2-1.2-0.5-1.6c-0.2-0.2-0.4-0.4-0.6-0.4c-0.2,0-0.5,0.1-0.7,0.8c-0.2,0.7-1.8,8.3-3.5,16.9
			c-1.5,0.2-6,0.7-8.8,0.9c2-9.5,3.9-18.7,4.7-22.1c5.9-6.7,11.5-15.4,13.8-21.7C79.2,16,83,5.8,80.4,3.3C80,2.9,79.5,2.7,79,2.7
			c-5.9,0-14.6,30.5-14.6,30.8c-0.2,0.7-0.5,1.8-0.9,3.3c-1.2,1.4-2.3,2.7-3.2,3.7c-1.1,1.2-1.8,2-2,2.4c-0.4,0.6-0.9,1.7-0.7,2.2
			c0,0.1,0.1,0.2,0.3,0.2c0.3,0,0.8-0.3,1.6-0.9c0.9-0.8,1.8-1.6,2.7-2.5c-1.1,4.4-3,11.7-3.4,14.5c-0.1,0.8-0.3,2.1-0.6,3.7
			L58,61.2c-0.8,0-1.9,0.1-3,0.2c-1.6,0.1-3.2,0.2-3.9,0.2c-1,0-1.6,0.3-1.7,0.8c-0.1,0.3-0.1,0.7,0.1,0.9c0.2,0.2,0.4,0.3,0.8,0.3
			l0,0c2.3-0.1,4.8-0.2,7.3-0.3c-0.4,2.7-1,6.6-1.4,9.9c-0.2,1.6-0.6,5.5-0.6,6.9c0,0.3,0,0.4,0.1,0.5l0.1,0h0
			c0.1,0,0.2-0.1,0.2-0.2c0,0,0,0,0,0l0.1,0c0.3-1.3,1.6-7.5,3.1-14.8l0.5-2.4c3.1-0.2,6-0.5,8.8-0.8c-1.8,9.1-4.6,24.7-4.4,27.9
			c0,0.2,0.3,0.7,0.6,0.7h0c0.4,0,0.8-0.7,1-2.2c0.7-4.4,2.2-10.7,3.1-14.5c0.3-1.1,0.5-2.1,0.6-2.6c0.2-1,0.9-4.6,1.8-9.7
			c1.5-0.2,2.8-0.4,4-0.6c7-1.2,15.5-2.8,16-3.4l0-0.1l0-0.1C91.4,57.4,90.8,57.3,89.8,57.3z M66.8,32.8C72,16.3,75.3,10,78,6.1
			c0.6-0.9,0.9-1,0.9-1c0,0,0.1,0,0.1,0.1c0.6,1-1.4,9.2-4.7,16.2C72.9,24.5,70.4,28.3,66.8,32.8z"/>
	</g>
	<g>
		<g>
			<path class="st4" d="M30.8,30.8c-0.5-2.4,5.4-19.5,6.1-21c0.7-1.5-0.2-2.9-1.4-1.8c-0.8,0.8-7.3,16.9-5.7,23.3
				c0.9,2.5,2.1,2.1,2.1,2.1s-0.1-0.4-0.4-0.8C31.1,32.3,31,31.8,30.8,30.8z"/>
		</g>
		<path class="st5" d="M31.9,33.4c0,0-0.1-0.4-0.4-0.8c-0.4-0.4-0.4-0.8-0.6-1.8c-0.5-2.4,5.4-19.5,6.1-21c0.7-1.5-0.2-2.9-1.4-1.8
			c-0.8,0.8-7.3,16.9-5.7,23.3C30.7,33.8,31.9,33.4,31.9,33.4z"/>
		<path class="st0" d="M48.5,41.4c-0.5-0.1-0.9-0.1-1.5,0.1l-0.1,0c-1,0.4-1.9,1.5-2.3,2.8c-1.3,4.3-2.2,5.4-3.3,5.9l-0.2,0.1l0-0.2
			c0.1-1.3,0.4-5.6,0.1-7.7c-0.1-0.7-0.3-0.8-0.6-0.8c-1.1,0-4.1,2.7-10.7,8.7c-1,0.9-1.9,1.7-2.9,2.5c0,0-0.1,0-0.1,0.1
			c0,0-0.1,0.1-0.1,0.1l-0.2,0.1V81h21.8V41.5l0,0C48.5,41.4,48.5,41.4,48.5,41.4z"/>
		<g>
			<path class="st5" d="M30.8,30.8c-0.5-2.4,5.4-19.5,6.1-21c0.7-1.5-0.2-2.9-1.4-1.8c-0.8,0.8-7.3,16.9-5.7,23.3
				c0.9,2.5,2.1,2.1,2.1,2.1s-0.1-0.4-0.4-0.8C31.1,32.3,31,31.8,30.8,30.8z"/>
			<path class="st4" d="M48.6,29.4c-0.1,0-0.2,0.1-0.3,0.2c-2.8,2.4-6,2.6-8,1.9c1.3-0.8,2.4-1.7,2.8-2.1c0.3-0.4,1.6-2.5-0.8-3.5
				c-3.4-1.3-7,2.7-4.6,5.6c-1.2,0.8-2.4,1.5-3.2,1.8c-0.3,0.1-0.8,0.3-0.9,0.3c-0.1,0-0.4,0.1-0.1,0.5c0.3,0.4,2.7-0.1,3.5-0.5
				c0.5-0.3,1.2-0.7,1.8-1.1c0,0,0,0,0.1,0c3.8,2.4,8.1-0.4,9.7-1.8V29.4z M39.6,28.1c0.3-0.3,0.8-0.5,1.2-0.5
				c0.2,0,0.5,0.1,0.6,0.3c0,0,0,0,0,0.1c0,0.4-1,1.4-2.5,2.5C38.5,29.7,38.9,28.7,39.6,28.1z"/>
			<path class="st0" d="M41.4,27.9C41.4,27.9,41.4,27.9,41.4,27.9c-0.2-0.3-0.4-0.3-0.7-0.3c-0.4,0-0.8,0.2-1.2,0.5
				c-0.7,0.6-1.1,1.6-0.6,2.3C40.4,29.3,41.4,28.3,41.4,27.9z"/>
			<path class="st0" d="M26.8,0v49.8l0.2-0.2c1.7-1.4,3.3-2.9,4.9-4.4c1.7-1.6,3.4-3.1,4.8-4.2c1.5-1.2,2.9-1.8,4-1.8
				c1.4,0,2.4,0.9,2.8,2.5c1.2-1.6,2.2-2.4,3.3-2.7l0.1,0c0.6-0.1,1.1-0.2,1.7-0.1v-2.6v-5.6c-1.6,1.3-6,4.2-9.7,1.8c0,0,0,0-0.1,0
				c-0.7,0.4-1.3,0.8-1.8,1.1c-0.7,0.4-3.2,0.9-3.5,0.5c-0.3-0.4,0-0.5,0.1-0.5c0.1,0,0.6-0.2,0.9-0.3c0.8-0.2,2-0.9,3.2-1.8
				c-2.4-2.9,1.1-6.9,4.6-5.6c2.4,0.9,1.2,3,0.8,3.5c-0.4,0.5-1.5,1.3-2.8,2.1c2,0.8,5.2,0.6,8-1.9c0.1-0.1,0.2-0.1,0.3-0.2v-5.7V0
				H26.8z M29.8,31.3C28.2,24.9,34.7,8.8,35.5,8c1.3-1.2,2.2,0.2,1.4,1.8c-0.7,1.5-6.6,18.7-6.1,21c0.2,1,0.3,1.4,0.6,1.8
				c0.4,0.4,0.4,0.8,0.4,0.8S30.7,33.8,29.8,31.3z"/>
		</g>
		<path class="st4" d="M48.6,38.9c-0.6-0.1-1.1-0.1-1.7,0l0,0c-1.1,0.3-2.2,1.2-3.4,2.7c-0.4-1.6-1.4-2.5-2.8-2.5
			c-1.1,0-2.5,0.6-4,1.8c-1.4,1.1-3,2.6-4.8,4.2c-1.6,1.5-3.2,3-4.9,4.4c0,0-0.1,0.1-0.1,0.1c0,0,0,0-0.1,0.1l-0.1,0.1l0,3.2
			c0,0,0.3-0.3,0.3-0.3c1-0.8,1.9-1.6,2.9-2.5c6.6-6.1,9.6-8.7,10.7-8.7c0.2,0,0.5,0.1,0.6,0.8c0.3,2.2,0,6.4-0.1,7.7l0,0.2l0.2-0.1
			c1-0.5,1.9-1.6,3.3-5.9c0.4-1.3,1.6-2.6,2.4-2.8c0.8-0.2,1.4-0.1,1.7-0.1L48.6,38.9z"/>
	</g>
</g>
</svg>
