<?xml version="1.0" encoding="utf-8"?>
<!-- Generator: Adobe Illustrator 26.3.1, SVG Export Plug-In . SVG Version: 6.00 Build 0)  -->
<svg version="1.1" id="Calque_1" xmlns="http://www.w3.org/2000/svg" xmlns:xlink="http://www.w3.org/1999/xlink" x="0px" y="0px"
	 viewBox="0 0 150 130" style="enable-background:new 0 0 150 130;" xml:space="preserve">
<style type="text/css">
	.st0{fill:#002776;}
	.st1{fill:url(#SVGID_1_);}
	.st2{fill:url(#SVGID_00000181059919637335102170000013757622853703111098_);}
	.st3{fill:#FFFFFF;}
	.st4{opacity:0.6;fill:#E1CC00;enable-background:new    ;}
	.st5{opacity:0.9;fill:#E1CC00;enable-background:new    ;}
	.st6{fill:#E1CC00;}
	.st7{opacity:0.4;fill:#E1CC00;enable-background:new    ;}
	.st8{opacity:0.2;fill:#E1CC00;enable-background:new    ;}
</style>
<g>
	<g>
		<path class="st0" d="M38.7,99.9C16.9,98.7,0,80.2,0,58.3V0h25.5v58.6c0,8,6,15.1,14,15.8C48.7,75.3,56.4,68,56.4,59V0H82v59
			C82,82.4,62.3,101.2,38.7,99.9z"/>
		
			<linearGradient id="SVGID_1_" gradientUnits="userSpaceOnUse" x1="67.5053" y1="-117.5737" x2="110.088" y2="-117.5737" gradientTransform="matrix(1 0 0 -1 0 -104.8)">
			<stop  offset="0" style="stop-color:#71100D"/>
			<stop  offset="0.8532" style="stop-color:#E22019"/>
		</linearGradient>
		<rect x="82" class="st1" width="63.1" height="25.5"/>
		
			<linearGradient id="SVGID_00000103975715581703374930000009205145207389494918_" gradientUnits="userSpaceOnUse" x1="67.5053" y1="-192.0263" x2="110.088" y2="-192.0263" gradientTransform="matrix(1 0 0 -1 0 -104.8)">
			<stop  offset="0" style="stop-color:#71100D"/>
			<stop  offset="0.8532" style="stop-color:#E22019"/>
		</linearGradient>
		
			<rect x="82" y="74.5" style="fill:url(#SVGID_00000103975715581703374930000009205145207389494918_);" width="63.1" height="25.5"/>
		<polygon class="st3" points="82,100 64,82 96.1,50 64,17.9 82,0 132,50 		"/>
		<g>
			<polygon class="st4" points="13.7,60.1 15,64.1 11.6,61.7 8.3,64.1 9.5,60.1 6.1,57.7 10.3,57.7 11.6,53.6 12.9,57.7 17.2,57.7 
							"/>
			<polygon class="st5" points="13.7,39.1 15,43.1 11.6,40.6 8.3,43.1 9.5,39.1 6.1,36.6 10.3,36.6 11.6,32.6 12.9,36.6 17.2,36.6 
							"/>
			<polygon class="st6" points="13.7,18 15,22 11.6,19.5 8.3,22 9.5,18 6.1,15.6 10.3,15.6 11.6,11.4 12.9,15.6 17.2,15.6 			"/>
			<polygon class="st7" points="23,78.1 24.3,82.1 20.9,79.7 17.5,82.1 18.9,78.1 15.5,75.7 19.6,75.7 20.9,71.7 22.3,75.7 
				26.4,75.7 			"/>
			<polygon class="st8" points="42.1,87.3 43.4,91.4 40,88.8 36.6,91.4 38,87.3 34.5,84.9 38.8,84.9 40,80.8 41.4,84.9 45.6,84.9 
							"/>
		</g>
		<g>
			<g>
				<path class="st3" d="M2.7,112.4h9.6v2.8H6.1v3.9h5.4v2.8H6.1v7.1H2.7V112.4z"/>
				<path class="st3" d="M18.4,112.4h5.1c3.6,0,5.8,1.8,5.8,5c0,2.1-1,3.5-2.7,4.3l5.2,7.3H28l-4.4-6.7h-1.7v6.7h-3.4v-16.5H18.4z
					 M21.8,115.2v4.3h1.9c1.5,0,2.2-0.9,2.2-2.2c0-1.2-0.9-2.1-2.2-2.1H21.8z"/>
				<path class="st3" d="M42.5,112.4h4.4L53,129h-3.5l-1.6-4.3h-6.6l-1.6,4.3h-3.5L42.5,112.4z M47,121.8l-2.3-6.2l-2.3,6.2H47z"/>
				<path class="st3" d="M58.8,112.4H63l7.4,11.9v-11.9h3.4V129h-4.3L62.2,117V129h-3.4V112.4z"/>
				<path class="st3" d="M93.4,124.1l2.7,2.1c-1.5,2.1-4,3.4-6.9,3.4c-5.2,0-8.8-4-8.8-8.8c0-4.7,3.5-8.8,8.8-8.8
					c3,0,5.5,1.3,6.9,3.4l-2.7,2.1c-1-1.3-2.4-2.3-4.4-2.3c-3.2,0-5.4,2.4-5.4,5.6c0,3.2,2.2,5.6,5.4,5.6
					C91,126.3,92.5,125.4,93.4,124.1z"/>
				<path class="st3" d="M102.1,112.4h9.6v2.8h-6.3v3.9h5.4v2.8h-5.4v4.3h6.3v2.8h-9.6C102.1,129,102.1,112.4,102.1,112.4z"/>
				<path class="st3" d="M117.8,126l5.7-5.6c1.2-1.3,2.1-2.2,2.1-3.5s-1-2.2-2.2-2.2c-1.6,0-2.6,1-3.4,2.4l-2.6-1.6
					c1.3-2.3,3.4-3.6,6.3-3.6c2.9,0,5.2,1.8,5.2,4.6c0,2.3-1.5,4-3.2,5.6l-4,3.9h7.5v2.9h-11.4V126H117.8z"/>
				<path class="st3" d="M134.8,126l5.7-5.6c1.2-1.3,2.1-2.2,2.1-3.5s-1-2.2-2.2-2.2c-1.6,0-2.6,1-3.4,2.4l-2.6-1.6
					c1.3-2.3,3.4-3.6,6.3-3.6s5.2,1.8,5.2,4.6c0,2.3-1.5,4-3.2,5.6l-4,3.9h7.5v2.9h-11.4V126H134.8z"/>
			</g>
		</g>
	</g>
</g>
</svg>
