<?xml version="1.0" encoding="utf-8"?>
<!-- Generator: Adobe Illustrator 26.2.1, SVG Export Plug-In . SVG Version: 6.00 Build 0)  -->
<svg version="1.1" id="Calque_1" xmlns="http://www.w3.org/2000/svg" xmlns:xlink="http://www.w3.org/1999/xlink" x="0px" y="0px"
	 viewBox="0 0 120.2 106.4" style="enable-background:new 0 0 120.2 106.4;" xml:space="preserve">
<style type="text/css">
	.st0{fill:#002776;}
	.st1{fill:url(#SVGID_1_);}
	.st2{fill:url(#SVGID_00000116957449336687646310000001476645948216808629_);}
	.st3{fill:url(#SVGID_00000145752479617492492020000000262498058448302486_);}
	.st4{opacity:0.6;fill:#E1CC00;}
	.st5{opacity:0.9;fill:#E1CC00;}
	.st6{fill:#E1CC00;}
	.st7{opacity:0.4;fill:#E1CC00;}
	.st8{opacity:0.2;fill:#E1CC00;}
</style>
<g>
	<path class="st0" d="M31.8,82.1C13.9,81.1,0,65.9,0,47.9L0,0h21l0,48.2c0,6.6,4.9,12.4,11.5,13c7.5,0.7,13.9-5.3,13.9-12.7V0h21
		v48.5C67.4,67.7,51.2,83.2,31.8,82.1z"/>
	<linearGradient id="SVGID_1_" gradientUnits="userSpaceOnUse" x1="55.4894" y1="10.4873" x2="90.4923" y2="10.4873">
		<stop  offset="0" style="stop-color:#71100D"/>
		<stop  offset="0.85" style="stop-color:#E22019"/>
	</linearGradient>
	<rect x="67.4" class="st1" width="51.9" height="21"/>
	
		<linearGradient id="SVGID_00000085217087327391296500000014935068308303472565_" gradientUnits="userSpaceOnUse" x1="55.4894" y1="71.677" x2="90.4923" y2="71.677">
		<stop  offset="0" style="stop-color:#71100D"/>
		<stop  offset="0.85" style="stop-color:#E22019"/>
	</linearGradient>
	
		<rect x="67.4" y="61.2" style="fill:url(#SVGID_00000085217087327391296500000014935068308303472565_);" width="51.9" height="21"/>
	
		<linearGradient id="SVGID_00000057130751129394557750000003130781214486696087_" gradientUnits="userSpaceOnUse" x1="80.537" y1="79.133" x2="80.537" y2="13.04">
		<stop  offset="0" style="stop-color:#A2A2A2"/>
		<stop  offset="0.2999" style="stop-color:#A6A6A6"/>
		<stop  offset="0.568" style="stop-color:#B0B0B0"/>
		<stop  offset="0.8231" style="stop-color:#C3C3C3"/>
		<stop  offset="1" style="stop-color:#D4D4D4"/>
	</linearGradient>
	<polygon style="fill:url(#SVGID_00000057130751129394557750000003130781214486696087_);" points="67.4,82.2 52.6,67.4 79,41.1 
		52.6,14.7 67.4,0 108.5,41.1 	"/>
	<g>
		<polygon class="st4" points="11.3,49.4 12.3,52.7 9.5,50.7 6.8,52.7 7.8,49.4 5,47.4 8.5,47.4 9.5,44.1 10.6,47.4 14.1,47.4 		"/>
		<polygon class="st5" points="11.3,32.1 12.3,35.4 9.5,33.4 6.8,35.4 7.8,32.1 5,30.1 8.5,30.1 9.5,26.8 10.6,30.1 14.1,30.1 		"/>
		<polygon class="st6" points="11.3,14.8 12.3,18.1 9.5,16 6.8,18.1 7.8,14.8 5,12.8 8.5,12.8 9.5,9.4 10.6,12.8 14.1,12.8 		"/>
		<polygon class="st7" points="18.9,64.2 20,67.5 17.2,65.5 14.4,67.5 15.5,64.2 12.7,62.2 16.1,62.2 17.2,58.9 18.3,62.2 
			21.7,62.2 		"/>
		<polygon class="st8" points="34.6,71.8 35.7,75.1 32.9,73 30.1,75.1 31.2,71.8 28.4,69.8 31.9,69.8 32.9,66.4 34,69.8 37.5,69.8 
					"/>
	</g>
	<g>
		<path class="st0" d="M2.2,92.4h7.9v2.3H5v3.2h4.4v2.3H5v5.8H2.2V92.4z"/>
		<path class="st0" d="M15.1,92.4h4.2c3,0,4.8,1.5,4.8,4.1c0,1.7-0.8,2.9-2.2,3.5l4.3,6h-3.2l-3.6-5.5h-1.4v5.5h-2.8V92.4z
			 M17.9,94.7v3.5h1.6c1.2,0,1.8-0.7,1.8-1.8c0-1-0.7-1.7-1.8-1.7H17.9z"/>
		<path class="st0" d="M34.9,92.4h3.6l5.1,13.6h-2.9l-1.3-3.5H34l-1.3,3.5h-2.9L34.9,92.4z M38.6,100.1L36.7,95l-1.9,5.1H38.6z"/>
		<path class="st0" d="M48.3,92.4h3.5l6.1,9.8v-9.8h2.8V106h-3.5l-6.1-9.8v9.8h-2.8V92.4z"/>
		<path class="st0" d="M76.8,102l2.2,1.7c-1.2,1.7-3.3,2.8-5.7,2.8c-4.3,0-7.2-3.3-7.2-7.2c0-3.9,2.9-7.2,7.2-7.2
			c2.5,0,4.5,1.1,5.7,2.8l-2.2,1.7c-0.8-1.1-2-1.9-3.6-1.9c-2.6,0-4.4,2-4.4,4.6c0,2.6,1.8,4.6,4.4,4.6
			C74.8,103.8,76,103.1,76.8,102z"/>
		<path class="st0" d="M83.9,92.4h7.9v2.3h-5.2v3.2H91v2.3h-4.4v3.5h5.2v2.3h-7.9V92.4z"/>
		<path class="st0" d="M96.8,103.6l4.7-4.6c1-1.1,1.7-1.8,1.7-2.9c0-1.1-0.8-1.8-1.8-1.8c-1.3,0-2.1,0.8-2.8,2l-2.1-1.3
			c1.1-1.9,2.8-3,5.2-3c2.4,0,4.3,1.5,4.3,3.8c0,1.9-1.2,3.3-2.6,4.6l-3.3,3.2h6.2v2.4h-9.4V103.6z"/>
		<path class="st0" d="M110.8,103.6l4.7-4.6c1-1.1,1.7-1.8,1.7-2.9c0-1.1-0.8-1.8-1.8-1.8c-1.3,0-2.1,0.8-2.8,2l-2.1-1.3
			c1.1-1.9,2.8-3,5.2-3c2.4,0,4.3,1.5,4.3,3.8c0,1.9-1.2,3.3-2.6,4.6l-3.3,3.2h6.2v2.4h-9.4V103.6z"/>
	</g>
</g>
</svg>
