<?xml version="1.0" encoding="utf-8"?>
<!-- Generator: Adobe Illustrator 26.1.0, SVG Export Plug-In . SVG Version: 6.00 Build 0)  -->
<svg version="1.0" id="Calque_1" xmlns="http://www.w3.org/2000/svg" xmlns:xlink="http://www.w3.org/1999/xlink" x="0px" y="0px"
	 viewBox="0 0 349.8 281" style="enable-background:new 0 0 349.8 281;" xml:space="preserve">
<style type="text/css">
	.st0{fill:#27AAE2;}
	.st1{fill:#CFD1D3;}
	.st2{fill:#E63643;}
	.st3{fill:#6D6F71;}
	.st4{fill:#FFFFFF;}
	.st5{fill:none;}
</style>
<g>
	<path class="st0" d="M255,221.9c0,0.9-0.8,1.7-1.9,1.7l-18.5,0.1c-1.1,0-1.9-0.8-1.9-1.7l-0.1-18.9c0-0.9,0.8-1.7,1.9-1.7l18.6-0.1
		c1,0,1.9,0.8,1.9,1.7L255,221.9z"/>
	<path class="st1" d="M286.9,221.9c0,0.9-0.8,1.7-1.9,1.7l-18.5,0.1c-1.1,0-1.9-0.8-1.9-1.7l-0.1-18.9c0-0.9,0.8-1.7,1.9-1.7
		l18.6-0.1c1,0,1.9,0.8,1.9,1.7L286.9,221.9z"/>
	<path class="st2" d="M319.3,221.9c0,0.9-0.8,1.7-1.9,1.7l-18.5,0.1c-1.1,0-1.9-0.8-1.9-1.7l-0.1-18.9c0-0.9,0.8-1.7,1.9-1.7
		l18.6-0.1c1,0,1.9,0.8,1.9,1.7L319.3,221.9z"/>
	<g>
		<path class="st3" d="M236.4,124.7c-1.5,0.4-2.2,1.3-2,2.6c0.2,1.7,1.9,3.5,3.1,3.4c0.3,0,0.8-0.1,1.4-0.1c2.5,0,6.9,0.3,9.4,0.7
			c1.6,0.3,5,1.5,6.2,4.1c0.9,1.9,0.4,4.3-1.3,6.9c-5.2,8-16.2,8.4-20.3,8.5c-0.7,0-1.2,0-1.5,0.1c-0.8,0.1-1.3,0.7-1.2,1.4
			c0.1,1.1,1.5,2.6,4.4,2.6h0c6.6,0,28-1.2,28.6-16.8c0.1-3.5-0.9-6.4-3.1-8.6c-4.7-4.9-13.5-5.4-17.1-5.4
			C240.4,124.1,237.9,124.3,236.4,124.7z M234.5,154.6L234.5,154.6L234.5,154.6L234.5,154.6z"/>
		<path class="st3" d="M346.8,177.6l-0.5-0.3c-9.4-4.6-40.8-20-47.8-27.4c-1.1-1.1-2.2-2.2-3.5-3.4c-8.1-7.6-19.2-18.1-11-41.6
			c3.1-9,5.9-15.5,8.1-20.7c4.6-10.8,7.1-16.7,6.4-29.2c-0.1-2.5-2.2-5.2-4-5.2c-0.7,0-2,0.5-2.4,3.5l-0.1,0.8
			c-0.7,6.6-1.9,17.5-9.6,34.4l-0.2,0.5c-8.2,18-19.3,42.7,6.7,63c26.6,20.8,55.7,28.7,58.7,29c0.3,0,0.5,0,0.8,0
			c0.8,0,1.3-0.2,1.4-0.7C350,179.6,347.8,178.1,346.8,177.6z"/>
		<path class="st3" d="M290.7,112c-0.3,1,0.1,2.2,1.2,3.6c0.5,0.6,1.5,0.9,3.1,0.9c1.9,0,4.5-0.4,7.1-0.8c1.2-0.2,2.4-0.4,3.6-0.5
			c4.5-0.5,9.9-1,14.3-1.4l2.9-0.3c1.1-0.1,2.6-0.2,4.3-0.4c5-0.5,11.9-1.2,14.4-1.2l0.4,0c1.2,0,1.4-0.6,1.4-0.9
			c0.1-1.4-3.1-3.7-6.9-4.4c-0.9-0.2-2.4-0.2-4.7-0.2c-11.1,0-35.1,1.8-38.4,3.2C291.9,110.2,291,111,290.7,112z"/>
		<path class="st3" d="M76.2,159.4c-1.9,1.4-3.7,2.6-5.4,3.7c-3.4,2.2-10.7,5.7-13.7,6.6c-3.8,1.3-8,2-12.4,2
			c-11.2,0-21.8-4.5-28.3-12.1c-6.1-7.2-8.4-16.9-6.6-28c1.9-11.7,11.8-35.7,36.9-51c6.4-2.8,5-6.2,4.9-6.3l-0.1-0.3l-0.3,0.1
			c-31.3,8.5-44.1,32.9-49.3,52c-4.7,17.3,0.2,29.5,5.1,36.7c6.3,9.3,16.6,15.7,26.9,16.8c3.2,0.4,6.5,0.7,9.9,0.7
			c4.1,0,8-0.5,11.7-1.4l0.1,0c5-1.3,10.1-3.4,15.5-6.6c1.8-1,3.6-2.2,5.5-3.5c2-1.4,3.8-2.7,6.1-4.5l0.1-0.1V154l-0.8,0.7
			C80,156.4,78.2,157.9,76.2,159.4z"/>
		<path class="st3" d="M154.8,139.5c0.9,5.9,3.8,11.4,6,11.4c0.2,0,0.4-0.1,0.6-0.2c2-1.2,1.5-4.6,0.8-7.7c-0.2-0.9-0.4-2.2-0.6-3.6
			c-0.6-4-1.5-9.5-2.8-12.5c-0.7-1.8-3.4-5-7.5-6.3l-0.2-0.1c-0.1,0-0.2-0.1-0.4-0.1l-0.4-0.1l0,8l0.2,0.1
			C153.5,129.5,154.9,133.1,154.8,139.5z"/>
		<path class="st3" d="M277.7,177.1c-3.1,0-7.1,0.5-10.2,0.9c-1.8,0.2-6.2,0.9-11.8,1.8c-10.1,1.6-24,3.7-29.1,4.3
			c-1.1,0.1-2.7,0.3-4.6,0.6c3.7-20.1,7.9-43.4,8.4-47.7c0.2-1.6-0.5-3.8-1.7-5.1c-0.6-0.7-1.3-1.1-1.9-1.1c-0.7,0-1.6,0.4-2.3,2.4
			c-0.7,2.2-5.6,25.5-10.9,52.4c-4.6,0.5-18.5,2.1-27.1,2.9c6.1-29.4,12-57.9,14.4-68.4c18.3-20.7,35.4-47.6,42.7-67
			c1.3-3.6,12.9-35.3,4.8-42.9c-1.3-1.2-2.7-1.8-4.1-1.8c-18.3,0-45,94.4-45.3,95.3c-0.6,2.1-1.6,5.7-2.8,10.2
			c-3.8,4.5-7.2,8.4-10,11.6c-3.3,3.8-5.5,6.2-6.2,7.3c-1.3,2-2.8,5.4-2.1,6.7c0.1,0.3,0.4,0.6,1,0.6c1,0,2.6-1,4.8-2.9
			c2.7-2.4,5.5-5,8.3-7.8c-3.5,13.6-9.3,36.3-10.4,44.7c-0.3,2.5-1,6.4-1.7,11.3l-0.6,3.7c-2.4,0.1-6,0.4-9.4,0.7
			c-4.9,0.4-10,0.8-11.9,0.8c-3,0-4.9,0.9-5.3,2.5c-0.2,0.9-0.3,2,0.3,2.8c0.5,0.6,1.3,0.9,2.5,0.9l0.1,0c7.2-0.2,14.8-0.5,22.6-1
			c-1.3,8.3-3.1,20.3-4.3,30.6c-0.6,5-1.9,17-1.9,21.2c0,1,0.1,1.3,0.3,1.4l0.2,0.1h0.1c0.3,0,0.5-0.3,0.7-0.6c0,0,0.1-0.1,0.1-0.2
			l0.3,0c0.9-3.9,4.9-23.3,9.5-45.7l1.5-7.5c9.4-0.7,18.6-1.6,27.2-2.6c-5.4,28.3-14.3,76.5-13.5,86.1c0.1,0.7,0.8,2.2,1.9,2.2h0
			c1.3,0,2.3-2.2,3-6.7c2.1-13.7,6.7-33.1,9.5-44.8c0.8-3.6,1.5-6.4,1.9-8c0.7-3,2.8-14.2,5.7-30c4.6-0.6,8.8-1.3,12.5-1.9
			c21.7-3.8,47.9-8.8,49.5-10.6l0.1-0.2l-0.1-0.2C282.5,177.6,280.8,177.1,277.7,177.1z M206.5,101.5C222.5,50.3,232.9,31,241,19
			c1.8-2.7,2.7-3,2.9-3c0.1,0,0.2,0,0.3,0.2c1.9,3-4.4,28.3-14.5,50C225.4,75.7,217.5,87.6,206.5,101.5z"/>
	</g>
	<g>
		<g>
			<path class="st4" d="M95.3,95.3c-1.5-7.4,16.8-60.4,19-65c2.2-4.7-0.5-9.1-4.4-5.4c-2.6,2.5-22.6,52.2-17.6,71.9
				c2.7,7.8,6.4,6.6,6.4,6.6s-0.3-1.4-1.4-2.5C96.1,99.8,95.9,98.4,95.3,95.3z"/>
		</g>
		<path class="st5" d="M98.6,103.4c0,0-0.3-1.4-1.4-2.5c-1.1-1.1-1.3-2.5-1.9-5.6c-1.5-7.4,16.8-60.4,19-65c2.2-4.7-0.5-9.1-4.4-5.4
			c-2.6,2.5-22.6,52.2-17.6,71.9C94.9,104.6,98.6,103.4,98.6,103.4z"/>
		<path class="st0" d="M149.8,128.1c-1.5-0.4-2.9-0.3-4.5,0.3l-0.3,0.1c-3.1,1.2-6,4.7-7.2,8.7c-4.1,13.3-6.9,16.8-10.1,18.2
			l-0.5,0.2l0.1-0.6c0.4-4.1,1.4-17.2,0.3-23.9c-0.3-2.1-1.1-2.4-1.7-2.4c-3.3,0-12.6,8.3-33.1,27c-3,2.7-5.9,5.2-8.9,7.6
			c-0.1,0.1-0.2,0.1-0.2,0.2c-0.1,0.1-0.2,0.2-0.3,0.3l-0.5,0.4v86.2h67.5V128.2l-0.1,0C150,128.1,149.9,128.1,149.8,128.1z"/>
		<g>
			<path class="st5" d="M95.3,95.3c-1.5-7.4,16.8-60.4,19-65c2.2-4.7-0.5-9.1-4.4-5.4c-2.6,2.5-22.6,52.2-17.6,71.9
				c2.7,7.8,6.4,6.6,6.4,6.6s-0.3-1.4-1.4-2.5C96.1,99.8,95.9,98.4,95.3,95.3z"/>
			<path class="st4" d="M150.3,91c-0.3,0.1-0.6,0.3-0.8,0.6c-8.7,7.5-18.5,8.2-24.8,5.7c3.9-2.6,7.5-5.2,8.6-6.6
				c1-1.3,5-7.9-2.6-10.7c-10.6-4-21.7,8.4-14.2,17.4c-3.8,2.6-7.5,4.8-10,5.5c-0.8,0.2-2.4,0.8-2.7,0.8c-0.4,0-1.3,0.3-0.4,1.5
				c1,1.2,8.5-0.2,10.8-1.5c1.6-0.9,3.6-2.1,5.7-3.4c0.1,0,0.1,0.1,0.2,0.1c11.6,7.5,25-1.3,30.1-5.5V91z M122.5,86.9
				c1.1-0.9,2.4-1.6,3.6-1.6c0.7,0,1.4,0.3,2,0.9c0,0,0,0.1,0,0.2c-0.1,1.2-3.1,4.2-7.6,7.7C118.9,91.8,120.3,88.8,122.5,86.9z"/>
			<path class="st0" d="M128.1,86.4c0-0.1,0-0.2,0-0.2c-0.6-0.6-1.2-0.9-2-0.9c-1.2,0-2.5,0.7-3.6,1.6c-2.2,1.9-3.5,4.9-2,7.2
				C124.9,90.6,128,87.5,128.1,86.4z"/>
			<path class="st0" d="M82.8,0v154.1l0.6-0.5c5.2-4.4,10.3-9.1,15.2-13.6c5.3-4.9,10.4-9.6,14.8-13.1c4.7-3.7,8.9-5.6,12.5-5.6
				c4.2,0,7.3,2.8,8.7,7.8c3.7-4.8,7-7.5,10.2-8.4l0.4-0.1c1.7-0.5,3.5-0.5,5.2-0.2v-8.1V95c-5.1,4.1-18.5,13-30.1,5.5
				c-0.1,0-0.1-0.1-0.2-0.1c-2.1,1.3-4.1,2.5-5.7,3.4c-2.3,1.3-9.8,2.7-10.8,1.5c-1-1.2,0-1.5,0.4-1.5c0.4,0,1.9-0.6,2.7-0.8
				c2.4-0.7,6.2-2.9,10-5.5c-7.5-9,3.5-21.3,14.2-17.4c7.5,2.8,3.6,9.4,2.6,10.7c-1.1,1.5-4.7,4-8.6,6.6c6.3,2.4,16.1,1.7,24.8-5.7
				c0.2-0.3,0.5-0.5,0.8-0.6V73.3V0H82.8z M92.2,96.8c-4.9-19.8,15-69.5,17.6-71.9c3.9-3.7,6.7,0.7,4.4,5.4
				c-2.2,4.7-20.5,57.7-19,65c0.6,3.1,0.8,4.5,1.9,5.6c1.1,1.1,1.4,2.5,1.4,2.5S94.9,104.6,92.2,96.8z"/>
		</g>
		<path class="st4" d="M150.3,120.4c-1.7-0.4-3.4-0.3-5.2,0.2l-0.1,0c-3.3,0.9-6.9,3.7-10.5,8.4c-1.4-5-4.5-7.8-8.7-7.8
			c-3.5,0-7.7,1.9-12.5,5.6c-4.4,3.5-9.4,8.1-14.7,13c-4.9,4.5-10,9.2-15.2,13.6c-0.1,0.1-0.2,0.2-0.3,0.3c-0.1,0.1-0.1,0.2-0.2,0.2
			l-0.2,0.2l0.1,10c0,0,0.9-0.8,1-0.8c3-2.4,5.9-4.9,8.9-7.6c20.5-18.7,29.8-27,33.1-27c0.7,0,1.4,0.3,1.7,2.4
			c1,6.7,0.1,19.9-0.3,23.9l-0.1,0.6l0.5-0.2c3.2-1.4,6-4.9,10.1-18.2c1.2-3.9,5-7.9,7.4-8.7c2.4-0.8,4.4-0.3,5.1-0.2L150.3,120.4z"
			/>
	</g>
</g>
</svg>
