<?xml version="1.0" encoding="UTF-8"?>
<svg id="Calque_1" xmlns="http://www.w3.org/2000/svg" version="1.1" viewBox="0 0 155 100">
  <!-- Generator: Adobe Illustrator 29.3.1, SVG Export Plug-In . SVG Version: 2.1.0 Build 151)  -->
  <defs>
    <style>
      .st0 {
        fill: #fff;
      }
    </style>
  </defs>
  <g id="Logo">
    <path id="enpjJ" class="st0" d="M125,40v45c0,2.8-2.2,5-5,5h-.6c-1,3.9-3.2,7.4-6.2,10h6.8c8.3,0,15-6.7,15-15v-45h-10Z"/>
    <path id="enpJj" class="st0" d="M105,40v45c0,2.8-2.2,5-5,5h-10v10h10c8.3,0,15-6.7,15-15v-45h-10Z"/>
    <path id="enPjj" class="st0" d="M85,40c-8.3,0-15,6.7-15,15v10s0,0,0,0h0v35h10v-20.9c1.6.6,3.2.9,5,.9,8.3,0,15-6.7,15-15v-10c0-8.3-6.7-15-15-15ZM90,65c0,2.8-2.2,5-5,5s-5-2.2-5-5v-10c0-2.8,2.2-5,5-5s5,2.2,5,5v10Z"/>
    <path id="eNpjj" class="st0" d="M50,40c-8.3,0-15,6.7-15,15v45h10v-45c0-2.8,2.2-5,5-5s5,2.2,5,5v45h10v-45c0-8.3-6.7-15-15-15Z"/>
    <path id="Enpjj" class="st0" d="M30,75v-20c0-8.3-6.7-15-15-15S0,46.7,0,55v30c0,8.3,6.7,15,15,15s15-6.7,15-15h-10c0,2.8-2.2,5-5,5s-5-2.2-5-5v-10h20ZM10,55c0-2.8,2.2-5,5-5s5,2.2,5,5v10h-10v-10Z"/>
    <path class="st0" d="M155,0l-10,10v25h-10v-10c0-2.8-2.2-5-5-5s-5,2.2-5,5v10h-10v-5c0-2.8-2.2-5-5-5s-5,2.2-5,5v5h-35V10L80,0h75Z"/>
  </g>
</svg>