<?xml version="1.0" encoding="UTF-8"?>
<svg id="Calque_1" xmlns="http://www.w3.org/2000/svg" x="0px" y="0px" viewBox="0 0 1920 1080">
	<defs>
		<style>.cls-1{fill:#fff;}</style>
	</defs>
	<g transform="translate(1776 945)"><!--- 63px w 81px h -->
		<path class="cls-1" d="m34.75,76.9c-1.38.59-2.67.99-4.15.99-6.61,0-9.48-10.48-9.48-23.71,0-12.24,3.65-20.39,8.79-20.39,1.68,0,3.45.49,4.84,1.48v-1.68C31.69,31.52,0,26.8,0,56.98c0,24.82,27.14,27.27,34.75,21.31v-1.38Z"/>
		<path class="cls-1" d="m37.27,86.87c16.78,0,25.17-9.58,25.17-24.48v-25.17h-.1V5.33l8.79-5.33H31.84l8.79,5.33v60.41c0,15.5-3.26,19.35-11.25,19.35h-1.18v.59c3.16.89,5.82,1.18,9.08,1.18"/>
	</g>
</svg>