<?xml version="1.0" encoding="UTF-8"?><svg id="Calque_1" xmlns="http://www.w3.org/2000/svg" viewBox="0 0 106.71 130.31"><defs><style>.cls-1{fill:#fff;}</style></defs><path class="cls-1" d="m52.13,115.37c-2.07.89-4,1.48-6.22,1.48-9.92,0-14.22-15.72-14.22-35.56,0-18.36,5.48-30.59,13.18-30.59,2.52,0,5.18.74,7.26,2.22v-2.52C47.53,47.28,0,40.21,0,85.47c0,37.23,40.71,40.91,52.13,31.97v-2.07Z"/><path class="cls-1" d="m55.91,130.31c25.17,0,37.76-14.36,37.76-36.72v-37.76h-.15V8l13.18-8h-58.94l13.18,8v90.63c0,23.25-4.89,29.02-16.88,29.02h-1.78v.89c4.74,1.33,8.74,1.78,13.62,1.78"/></svg>