<?xml version="1.0" encoding="UTF-8"?>
<svg id="a" xmlns="http://www.w3.org/2000/svg" version="1.1" viewBox="0 0 85 60">
  <!-- Generator: Adobe Illustrator 29.0.0, SVG Export Plug-In . SVG Version: 2.1.0 Build 186)  -->
  <defs>
    <style>
      .st0 {
        fill: #ad4847;
      }

      .st1 {
        fill: #2f4077;
      }

      .st2 {
        fill: #ffca00;
      }
    </style>
  </defs>
  <polygon class="st1" points="20 0 30 0 47.5 60 37.5 60 20 0"/>
  <polygon class="st1" points="65 0 55 0 37.5 60 47.5 60 65 0"/>
  <path class="st0" d="M30,0v45c0,8.3-6.7,15-15,15H0l5-10h10c2.8,0,5-2.2,5-5V0h10Z"/>
  <path class="st2" d="M85,25v-10c0-8.3-6.7-15-15-15h-15v60h10v-20.9c1.1.4,2.2.6,3.3.8l6.7,20.1h10l-7.4-22.1c4.4-2.6,7.4-7.4,7.4-12.9ZM75,25c0,1.2-.9,5-5,5s-5-2.2-5-5v-15h5c2.8,0,5,2.2,5,5v10Z"/>
</svg>