<?xml version="1.0" encoding="UTF-8"?><svg id="a" xmlns="http://www.w3.org/2000/svg" viewBox="0 0 85 60"><defs><style>.c{fill:#4988c7;}.c,.d,.e{stroke-width:0px;}.d{fill:#fe7fa8;}.e{fill:#152f52;}</style></defs><polygon class="e" points="20 0 30 0 47.5 60 37.5 60 20 0"/><polygon class="e" points="65 0 55 0 37.5 60 47.5 60 65 0"/><path class="c" d="M30,0v45c0,8.29-6.72,15-15,15H0l5-10h10c2.75,0,5-2.24,5-5V0h10Z"/><path class="d" d="M85,25v-10c0-8.29-6.71-15-15-15h-15v60h10v-20.86c1.05.38,2.15.64,3.3.76l6.7,20.1h10l-7.36-22.09c4.41-2.61,7.36-7.42,7.36-12.91ZM75,25c0,1.17-.94,5-5,5-2.76,0-5-2.24-5-5v-15h5c2.76,0,5,2.24,5,5v10Z"/></svg>