<?xml version="1.0" encoding="utf-8"?>
<!-- Generator: Adobe Illustrator 26.1.0, SVG Export Plug-In . SVG Version: 6.00 Build 0)  -->
<svg version="1.0" id="Rencontres_Professionnelles"
	 xmlns="http://www.w3.org/2000/svg" xmlns:xlink="http://www.w3.org/1999/xlink" x="0px" y="0px" viewBox="0 0 1544.7 400"
	 style="enable-background:new 0 0 1544.7 400;" xml:space="preserve">
<style type="text/css">
	.st0{fill:#FFFFFF;}
</style>
<g id="Logo">
	<path class="st0" d="M222.9,231.6c-13.2,7.2-29.3,11.5-47.3,12.5l37.2,56h59.4L222.9,231.6z"/>
	<g>
		<path class="st0" d="M175.2,100.3c-0.7-0.1-1.3-0.1-2-0.1c-0.7,0-1.4-0.1-2.1-0.1c-0.7,0-1.4,0-2.1-0.1c-0.6,0-1.3,0-1.9,0H99.6
			v200h50.9v-75.7h16.6c17.3,0,32.2-3.2,44-9.1c20.2-10.1,31.7-28.4,31.7-52.9C242.8,125.5,217.2,102.8,175.2,100.3z M169.9,182.3
			h-19.4V142h19.4c12.9,0,20.3,8.3,20.3,19.7C190.2,174,182.8,182.3,169.9,182.3z"/>
	</g>
	<path class="st0" d="M173.2,23.1l153.2,88.5v176.9l-153.2,88.5L20,288.5V111.5L173.2,23.1 M173.2,0L0,100v200l173.2,100l173.2-100
		V100L173.2,0L173.2,0z"/>
</g>
<g id="Text">
	<g>
		<path class="st0" d="M436.1,153.2c-5.4,2.7-11.9,4.3-19.3,4.5l14.8,22.3h23.8L436.1,153.2z"/>
		<path class="st0" d="M415,100h-28.6v80h20.3v-30.3h8.2c6.4,0,11.9-1.1,16.4-3.1c8.8-3.9,13.9-11.5,13.9-21.7
			C445.3,109.3,433.7,100,415,100z M406.8,132.9v-16.1h9.4c5.1,0,8.1,3.3,8.1,7.9c0,4.9-3,8.2-8.1,8.2H406.8z"/>
	</g>
	<path class="st0" d="M465.3,100h49.4v16.8h-29v14.1h24.5v16.8h-24.5v15.5h29V180h-49.4V100z"/>
	<g>
		<path class="st0" d="M559.4,100l-22.7,0l0,0l45.9,80h22.7L559.4,100z"/>
		<path class="st0" d="M588.1,100v33.9l20.3,35.4V100H588.1z M533.6,110.7V180H554v-33.9L533.6,110.7z"/>
	</g>
	<path class="st0" d="M684.5,153.8l16.1,12.2c-7.4,9.8-19.3,16.2-33.9,16.2c-25.5,0-42.9-19.4-42.9-42.3c0-22.9,17.4-42.3,42.9-42.3
		c14.6,0,26.5,6.4,33.9,16.1l-16.1,12.3c-3.8-5.5-9.8-9.4-17.8-9.4c-12.8,0-21.9,9.8-21.9,23.2c0,13.5,9.1,23.2,21.9,23.2
		C674.5,163.2,680.7,159.3,684.5,153.8z"/>
	<path class="st0" d="M792.5,140c0,22.9-17.4,42.3-42.7,42.3c-25.5,0-42.9-19.4-42.9-42.3c0-22.9,17.4-42.3,42.9-42.3
		C775.1,97.7,792.5,117.1,792.5,140z M771.6,140c0-13.5-9.1-23.2-21.8-23.2c-12.8,0-21.9,9.8-21.9,23.2c0,13.5,9.1,23.2,21.9,23.2
		C762.4,163.2,771.6,153.4,771.6,140z"/>
	<g>
		<path class="st0" d="M833.6,100l-22.7,0l0,0l45.9,80h22.7L833.6,100z"/>
		<path class="st0" d="M862.3,100v33.9l20.3,35.4V100H862.3z M807.8,110.7V180h20.3v-33.9L807.8,110.7z"/>
	</g>
	<path class="st0" d="M896.9,100h67v18.4h-23.3V180h-20.3v-61.6h-23.3V100z"/>
	<g>
		<path class="st0" d="M1006.9,100h-28.6v80h20.3v-30.3h8.2c6.4,0,11.9-1.1,16.4-3.1c8.8-3.9,13.9-11.5,13.9-21.7
			C1037.1,109.3,1025.6,100,1006.9,100z M998.6,132.9v-16.1h9.4c5.1,0,8.1,3.3,8.1,7.9c0,4.9-3,8.2-8.1,8.2H998.6z"/>
		<path class="st0" d="M1028,153.2c-5.4,2.7-11.9,4.3-19.3,4.5l14.8,22.3h23.8L1028,153.2z"/>
	</g>
	<path class="st0" d="M1057.1,100h49.4v16.8h-29v14.1h24.5v16.8h-24.5v15.5h29V180h-49.4V100z"/>
	<path class="st0" d="M1132.1,155.2c4.2,5.6,10.5,9.3,16.3,9.3c4.7,0,7.5-2.1,7.5-6.6c0-12.2-35.2-8.2-35.2-35.7
		c0-13.4,11.2-24.5,27.4-24.5c12.7,0,22.5,5.5,29.9,13.7l-14.7,13.5c-4.7-5.5-9.7-9.5-15.1-9.5c-4.1,0-7,2.5-7,5.8
		c0,11.9,35.2,7.9,35.2,35.9c-0.2,16-12.8,25.1-27.9,25.1c-14.7,0-24-5.1-31.3-13.5L1132.1,155.2z"/>
	<path class="st0" d="M386.4,220H415c18.7,0,30.3,9.3,30.3,24.9c0,15.5-11.5,24.8-30.3,24.8h-8.2V300h-20.3V220z M406.8,236.8v16.1
		h9.4c5.1,0,8.1-3.3,8.1-8.2c0-4.6-3-7.9-8.1-7.9H406.8z"/>
	<g>
		<path class="st0" d="M486.9,220h-28.6v80h20.3v-30.3h8.2c6.4,0,11.9-1.1,16.4-3.1c8.8-3.9,13.9-11.5,13.9-21.7
			C517.2,229.3,505.6,220,486.9,220z M478.6,252.9v-16.1h9.4c5.1,0,8.1,3.3,8.1,7.9c0,4.9-3,8.2-8.1,8.2H478.6z"/>
		<path class="st0" d="M508,273.2c-5.4,2.7-11.9,4.3-19.3,4.5l14.8,22.3h23.8L508,273.2z"/>
	</g>
	<path class="st0" d="M615.3,260c0,22.9-17.4,42.3-42.7,42.3c-25.5,0-42.9-19.4-42.9-42.3c0-22.9,17.4-42.3,42.9-42.3
		C598,217.7,615.3,237.1,615.3,260z M594.4,260c0-13.5-9.1-23.2-21.8-23.2c-12.8,0-21.9,9.8-21.9,23.2c0,13.5,9.1,23.2,21.9,23.2
		C585.3,283.2,594.4,273.4,594.4,260z"/>
	<path class="st0" d="M630.6,220H680v16.8h-29v14.1h24.5v16.8H651V300h-20.3V220z"/>
	<path class="st0" d="M694.4,220h49.4v16.8h-29v14.1h24.5v16.8h-24.5v15.5h29V300h-49.4V220z"/>
	<path class="st0" d="M769.4,275.2c4.2,5.6,10.5,9.3,16.3,9.3c4.7,0,7.5-2.1,7.5-6.6c0-12.2-35.2-8.2-35.2-35.7
		c0-13.4,11.2-24.5,27.4-24.5c12.7,0,22.5,5.5,29.9,13.7l-14.7,13.5c-4.7-5.5-9.7-9.5-15.1-9.5c-4.1,0-7,2.5-7,5.8
		c0,11.9,35.2,7.9,35.2,35.9c-0.2,16-12.8,25.1-27.9,25.1c-14.7,0-24-5.1-31.3-13.5L769.4,275.2z"/>
	<path class="st0" d="M836.6,275.2c4.2,5.6,10.5,9.3,16.3,9.3c4.7,0,7.5-2.1,7.5-6.6c0-12.2-35.2-8.2-35.2-35.7
		c0-13.4,11.2-24.5,27.4-24.5c12.7,0,22.5,5.5,29.9,13.7l-14.7,13.5c-4.7-5.5-9.7-9.5-15.1-9.5c-4.1,0-7,2.5-7,5.8
		c0,11.9,35.2,7.9,35.2,35.9c-0.2,16-12.8,25.1-27.9,25.1c-14.7,0-24-5.1-31.3-13.5L836.6,275.2z"/>
	<path class="st0" d="M897.2,220h20.3v80h-20.3V220z"/>
	<path class="st0" d="M1018.4,260c0,22.9-17.4,42.3-42.7,42.3c-25.5,0-42.9-19.4-42.9-42.3c0-22.9,17.4-42.3,42.9-42.3
		C1001,217.7,1018.4,237.1,1018.4,260z M997.5,260c0-13.5-9.1-23.2-21.8-23.2c-12.8,0-21.9,9.8-21.9,23.2c0,13.5,9.1,23.2,21.9,23.2
		C988.4,283.2,997.5,273.4,997.5,260z"/>
	<g>
		<path class="st0" d="M1059.6,220l-22.7,0l0,0l45.9,80h22.7L1059.6,220z"/>
		<path class="st0" d="M1088.2,220v33.9l20.3,35.4V220H1088.2z M1033.7,230.7V300h20.3v-33.9L1033.7,230.7z"/>
	</g>
	<g>
		<path class="st0" d="M1156.6,220l-22.7,0l0,0l45.9,80h22.7L1156.6,220z"/>
		<path class="st0" d="M1185.3,220v33.9l20.3,35.4V220H1185.3z M1130.8,230.7V300h20.3v-33.9L1130.8,230.7z"/>
	</g>
	<path class="st0" d="M1227.8,220h49.4v16.8h-29v14.1h24.5v16.8h-24.5v15.5h29V300h-49.4V220z"/>
	<path class="st0" d="M1296.1,220h20.3v61.6h29V300h-49.4V220z"/>
	<path class="st0" d="M1359.9,220h20.3v61.6h29V300h-49.4V220z"/>
	<path class="st0" d="M1423.7,220h49.4v16.8h-29v14.1h24.5v16.8H1444v15.5h29V300h-49.4V220z"/>
	<path class="st0" d="M1498.6,275.2c4.2,5.6,10.5,9.3,16.3,9.3c4.7,0,7.5-2.1,7.5-6.6c0-12.2-35.2-8.2-35.2-35.7
		c0-13.4,11.2-24.5,27.4-24.5c12.7,0,22.5,5.5,29.9,13.7l-14.7,13.5c-4.7-5.5-9.7-9.5-15.1-9.5c-4.1,0-7,2.5-7,5.8
		c0,11.9,35.2,7.9,35.2,35.9c-0.2,16-12.8,25.1-27.9,25.1c-14.7,0-24-5.1-31.3-13.5L1498.6,275.2z"/>
</g>
</svg>
