<?xml version="1.0" encoding="utf-8"?>
<!-- Generator: Adobe Illustrator 27.4.1, SVG Export Plug-In . SVG Version: 6.00 Build 0)  -->
<svg version="1.1" xmlns="http://www.w3.org/2000/svg" xmlns:xlink="http://www.w3.org/1999/xlink" x="0px" y="0px"
	 viewBox="0 0 665.9 257" style="enable-background:new 0 0 665.9 257;" xml:space="preserve">
<style type="text/css">
	.st0{fill:#FFFFFF;}
</style>
<g id="Texte">
	<polygon class="st0" points="153.8,176.8 153.8,202.5 171,202.5 171,199 159.6,199 159.6,190.8 167.4,190.8 167.4,187.1 
		159.6,187.1 159.6,179.7 170.3,179.7 170.3,176.8 	"/>
	<polygon class="st0" points="250.4,176.8 250.4,202.5 267.6,202.5 267.6,199 256.2,199 256.2,190.8 263.9,190.8 263.9,187.1 
		256.2,187.1 256.2,179.7 266.9,179.7 266.9,176.8 	"/>
	<polygon class="st0" points="487.8,176.8 487.8,202.5 505,202.5 505,199 493.6,199 493.6,190.8 501.3,190.8 501.3,187.1 
		493.6,187.1 493.6,179.7 504.3,179.7 504.3,176.8 	"/>
	<polygon class="st0" points="182.1,227 182.1,252.7 199.3,252.7 199.3,249.2 187.9,249.2 187.9,241 195.7,241 195.7,237.3 
		187.9,237.3 187.9,230 198.6,230 198.6,227 	"/>
	<polygon class="st0" points="390.1,227 390.1,252.7 407.3,252.7 407.3,249.2 395.9,249.2 395.9,241 403.7,241 403.7,237.3 
		395.9,237.3 395.9,230 406.6,230 406.6,227 	"/>
	<polygon class="st0" points="625.1,227 625.1,252.7 642.2,252.7 642.2,249.2 630.8,249.2 630.8,241 638.6,241 638.6,237.3 
		630.9,237.3 630.9,230 641.6,230 641.6,227 	"/>
	<polygon class="st0" points="156.1,171.8 158.3,174.6 168.4,170.2 165.8,166.3 	"/>
	<path class="st0" d="M195.1,177.2v3c0,0-15.8-4.1-15.8,9.8c0,13.9,15.8,8.5,15.8,8.5v3.2c0,0-12.6,4.7-18.3-3.6
		c-5.7-8.3-2.3-15.9,2.6-19.5C184.4,174.9,195.1,177.2,195.1,177.2z"/>
	<path class="st0" d="M384.1,227.3v3c0,0-15.8-4.1-15.8,9.8c0,13.9,15.8,8.5,15.8,8.5v3.2c0,0-12.6,4.7-18.3-3.6
		c-5.7-8.3-2.3-15.9,2.6-19.5C373.4,225,384.1,227.3,384.1,227.3z"/>
	<path class="st0" d="M211,175.8c-6.3,0-13,2.4-13,13.9c0,11.5,9.3,13.5,13,13.5s13-2,13-13.5C224,178.2,217.3,175.8,211,175.8z
		 M211,199.3c-4.7,0-7.1-5-7.1-9.6c0-4,1.2-11,7.1-11s7.1,7,7.1,11C218.1,194.3,215.7,199.3,211,199.3z"/>
	<path class="st0" d="M390.1,175.8c-6.3,0-13,2.4-13,13.9c0,11.5,9.3,13.5,13,13.5s13-2,13-13.5
		C403.1,178.2,396.4,175.8,390.1,175.8z M390.1,199.3c-4.7,0-7.1-5-7.1-9.6c0-4,1.2-11,7.1-11s7.1,7,7.1,11
		C397.3,194.3,394.8,199.3,390.1,199.3z"/>
	<path class="st0" d="M576.9,225.9c-6.3,0-13,2.4-13,13.9c0,11.5,9.3,13.5,13,13.5c0.4,0,2.2,3,2.2,3h4.9c0,0-1.5-2.6-2.6-3.7
		c4-1.3,8.4-4.7,8.4-12.7C589.9,228.3,583.2,225.9,576.9,225.9z M576.9,249.4c-4.7,0-7.1-5-7.1-9.6c0-4,1.2-11,7.1-11s7.1,7,7.1,11
		C584.1,244.3,581.6,249.4,576.9,249.4z"/>
	<polygon class="st0" points="229.4,176.5 235.6,176.5 235.6,198.8 246,198.8 246,202.5 229.4,202.5 	"/>
	<polygon class="st0" points="465.9,176.5 472.1,176.5 472.1,198.8 482.5,198.8 482.5,202.5 465.9,202.5 	"/>
	<polygon class="st0" points="530.9,226.9 537.1,226.9 537.1,249.2 547.6,249.2 547.6,252.9 530.9,252.9 	"/>
	<polygon class="st0" points="285.2,202 290.7,202 290.7,180.1 292,180.1 298.4,202 309.1,202 309.1,176.8 303.5,176.8 303.5,198.9 
		302.4,198.9 295.6,176.6 285.2,176.6 	"/>
	<polygon class="st0" points="276.3,252.6 281.8,252.6 281.8,230.7 283.1,230.7 289.6,252.6 300.2,252.6 300.2,227.4 294.6,227.4 
		294.6,249.4 293.5,249.4 286.7,227.2 276.3,227.2 	"/>
	<polygon class="st0" points="334.7,252.6 340.3,252.6 340.3,230.7 341.5,230.7 348,252.6 358.6,252.6 358.6,227.4 353.1,227.4 
		353.1,249.4 351.9,249.4 345.1,227.2 334.7,227.2 	"/>
	<polygon class="st0" points="407.3,202 412.8,202 412.8,180.1 414,180.1 420.5,202 431.2,202 431.2,176.8 425.6,176.8 425.6,198.9 
		424.5,198.9 417.7,176.6 407.3,176.6 	"/>
	<path class="st0" d="M332.3,176.9h-6.2H320l-6.2,25.1h5.8l2.1-8.9h4.4h4.4l2.1,8.9h5.8L332.3,176.9z M326.1,190l-4.6,0l3.5-10.2
		h2.2l3.5,10.2L326.1,190z"/>
	<path class="st0" d="M454.8,176.9h-6.2h-6.2l-6.2,25.1h5.8l2.1-8.9h4.4h4.4l2.1,8.9h5.8L454.8,176.9z M448.7,190l-4.6,0l3.5-10.2
		h2.2l3.5,10.2L448.7,190z"/>
	<path class="st0" d="M323.2,227.3H317h-6.2l-6.2,25.1h5.8l2.1-8.9h4.4h4.4l2.1,8.9h5.8L323.2,227.3z M317,240.4l-4.6,0l3.5-10.2
		h2.2l3.5,10.2L317,240.4z"/>
	<polygon class="st0" points="350.2,176.6 339.9,176.6 339.9,179.8 347,179.8 347,202 350.2,202 353.4,202 353.4,179.8 360.5,179.8 
		360.5,176.6 	"/>
	<rect x="364.6" y="176.6" class="st0" width="6.5" height="25.4"/>
	<rect x="262.6" y="227.2" class="st0" width="6.5" height="25.4"/>
	<rect x="552.4" y="227.2" class="st0" width="6.5" height="25.4"/>
	<path class="st0" d="M166.3,227c-5.9,0-12.6,0-12.6,0v25.7c0,0,7.3,0,13.4,0c6.1,0,10-6.1,10-13.8C177.1,231.2,172.2,227,166.3,227
		z M165,249.1c-3.9,0-5.6,0-5.6,0v-19.1c0,0,2.2,0,5.8,0s5.8,4.9,5.8,9.5S169,249.1,165,249.1z"/>
	<path class="st0" d="M222,226.9l-0.7,3.6c0,0-12.4-2.4-11.9,1.7c0.5,4.2,14.4,5.7,13.5,13.7s-11.8,7.4-18.7,6.3
		c-0.2-2.7-0.3-3.2-0.3-3.2s11.7,1.4,13.1-2.4c1.8-5.3-14-6.9-13.3-13.3C204.3,227,207.8,225.6,222,226.9z"/>
	<path class="st0" d="M430.2,226.9l-0.7,3.6c0,0-12.4-2.4-11.9,1.7c0.5,4.2,14.4,5.7,13.5,13.7s-11.8,7.4-18.7,6.3
		c-0.2-2.7-0.3-3.2-0.3-3.2s11.7,1.4,13.1-2.4c1.8-5.3-14-6.9-13.3-13.3C412.5,227,416.1,225.6,430.2,226.9z"/>
	<path class="st0" d="M664.9,226.9l-0.7,3.6c0,0-12.4-2.4-11.9,1.7c0.5,4.2,14.4,5.7,13.5,13.7c-0.9,8-11.8,7.4-18.7,6.3
		c-0.2-2.7-0.3-3.2-0.3-3.2s11.7,1.4,13.1-2.4c1.8-5.3-14-6.9-13.3-13.3C647.2,227,650.8,225.6,664.9,226.9z"/>
	<polygon class="st0" points="241.3,227.2 241.3,252.4 247.3,252.4 247.3,240.9 255.3,240.9 255.3,238.1 247.1,238.1 247.1,230 
		258.2,230 258.2,227.2 	"/>
	<path class="st0" d="M461.9,226.4c-4.6,0-12.6,0-12.6,0v26.4h6v-6.7c0,0,0.3,0,5.7,0s9.2-4.6,9.2-10.3
		C470.1,230.2,466.4,226.4,461.9,226.4z M459.2,243.2c-4.1,0-4.4,0-4.4,0l0-13.5c0,0,2,0,4.9,0s5.2,3.2,5.2,6.2
		C464.9,239,463.8,243.2,459.2,243.2z"/>
	<path class="st0" d="M492.6,226.9c0,0,0,15.8,0,18.6c0,2.8-2.2,4.2-5.5,4.2c-3.3,0-5.5-1.4-5.5-4.2c0-2.8,0-18.6,0-18.6h-5.9
		c0,0,0,11.8,0,17.6s4.7,8.7,11.4,8.7c6.7,0,11.4-3,11.4-8.7s0-17.6,0-17.6H492.6z"/>
	<path class="st0" d="M611.9,226.9c0,0,0,15.8,0,18.6c0,2.8-2.2,4.2-5.5,4.2c-3.3,0-5.5-1.4-5.5-4.2c0-2.8,0-18.6,0-18.6H595
		c0,0,0,11.8,0,17.6s4.7,8.7,11.4,8.7c6.7,0,11.4-3,11.4-8.7s0-17.6,0-17.6H611.9z"/>
	<path class="st0" d="M520,239.3c4.7,0,4.8-4.9,4.8-6.6c0-1.7-2-5.8-6.4-5.8s-13.1,0-13.1,0v25.7c0,0,9.7,0.3,15.2,0
		c3.8-0.2,6.1-4,6.1-7.2C526.5,242.2,524.6,239.3,520,239.3z M511.3,229.8c0,0,3.7,0,5.5,0c1.8,0,2.9,2.6,2.9,3.9s-1,4.5-3.6,4.5
		s-4.8,0-4.8,0V229.8z M517.6,249.5c-2.4,0-6.2,0-6.2,0V241c0,0,3.9,0,5.3,0c1.4,0,4.5,0.5,4.5,3.6
		C521.1,247.5,520,249.5,517.6,249.5z"/>
</g>
<g id="Trait">
	<rect x="119.6" y="168.3" class="st0" width="9.5" height="88.6"/>
</g>
<g id="ENFIP">
	<polygon class="st0" points="0,0 0,112.6 91.6,112.6 91.6,102.9 11.4,102.9 11.4,62.5 88.6,62.5 88.6,51 11.4,51 11.4,10.7 
		91.6,10.7 91.6,0 	"/>
	<polygon class="st0" points="118.3,112.6 118.3,0 142.1,0 220.6,112.6 207,112.6 134.9,10.7 130.7,10.7 130.7,112.6 	"/>
	<rect x="203.2" class="st0" width="12.4" height="60.4"/>
	<polygon class="st0" points="235.8,0 235.8,112.6 247.8,112.6 247.8,62.7 326.7,62.7 326.7,51.4 247.6,51.4 247.6,10.5 328,10.5 
		328,0 	"/>
	<rect x="353.3" class="st0" width="12" height="112.6"/>
	<path class="st0" d="M401,0v112.6h11.8V11.8c0,0,36.6,0,52.8,0c16.2,0,20.6,17.1,20.6,22.7s-6.9,22.9-19,22.9c-4.4,0-13.9,0-13.9,0
		l-25.7-34.5L414,22.2l31.8,46.5c0,0,16.2,0,20.3,0c16,0,30.3-18,30.3-33.8S482.7,0,466.7,0S401,0,401,0z"/>
</g>
</svg>
