<?xml version="1.0" encoding="utf-8"?>
<!-- Generator: Adobe Illustrator 27.4.0, SVG Export Plug-In . SVG Version: 6.00 Build 0)  -->
<svg version="1.1" id="Logotype" xmlns="http://www.w3.org/2000/svg" xmlns:xlink="http://www.w3.org/1999/xlink" x="0px" y="0px"
	 viewBox="0 0 827.7 1158.8" style="enable-background:new 0 0 827.7 1158.8;" xml:space="preserve">
<style type="text/css">
	.st0{fill:#FFFFFF;}
</style>
<g>
	<circle class="st0" cx="508.2" cy="815.1" r="172.7"/>
	<path class="st0" d="M827.7,815.1c0,189.5-154.2,343.7-343.7,343.7c-236.8,0-434.8-202.5-484-473.3h283.9
		c-22.1,38.1-34.8,82.4-34.8,129.5c0,142.9,116.2,259.1,259.1,259.1s259.1-116.2,259.1-259.1c0-47.2-12.7-91.4-34.8-129.5h69.9
		C818.7,725.5,827.7,769.3,827.7,815.1z M457.9,132.7c0,86.6,80.6,200.6,78.1,267.1c-1.8,47.5-27.8,79.8-27.8,79.8
		c0-135.3-97.1-194.1-97.1-294.9c0-19.1,2.7-37.1,7.1-53.8c1.1-4-4.6-6.2-6.5-2.4c-23.6,47.7-42.3,105.4-42.3,169
		C369.4,434,508.2,556,508.2,556s138.8-122,138.8-258.5c0-108.7-128.6-181.2-135.4-294.3c-0.2-3.2-4.3-4.4-6.2-1.9
		C491.5,19.9,457.9,71.1,457.9,132.7z"/>
</g>
</svg>
