<?xml version="1.0" encoding="utf-8"?>
<!-- Generator: Adobe Illustrator 27.4.0, SVG Export Plug-In . SVG Version: 6.00 Build 0)  -->
<svg version="1.1" id="Calque_1" xmlns="http://www.w3.org/2000/svg" xmlns:xlink="http://www.w3.org/1999/xlink" x="0px" y="0px"
	 viewBox="0 0 149 149" style="enable-background:new 0 0 149 149;" xml:space="preserve">
<style type="text/css">
	.st0{fill:#FFFFFF;}
</style>
<path class="st0" d="M74.5,0C33.4,0,0,33.4,0,74.5C0,115.7,33.4,149,74.5,149c41.2,0,74.5-33.4,74.5-74.5C149,33.4,115.7,0,74.5,0z
	 M69.5,36.6c4.4-4.4,11.6-4.4,16,0s4.4,11.6,0,16s-11.6,4.4-16,0S65.1,41.1,69.5,36.6z M37.5,103.2c-1.9,0-3.6-0.8-4.9-2
	c-0.2-0.2-0.4-0.4-0.5-0.5c-0.6-0.7-1-1.5-1.3-2.4c0-0.2-0.1-0.3-0.1-0.5c-0.1-0.5-0.2-1-0.2-1.6c0-3.9,3.1-7,7-7
	c3.5,0,6.4,2.6,6.9,6c0.1,0.3,0.1,0.7,0.1,1C44.5,100,41.3,103.2,37.5,103.2z M61.6,79c-7.4,0-13.6,4.6-16.1,11.2
	c-1.8-2.4-4.7-4-8-4c-2.2,0-4.3,0.7-5.9,2c3.5-13.2,15.7-23,30-23c7.7,0,14.7,2.8,20.1,7.4c-2.5,4.6-4.3,9.7-5.2,15.1
	C73.5,82.4,67.9,79,61.6,79z M115.4,67.9c-12.6,0-22.8,12.7-22.8,28.2c0,3.8-3.1,7-7,7s-7-3.1-7-7c0-7.9,1.9-15.3,5.2-21.6
	C90.3,62.3,102.1,54,115.4,54c3.8,0,6.9,3.1,6.9,7C122.4,64.8,119.2,67.9,115.4,67.9z"/>
</svg>
