<?xml version="1.0" encoding="utf-8"?>
<!-- Generator: Adobe Illustrator 27.9.0, SVG Export Plug-In . SVG Version: 6.00 Build 0)  -->
<svg version="1.1" xmlns="http://www.w3.org/2000/svg" xmlns:xlink="http://www.w3.org/1999/xlink" x="0px" y="0px"
	 viewBox="0 0 355.8 341.3" style="enable-background:new 0 0 355.8 341.3;" xml:space="preserve">
<style type="text/css">
	.st0{fill-rule:evenodd;clip-rule:evenodd;fill:#FFFFFF;}
	.st1{fill:#FFFFFF;}
</style>
<g id="Calque_2">
</g>
<g id="Calque_1">
	<polygon class="st0" points="12.8,330.1 37.7,330.1 37.7,339.6 2.5,339.6 2.5,276.4 12.8,276.4 	"/>
	<rect x="49" y="294.1" class="st0" width="9.3" height="45.5"/>
	
		<ellipse transform="matrix(0.2298 -0.9732 0.9732 0.2298 -228.8221 266.1555)" class="st0" cx="53.7" cy="277.6" rx="6.3" ry="6.3"/>
	<path class="st0" d="M110,208.3c11.1-5.1,17.5-14.9,17.5-28c0-20.1-14.7-32.3-38.5-32.3H55.8v108.3h22v-43.8h11.3l28.9,43.8h25.8
		L110,208.3z M90.2,194.3H77.8v-28h12.4c9.3,0,14.7,5.6,14.7,13.8C104.9,188.9,99.5,194.3,90.2,194.3z"/>
	<path class="st0" d="M154.1,326.8c-2.6,3.5-6.8,5.9-11.7,6.2c4.2,1.7,8.4,3.2,12.8,4.6c2.3-1.4,4.2-3.2,5.8-5.3L154.1,326.8z"/>
	<path class="st0" d="M220.1,148h-28.8l-41,108.3h23.3l10.4-28.2h43.3l10.4,28.2h23.4L220.1,148z M190.9,209.4l14.9-40.7l14.8,40.7
		H190.9z"/>
	<path class="st1" d="M110,208.3c11.1-5.1,17.5-14.9,17.5-28c0-20.1-14.7-32.3-38.5-32.3H55.8v108.3h22v-43.8h11.3l28.9,43.8h25.8
		L110,208.3z M90.2,194.3H77.8v-28h12.4c9.3,0,14.7,5.6,14.7,13.8C104.9,188.9,99.5,194.3,90.2,194.3z"/>
	<path class="st1" d="M160.8,332.2c-1.6,2.1-3.5,3.9-5.8,5.3c-4.3-1.4-8.6-2.9-12.8-4.6c5-0.3,9.1-2.7,11.7-6.2L160.8,332.2z"/>
	<path class="st1" d="M220.1,148h-28.8l-41,108.3h23.3l10.4-28.2h43.3l10.4,28.2h23.4L220.1,148z M190.9,209.4l14.9-40.7l14.8,40.7
		H190.9z"/>
	<polygon class="st0" points="356.2,76.6 304,93.1 277.6,140.6 256.5,102.9 212.3,103.4 248,70 248,23.4 288,28.6 331.7,0.4 
		322.3,46 	"/>
	<g>
		<path class="st1" d="M127.5,180.3c0-20.1-14.7-32.3-38.5-32.3H55.8v108.3h22v-43.8h11.3l28.9,43.8h25.8L110,208.3
			C121.1,203.2,127.5,193.5,127.5,180.3z M90.2,194.3H77.8v-28h12.4c9.3,0,14.7,5.6,14.7,13.8C104.9,188.9,99.5,194.3,90.2,194.3z"
			/>
		<path class="st1" d="M220.1,148h-28.8l-41,108.3h23.3l10.4-28.2h43.3l10.4,28.2h23.4L220.1,148z M190.9,209.4l14.9-40.7l14.8,40.7
			H190.9z"/>
		<rect x="2" y="148" class="st1" width="22" height="108.3"/>
	</g>
	<g>
		<rect x="96.2" y="271.9" class="st1" width="9.3" height="67.7"/>
		<path class="st1" d="M154.1,326.8c-2.6,3.5-6.8,5.9-11.7,6.2c-0.4,0-0.8,0-1.2,0c-5.6,0-10-2.1-12.7-6.2c-1.5-2.3-2.5-5.3-2.7-8.9
			h33.6c0.4-1.4,0.6-3.4,0.6-5.6c0-11.5-8.1-20-20.7-20c-14.5,0-23.1,10.9-23.1,24.6c0,1.3,0.1,2.5,0.2,3.7
			c1.6,11.6,10.5,20.9,24.8,20.9c5.3,0,10.1-1.4,13.9-3.9c2.3-1.4,4.2-3.2,5.8-5.3L154.1,326.8z M139.2,300c7,0,11.3,5.1,11.5,10.9
			h-24.5C127.6,303.9,132.3,300,139.2,300z"/>
		<polygon class="st1" points="12.8,276.4 2.5,276.4 2.5,339.6 37.7,339.6 37.7,330.1 12.8,330.1 		"/>
		<rect x="49" y="294.1" class="st1" width="9.3" height="45.5"/>
		<path class="st1" d="M53.7,271.3c-3.4,0-6.3,2.9-6.3,6.3c0,3.4,2.9,6.3,6.3,6.3c3.4,0,6.3-2.9,6.3-6.3
			C60.1,274.2,57.2,271.3,53.7,271.3z"/>
		<rect x="72.6" y="271.9" class="st1" width="9.3" height="67.7"/>
	</g>
</g>
</svg>
