<?xml version="1.0" encoding="utf-8"?>
<!-- Generator: Adobe Illustrator 27.4.0, SVG Export Plug-In . SVG Version: 6.00 Build 0)  -->
<svg version="1.1" id="Calque_1" xmlns="http://www.w3.org/2000/svg" xmlns:xlink="http://www.w3.org/1999/xlink" x="0px" y="0px"
	 viewBox="0 0 155 100" style="enable-background:new 0 0 155 100;" xml:space="preserve">
<style type="text/css">
	.st0{fill:#FFFFFF;}
</style>
<g id="Logo">
	<path id="enpjJ" class="st0" d="M125,40v45c0,2.8-2.2,5-5,5h-0.6c-1,3.9-3.2,7.4-6.2,10h6.8c8.3,0,15-6.7,15-15V40H125z"/>
	<path id="enpJj" class="st0" d="M105,40v45c0,2.8-2.2,5-5,5H90l0,10h10c8.3,0,15-6.7,15-15V40H105z"/>
	<path id="enPjj" class="st0" d="M85,40c-8.3,0-15,6.7-15,15v10c0,0,0,0,0,0h0v35h10V79.1c1.6,0.6,3.2,0.9,5,0.9c8.3,0,15-6.7,15-15
		V55C100,46.7,93.3,40,85,40z M90,65c0,2.8-2.2,5-5,5c-2.8,0-5-2.2-5-5V55c0-2.8,2.2-5,5-5c2.8,0,5,2.2,5,5V65z"/>
	<path id="eNpjj" class="st0" d="M50,40c-8.3,0-15,6.7-15,15v45h10V55c0-2.8,2.2-5,5-5c2.8,0,5,2.2,5,5v45h10V55
		C65,46.7,58.3,40,50,40z"/>
	<path id="Enpjj" class="st0" d="M30,75V55c0-8.3-6.7-15-15-15S0,46.7,0,55v30c0,8.3,6.7,15,15,15s15-6.7,15-15H20c0,2.8-2.2,5-5,5
		c-2.8,0-5-2.2-5-5V75H30z M10,55c0-2.8,2.2-5,5-5c2.8,0,5,2.2,5,5v10H10V55z"/>
	<path class="st0" d="M155,0l-10,10v25h-10l0-10c0-2.8-2.2-5-5-5c-2.8,0-5,2.2-5,5v10h-10v-5c0-2.8-2.2-5-5-5s-5,2.2-5,5v5H70V10
		L80,0H155z"/>
</g>
</svg>
